{"glyphs":{"0":{"ha":814,"x_min":83,"x_max":731,"o":"m 365 -4 q 150 63 217 -4 q 83 278 83 130 l 83 593 q 151 807 83 741 q 365 874 219 874 l 449 874 q 664 807 597 874 q 731 592 731 740 l 731 278 q 664 63 731 130 q 449 -4 597 -4 l 365 -4 m 365 54 l 449 54 q 580 76 531 54 q 650 147 628 98 q 672 278 672 196 l 672 592 q 650 723 672 674 q 580 793 628 772 q 449 815 531 815 l 365 815 q 234 794 283 815 q 164 724 185 772 q 142 593 142 675 l 142 278 q 164 147 142 196 q 234 76 185 98 q 365 54 283 54 m 396 385 q 361 421 361 385 l 361 444 q 396 479 361 479 l 419 479 q 454 444 454 479 l 454 421 q 419 385 454 385 l 396 385 z "},"1":{"ha":476,"x_min":102,"x_max":338,"o":"m 308 0 q 279 29 279 0 l 279 819 l 313 818 l 163 669 q 142 659 152 659 q 121 669 131 659 q 121 711 102 690 l 278 864 q 314 879 291 879 q 338 850 338 879 l 338 29 q 308 0 338 0 z "},"2":{"ha":783,"x_min":83,"x_max":700,"o":"m 671 0 l 126 0 q 96 29 96 0 q 115 158 96 104 q 174 256 134 213 q 275 341 213 299 q 422 431 337 382 q 534 499 488 469 q 604 565 580 530 q 628 651 628 600 q 591 783 628 745 q 458 821 553 821 l 310 821 q 186 790 224 821 q 142 682 147 758 q 134 660 141 667 q 113 653 126 653 q 90 661 98 653 q 83 683 83 669 q 144 832 90 785 q 310 879 199 879 l 458 879 q 632 825 577 879 q 686 651 686 770 q 655 537 686 583 q 570 454 624 490 q 451 381 517 418 q 289 280 352 324 q 193 186 226 237 q 156 58 161 136 l 671 58 q 700 29 700 58 q 671 0 700 0 z "},"3":{"ha":793,"x_min":69,"x_max":710,"o":"m 310 1 q 134 52 192 1 q 69 211 76 102 q 76 234 69 226 q 99 242 84 242 q 128 213 126 242 q 175 94 133 128 q 310 60 216 60 l 468 60 q 611 100 570 60 q 651 242 651 141 q 611 383 651 343 q 468 424 570 424 l 332 424 q 303 453 303 424 q 332 482 303 482 l 475 482 q 597 524 564 483 q 629 651 629 565 q 592 783 629 745 q 460 821 555 821 l 325 821 q 201 790 240 821 q 157 682 163 758 q 128 653 155 653 q 106 661 113 653 q 99 683 98 669 q 160 832 105 785 q 325 879 215 879 l 460 879 q 633 825 578 879 q 688 651 688 770 q 578 457 688 508 q 678 378 647 431 q 710 242 710 325 q 652 59 710 117 q 468 1 594 1 l 310 1 z "},"4":{"ha":719,"x_min":42,"x_max":678,"o":"m 553 0 q 524 29 524 0 l 531 792 l 542 785 l 115 238 l 103 251 l 649 251 q 670 244 663 251 q 678 222 678 237 q 649 193 678 193 l 71 193 q 42 222 42 193 q 54 253 42 236 l 528 861 q 543 875 535 871 q 564 879 551 879 q 589 850 589 879 l 582 29 q 553 0 582 0 z "},"5":{"ha":793,"x_min":83,"x_max":710,"o":"m 324 0 q 148 50 206 0 q 83 210 90 101 q 90 232 83 224 q 113 240 98 240 q 142 211 140 240 q 189 93 147 127 q 324 58 230 58 l 468 58 q 611 100 570 58 q 651 242 651 141 l 651 338 q 611 480 651 439 q 468 521 570 521 l 365 521 q 175 469 226 521 q 158 458 167 461 q 136 458 149 454 l 131 460 q 106 492 106 466 l 106 850 q 135 879 106 879 l 671 879 q 700 850 700 879 q 671 821 700 821 l 164 821 l 164 536 q 365 579 233 579 l 468 579 q 652 522 594 579 q 710 338 710 464 l 710 242 q 652 58 710 116 q 468 0 594 0 l 324 0 z "},"6":{"ha":794,"x_min":83,"x_max":711,"o":"m 325 1 q 141 59 199 1 q 83 242 83 117 l 83 651 q 138 825 83 770 q 311 879 192 879 l 483 879 q 649 832 594 879 q 710 683 703 785 q 703 661 711 669 q 682 653 696 653 q 651 682 653 653 q 608 790 647 758 q 483 821 570 821 l 311 821 q 180 783 217 821 q 142 651 142 745 l 142 483 q 325 578 186 578 l 469 578 q 653 520 596 578 q 711 336 711 463 l 711 243 q 653 59 711 117 q 469 1 596 1 l 325 1 m 325 60 l 469 60 q 612 101 571 60 q 653 243 653 142 l 653 336 q 612 478 653 438 q 469 519 571 519 l 325 519 q 182 479 223 519 q 142 338 142 439 l 142 242 q 182 100 142 141 q 325 60 223 60 z "},"7":{"ha":635,"x_min":42,"x_max":593,"o":"m 218 0 q 189 31 189 0 q 198 199 190 126 q 226 331 206 273 q 286 437 247 389 q 388 528 325 485 q 472 604 440 565 q 518 695 503 644 q 535 821 533 747 l 71 821 q 42 850 42 821 q 71 879 42 879 l 564 879 q 593 850 593 879 q 577 691 593 758 q 523 575 560 625 q 421 481 485 524 q 337 407 370 445 q 284 320 303 369 q 257 201 265 271 q 247 31 249 131 q 218 0 247 0 z "},"8":{"ha":808,"x_min":83,"x_max":725,"o":"m 607 456 q 725 240 725 407 q 667 58 725 115 q 483 0 610 0 l 325 0 q 141 58 199 0 q 83 240 83 115 q 206 457 83 408 q 113 651 113 510 q 167 825 113 770 q 340 879 222 879 l 475 879 q 648 825 594 879 q 703 651 703 770 q 607 456 703 506 m 340 821 q 209 783 247 821 q 171 651 171 745 q 209 519 171 557 q 342 481 247 481 l 503 482 q 586 500 555 482 q 631 556 617 519 q 644 651 644 594 q 607 783 644 745 q 475 821 569 821 l 340 821 m 483 58 q 626 99 585 58 q 667 240 667 140 q 626 382 667 342 q 483 422 585 422 l 325 422 q 182 382 223 422 q 142 240 142 342 q 182 99 142 140 q 325 58 223 58 l 483 58 z "},"9":{"ha":794,"x_min":83,"x_max":711,"o":"m 469 878 q 653 820 596 878 q 711 638 711 763 l 711 228 q 657 55 711 109 q 483 0 602 0 l 311 0 q 146 48 201 0 q 85 196 91 95 q 92 218 84 210 q 113 226 99 226 q 143 197 141 226 q 187 90 149 122 q 311 58 225 58 l 483 58 q 615 96 577 58 q 653 228 653 134 l 653 396 q 469 301 608 301 l 325 301 q 141 359 199 301 q 83 543 83 417 l 83 636 q 141 820 83 763 q 325 878 199 878 l 469 878 m 469 819 l 325 819 q 183 778 224 819 q 142 636 142 738 l 142 543 q 183 401 142 442 q 325 360 224 360 l 469 360 q 612 400 572 360 q 653 542 653 441 l 653 638 q 612 779 653 739 q 469 819 572 819 z "},"A":{"ha":829,"x_min":20,"x_max":809,"o":"m 46 3 q 31 42 20 15 l 379 857 q 413 879 388 879 l 417 879 q 450 857 440 879 l 797 42 q 782 3 809 15 q 744 18 756 -8 l 647 249 l 184 249 l 85 18 q 46 3 74 -8 m 209 307 l 622 307 l 417 788 l 209 307 z "},"Á":{"ha":829,"x_min":20,"x_max":809,"o":"m 396 965 q 392 1007 375 984 l 517 1154 q 558 1158 536 1178 q 563 1117 579 1140 l 438 969 q 396 965 418 945 m 46 3 q 31 42 20 15 l 379 857 q 413 879 388 879 l 417 879 q 450 857 440 879 l 797 42 q 782 3 809 15 q 744 18 756 -8 l 647 249 l 184 249 l 85 18 q 46 3 74 -8 m 209 307 l 622 307 l 417 788 l 209 307 z "},"Ă":{"ha":829,"x_min":20,"x_max":809,"o":"m 46 3 q 31 42 20 15 l 379 857 q 413 879 388 879 l 417 879 q 450 857 440 879 l 797 42 q 782 3 809 15 q 744 18 756 -8 l 647 249 l 184 249 l 85 18 q 46 3 74 -8 m 209 307 l 622 307 l 417 788 l 209 307 m 415 960 q 288 1002 331 959 q 244 1128 244 1044 l 244 1131 q 274 1160 244 1160 q 303 1131 303 1160 l 303 1128 q 329 1043 303 1069 q 414 1017 356 1017 q 499 1044 474 1018 q 525 1128 525 1069 l 525 1131 q 554 1160 525 1160 q 583 1131 583 1160 l 583 1128 q 540 1001 583 1042 q 415 960 496 960 z "},"Ắ":{"ha":829,"x_min":20,"x_max":809,"o":"m 389 1143 q 385 1185 368 1162 l 510 1332 q 551 1336 529 1356 q 556 1294 572 1317 l 431 1147 q 389 1143 411 1123 m 46 3 q 31 42 20 15 l 379 857 q 413 879 388 879 l 417 879 q 450 857 440 879 l 797 42 q 782 3 809 15 q 744 18 756 -8 l 647 249 l 184 249 l 85 18 q 46 3 74 -8 m 209 307 l 622 307 l 417 788 l 209 307 m 415 960 q 288 1002 331 959 q 244 1128 244 1044 l 244 1131 q 274 1160 244 1160 q 303 1131 303 1160 l 303 1128 q 329 1043 303 1069 q 414 1017 356 1017 q 499 1044 474 1018 q 525 1128 525 1069 l 525 1131 q 554 1160 525 1160 q 583 1131 583 1160 l 583 1128 q 540 1001 583 1042 q 415 960 496 960 z "},"Ặ":{"ha":829,"x_min":20,"x_max":809,"o":"m 46 3 q 31 42 20 15 l 379 857 q 413 879 388 879 l 417 879 q 450 857 440 879 l 797 42 q 782 3 809 15 q 744 18 756 -8 l 647 249 l 184 249 l 85 18 q 46 3 74 -8 m 209 307 l 622 307 l 417 788 l 209 307 m 401 -208 q 367 -172 367 -208 l 367 -149 q 401 -114 367 -114 l 425 -114 q 460 -149 460 -114 l 460 -172 q 425 -208 460 -208 l 401 -208 m 415 960 q 288 1002 331 959 q 244 1128 244 1044 l 244 1131 q 274 1160 244 1160 q 303 1131 303 1160 l 303 1128 q 329 1043 303 1069 q 414 1017 356 1017 q 499 1044 474 1018 q 525 1128 525 1069 l 525 1131 q 554 1160 525 1160 q 583 1131 583 1160 l 583 1128 q 540 1001 583 1042 q 415 960 496 960 z "},"Ằ":{"ha":829,"x_min":20,"x_max":809,"o":"m 46 3 q 31 42 20 15 l 379 857 q 413 879 388 879 l 417 879 q 450 857 440 879 l 797 42 q 782 3 809 15 q 744 18 756 -8 l 647 249 l 184 249 l 85 18 q 46 3 74 -8 m 209 307 l 622 307 l 417 788 l 209 307 m 415 960 q 288 1002 331 959 q 244 1128 244 1044 l 244 1131 q 274 1160 244 1160 q 303 1131 303 1160 l 303 1128 q 329 1043 303 1069 q 414 1017 356 1017 q 499 1044 474 1018 q 525 1128 525 1069 l 525 1131 q 554 1160 525 1160 q 583 1131 583 1160 l 583 1128 q 540 1001 583 1042 q 415 960 496 960 m 451 1143 q 410 1147 429 1123 l 285 1294 q 289 1336 268 1317 q 331 1332 311 1356 l 456 1185 q 451 1143 472 1162 z "},"Ẳ":{"ha":829,"x_min":20,"x_max":809,"o":"m 46 3 q 31 42 20 15 l 379 857 q 413 879 388 879 l 417 879 q 450 857 440 879 l 797 42 q 782 3 809 15 q 744 18 756 -8 l 647 249 l 184 249 l 85 18 q 46 3 74 -8 m 209 307 l 622 307 l 417 788 l 209 307 m 415 960 q 288 1002 331 959 q 244 1128 244 1044 l 244 1131 q 274 1160 244 1160 q 303 1131 303 1160 l 303 1128 q 329 1043 303 1069 q 414 1017 356 1017 q 499 1044 474 1018 q 525 1128 525 1069 l 525 1131 q 554 1160 525 1160 q 583 1131 583 1160 l 583 1128 q 540 1001 583 1042 q 415 960 496 960 m 414 1108 q 392 1116 399 1108 q 385 1138 385 1123 q 408 1203 385 1181 q 450 1236 431 1225 q 480 1258 473 1250 q 486 1279 486 1266 q 474 1324 486 1313 q 429 1336 463 1336 q 384 1324 396 1336 q 372 1279 372 1313 q 365 1257 372 1265 q 343 1250 358 1250 q 321 1257 328 1250 q 314 1279 314 1265 q 429 1394 314 1394 q 544 1279 544 1394 q 522 1218 544 1239 q 481 1186 499 1198 q 450 1163 458 1172 q 443 1138 443 1153 q 436 1116 443 1123 q 414 1108 428 1108 z "},"Ẵ":{"ha":829,"x_min":20,"x_max":809,"o":"m 46 3 q 31 42 20 15 l 379 857 q 413 879 388 879 l 417 879 q 450 857 440 879 l 797 42 q 782 3 809 15 q 744 18 756 -8 l 647 249 l 184 249 l 85 18 q 46 3 74 -8 m 209 307 l 622 307 l 417 788 l 209 307 m 410 960 q 282 1002 326 959 q 239 1128 239 1044 l 239 1131 q 268 1160 239 1160 q 297 1131 297 1160 l 297 1128 q 324 1043 297 1069 q 408 1017 350 1017 q 494 1044 468 1018 q 519 1128 519 1069 l 519 1131 q 549 1160 519 1160 q 578 1131 578 1160 l 578 1128 q 534 1001 578 1042 q 410 960 490 960 m 469 1208 q 427 1220 444 1208 q 398 1249 410 1233 q 374 1277 386 1265 q 346 1289 362 1289 q 320 1274 330 1289 q 297 1229 311 1259 q 286 1214 293 1220 q 269 1208 279 1208 q 244 1223 251 1208 q 242 1247 238 1238 q 287 1322 264 1297 q 347 1347 310 1347 q 393 1335 375 1347 q 423 1307 410 1323 q 447 1279 435 1291 q 473 1267 458 1267 q 497 1279 488 1267 q 511 1305 506 1291 q 519 1326 517 1319 q 530 1342 523 1336 q 548 1347 536 1347 q 572 1334 567 1347 q 575 1308 576 1320 q 559 1266 573 1289 q 522 1225 544 1242 q 469 1208 499 1208 z "},"Â":{"ha":829,"x_min":20,"x_max":809,"o":"m 46 3 q 31 42 20 15 l 379 857 q 413 879 388 879 l 417 879 q 450 857 440 879 l 797 42 q 782 3 809 15 q 744 18 756 -8 l 647 249 l 184 249 l 85 18 q 46 3 74 -8 m 209 307 l 622 307 l 417 788 l 209 307 m 243 969 q 222 978 231 969 q 214 999 214 986 q 225 1021 214 1012 l 365 1139 q 401 1151 382 1151 l 421 1151 q 457 1139 440 1151 l 597 1021 q 608 999 608 1012 q 600 978 608 986 q 579 969 592 969 q 560 976 569 969 l 419 1093 l 403 1093 l 263 976 q 243 969 253 969 z "},"Ấ":{"ha":829,"x_min":20,"x_max":809,"o":"m 46 3 q 31 42 20 15 l 379 857 q 413 879 388 879 l 417 879 q 450 857 440 879 l 797 42 q 782 3 809 15 q 744 18 756 -8 l 647 249 l 184 249 l 85 18 q 46 3 74 -8 m 209 307 l 622 307 l 417 788 l 209 307 m 542 1106 q 521 1114 529 1106 q 513 1135 513 1122 q 519 1154 513 1145 l 615 1267 q 638 1278 624 1278 q 658 1269 650 1278 q 667 1249 667 1261 q 665 1239 667 1244 q 660 1229 663 1233 l 564 1117 q 542 1106 555 1106 m 250 969 q 229 978 238 969 q 221 999 221 986 q 232 1021 221 1012 l 372 1139 q 408 1151 389 1151 l 428 1151 q 464 1139 447 1151 l 604 1021 q 615 999 615 1012 q 607 978 615 986 q 586 969 599 969 q 567 976 576 969 l 426 1093 l 410 1093 l 269 976 q 250 969 260 969 z "},"Ậ":{"ha":829,"x_min":20,"x_max":809,"o":"m 46 3 q 31 42 20 15 l 379 857 q 413 879 388 879 l 417 879 q 450 857 440 879 l 797 42 q 782 3 809 15 q 744 18 756 -8 l 647 249 l 184 249 l 85 18 q 46 3 74 -8 m 209 307 l 622 307 l 417 788 l 209 307 m 401 -208 q 367 -172 367 -208 l 367 -149 q 401 -114 367 -114 l 425 -114 q 460 -149 460 -114 l 460 -172 q 425 -208 460 -208 l 401 -208 m 243 969 q 222 978 231 969 q 214 999 214 986 q 225 1021 214 1012 l 365 1139 q 401 1151 382 1151 l 421 1151 q 457 1139 440 1151 l 597 1021 q 608 999 608 1012 q 600 978 608 986 q 579 969 592 969 q 560 976 569 969 l 419 1093 l 403 1093 l 263 976 q 243 969 253 969 z "},"Ầ":{"ha":829,"x_min":20,"x_max":809,"o":"m 46 3 q 31 42 20 15 l 379 857 q 413 879 388 879 l 417 879 q 450 857 440 879 l 797 42 q 782 3 809 15 q 744 18 756 -8 l 647 249 l 184 249 l 85 18 q 46 3 74 -8 m 209 307 l 622 307 l 417 788 l 209 307 m 258 1106 q 236 1117 245 1106 l 140 1229 q 133 1249 133 1238 q 142 1269 133 1261 q 163 1278 150 1278 q 185 1267 176 1278 l 281 1154 q 288 1135 288 1145 q 279 1114 288 1122 q 258 1106 271 1106 m 256 969 q 235 978 243 969 q 226 999 226 986 q 238 1021 226 1012 l 378 1139 q 414 1151 394 1151 l 433 1151 q 469 1139 453 1151 l 610 1021 q 621 999 621 1012 q 613 978 621 986 q 592 969 604 969 q 572 976 581 969 l 432 1093 l 415 1093 l 275 976 q 256 969 266 969 z "},"Ẩ":{"ha":829,"x_min":20,"x_max":809,"o":"m 46 3 q 31 42 20 15 l 379 857 q 413 879 388 879 l 417 879 q 450 857 440 879 l 797 42 q 782 3 809 15 q 744 18 756 -8 l 647 249 l 184 249 l 85 18 q 46 3 74 -8 m 209 307 l 622 307 l 417 788 l 209 307 m 244 969 q 224 978 232 969 q 215 999 215 986 q 226 1021 215 1012 l 367 1139 q 403 1151 383 1151 l 422 1151 q 458 1139 442 1151 l 599 1021 q 610 999 610 1012 q 601 978 610 986 q 581 969 593 969 q 561 976 570 969 l 421 1093 l 404 1093 l 264 976 q 244 969 255 969 m 542 1096 q 520 1103 527 1096 q 513 1125 513 1110 q 536 1191 513 1169 q 578 1224 559 1213 q 607 1245 601 1238 q 614 1267 614 1253 q 602 1312 614 1300 q 557 1324 590 1324 q 512 1312 524 1324 q 500 1267 500 1300 q 493 1245 500 1252 q 471 1238 485 1238 q 449 1245 456 1238 q 442 1267 442 1252 q 557 1382 442 1382 q 672 1267 672 1382 q 650 1206 672 1226 q 608 1174 627 1185 q 578 1150 585 1159 q 571 1125 571 1141 q 564 1103 571 1110 q 542 1096 556 1096 z "},"Ẫ":{"ha":829,"x_min":20,"x_max":809,"o":"m 46 3 q 31 42 20 15 l 379 857 q 413 879 388 879 l 417 879 q 450 857 440 879 l 797 42 q 782 3 809 15 q 744 18 756 -8 l 647 249 l 184 249 l 85 18 q 46 3 74 -8 m 209 307 l 622 307 l 417 788 l 209 307 m 247 969 q 226 978 235 969 q 218 999 218 986 q 229 1021 218 1012 l 369 1139 q 406 1151 386 1151 l 425 1151 q 461 1139 444 1151 l 601 1021 q 613 999 613 1012 q 604 978 613 986 q 583 969 596 969 q 564 976 573 969 l 424 1093 l 407 1093 l 267 976 q 247 969 258 969 m 499 1175 q 438 1192 461 1175 q 400 1225 415 1210 q 371 1250 385 1241 q 335 1260 358 1260 q 297 1247 310 1260 q 271 1196 283 1235 q 260 1181 268 1187 q 243 1175 253 1175 q 218 1190 224 1175 q 215 1214 211 1205 q 262 1294 234 1269 q 335 1318 290 1318 q 401 1300 376 1318 q 442 1265 426 1282 q 472 1240 460 1247 q 499 1233 483 1233 q 538 1248 523 1233 q 564 1297 553 1263 q 574 1313 567 1307 q 593 1318 580 1318 q 617 1305 610 1318 q 619 1281 624 1291 q 572 1202 601 1230 q 499 1175 544 1175 z "},"Ȁ":{"ha":829,"x_min":20,"x_max":809,"o":"m 349 977 q 312 981 329 960 l 199 1114 q 203 1151 184 1134 q 240 1147 223 1169 l 353 1015 q 349 977 368 994 m 502 977 q 465 981 482 960 l 352 1114 q 356 1151 337 1134 q 393 1147 376 1169 l 506 1015 q 502 977 521 994 m 46 3 q 31 42 20 15 l 379 857 q 413 879 388 879 l 417 879 q 450 857 440 879 l 797 42 q 782 3 809 15 q 744 18 756 -8 l 647 249 l 184 249 l 85 18 q 46 3 74 -8 m 209 307 l 622 307 l 417 788 l 209 307 z "},"Ä":{"ha":829,"x_min":20,"x_max":809,"o":"m 46 3 q 31 42 20 15 l 379 857 q 413 879 388 879 l 417 879 q 450 857 440 879 l 797 42 q 782 3 809 15 q 744 18 756 -8 l 647 249 l 184 249 l 85 18 q 46 3 74 -8 m 209 307 l 622 307 l 417 788 l 209 307 m 303 1001 q 268 1038 268 1001 l 268 1061 q 303 1096 268 1096 l 326 1096 q 361 1061 361 1096 l 361 1038 q 326 1001 361 1001 l 303 1001 m 501 1001 q 467 1038 467 1001 l 467 1061 q 501 1096 467 1096 l 525 1096 q 560 1061 560 1096 l 560 1038 q 525 1001 560 1001 l 501 1001 z "},"Ạ":{"ha":829,"x_min":20,"x_max":809,"o":"m 46 3 q 31 42 20 15 l 379 857 q 413 879 388 879 l 417 879 q 450 857 440 879 l 797 42 q 782 3 809 15 q 744 18 756 -8 l 647 249 l 184 249 l 85 18 q 46 3 74 -8 m 209 307 l 622 307 l 417 788 l 209 307 m 401 -208 q 367 -172 367 -208 l 367 -149 q 401 -114 367 -114 l 425 -114 q 460 -149 460 -114 l 460 -172 q 425 -208 460 -208 l 401 -208 z "},"À":{"ha":829,"x_min":20,"x_max":809,"o":"m 46 3 q 31 42 20 15 l 379 857 q 413 879 388 879 l 417 879 q 450 857 440 879 l 797 42 q 782 3 809 15 q 744 18 756 -8 l 647 249 l 184 249 l 85 18 q 46 3 74 -8 m 209 307 l 622 307 l 417 788 l 209 307 m 453 965 q 411 969 431 945 l 286 1117 q 290 1158 269 1140 q 332 1154 313 1178 l 457 1007 q 453 965 474 984 z "},"Ả":{"ha":829,"x_min":20,"x_max":809,"o":"m 46 3 q 31 42 20 15 l 379 857 q 413 879 388 879 l 417 879 q 450 857 440 879 l 797 42 q 782 3 809 15 q 744 18 756 -8 l 647 249 l 184 249 l 85 18 q 46 3 74 -8 m 209 307 l 622 307 l 417 788 l 209 307 m 414 958 q 392 966 399 958 q 385 988 385 973 q 408 1053 385 1031 q 450 1086 431 1075 q 480 1108 473 1100 q 486 1129 486 1116 q 474 1174 486 1163 q 429 1186 463 1186 q 384 1174 396 1186 q 372 1129 372 1163 q 365 1107 372 1115 q 343 1100 358 1100 q 321 1107 328 1100 q 314 1129 314 1115 q 429 1244 314 1244 q 544 1129 544 1244 q 522 1068 544 1089 q 481 1036 499 1048 q 450 1013 458 1022 q 443 988 443 1003 q 436 966 443 973 q 414 958 428 958 z "},"Ȃ":{"ha":829,"x_min":20,"x_max":809,"o":"m 415 1167 q 540 1126 496 1167 q 583 999 583 1085 l 583 996 q 554 967 583 967 q 525 996 525 967 l 525 999 q 499 1083 525 1057 q 414 1110 474 1109 q 329 1083 356 1110 q 303 999 303 1057 l 303 996 q 274 967 303 967 q 244 996 244 967 l 244 999 q 288 1125 244 1082 q 415 1167 331 1168 m 46 3 q 31 42 20 15 l 379 857 q 413 879 388 879 l 417 879 q 450 857 440 879 l 797 42 q 782 3 809 15 q 744 18 756 -8 l 647 249 l 184 249 l 85 18 q 46 3 74 -8 m 209 307 l 622 307 l 417 788 l 209 307 z "},"Ā":{"ha":829,"x_min":20,"x_max":809,"o":"m 46 3 q 31 42 20 15 l 379 857 q 413 879 388 879 l 417 879 q 450 857 440 879 l 797 42 q 782 3 809 15 q 744 18 756 -8 l 647 249 l 184 249 l 85 18 q 46 3 74 -8 m 209 307 l 622 307 l 417 788 l 209 307 m 239 1050 q 210 1079 210 1050 q 239 1108 210 1108 l 590 1108 q 619 1079 619 1108 q 590 1050 619 1050 l 239 1050 z "},"Ą":{"ha":829,"x_min":20,"x_max":900,"o":"m 46 3 q 31 42 20 15 l 379 857 q 413 879 388 879 l 417 879 q 450 857 440 879 l 797 42 q 782 3 809 15 q 744 18 756 -8 l 647 249 l 184 249 l 85 18 q 46 3 74 -8 m 209 307 l 622 307 l 417 788 l 209 307 m 768 -233 q 682 -202 717 -233 q 646 -124 646 -170 q 654 -82 646 -103 q 676 -42 662 -60 l 744 47 q 768 58 753 58 q 789 50 781 58 q 797 29 797 42 q 792 11 797 19 l 724 -78 q 704 -124 704 -103 q 722 -160 704 -145 q 768 -175 740 -175 q 810 -165 790 -175 q 850 -136 831 -156 q 859 -130 854 -132 q 871 -128 865 -128 q 892 -136 883 -128 q 900 -157 900 -144 q 892 -178 900 -169 q 768 -233 836 -233 z "},"Å":{"ha":829,"x_min":20,"x_max":809,"o":"m 46 3 q 31 42 20 15 l 379 857 q 413 879 388 879 l 417 879 q 450 857 440 879 l 797 42 q 782 3 809 15 q 744 18 756 -8 l 647 249 l 184 249 l 85 18 q 46 3 74 -8 m 209 307 l 622 307 l 417 788 l 209 307 m 406 965 q 327 993 355 965 q 300 1071 300 1020 q 327 1149 300 1122 q 406 1176 355 1176 q 484 1149 457 1176 q 511 1071 511 1122 q 484 993 511 1020 q 406 965 457 965 m 406 1024 q 442 1034 432 1024 q 453 1071 453 1045 q 442 1108 453 1097 q 406 1118 432 1118 q 369 1108 380 1118 q 358 1071 358 1097 q 369 1034 358 1045 q 406 1024 380 1024 z "},"Ǻ":{"ha":829,"x_min":20,"x_max":809,"o":"m 375 1271 q 371 1313 354 1290 l 496 1460 q 538 1464 515 1484 q 542 1422 558 1445 l 417 1275 q 375 1271 397 1251 m 46 3 q 31 42 20 15 l 379 857 q 413 879 388 879 l 417 879 q 450 857 440 879 l 797 42 q 782 3 809 15 q 744 18 756 -8 l 647 249 l 184 249 l 85 18 q 46 3 74 -8 m 209 307 l 622 307 l 417 788 l 209 307 m 406 965 q 327 993 355 965 q 300 1071 300 1020 q 327 1149 300 1122 q 406 1176 355 1176 q 484 1149 457 1176 q 511 1071 511 1122 q 484 993 511 1020 q 406 965 457 965 m 406 1024 q 442 1034 432 1024 q 453 1071 453 1045 q 442 1108 453 1097 q 406 1118 432 1118 q 369 1108 380 1118 q 358 1071 358 1097 q 369 1034 358 1045 q 406 1024 380 1024 z "},"Ã":{"ha":829,"x_min":20,"x_max":809,"o":"m 46 3 q 31 42 20 15 l 379 857 q 413 879 388 879 l 417 879 q 450 857 440 879 l 797 42 q 782 3 809 15 q 744 18 756 -8 l 647 249 l 184 249 l 85 18 q 46 3 74 -8 m 209 307 l 622 307 l 417 788 l 209 307 m 496 1001 q 435 1019 458 1001 q 397 1051 412 1036 q 368 1077 382 1067 q 332 1086 355 1086 q 294 1074 307 1086 q 268 1022 281 1061 q 258 1007 265 1013 q 240 1001 250 1001 q 215 1016 222 1001 q 213 1040 208 1031 q 259 1120 231 1096 q 332 1144 288 1144 q 399 1126 374 1144 q 439 1092 424 1108 q 469 1066 458 1073 q 496 1060 481 1060 q 535 1075 520 1060 q 561 1124 551 1090 q 571 1139 565 1133 q 590 1144 577 1144 q 614 1131 607 1144 q 617 1107 621 1117 q 569 1029 598 1056 q 496 1001 541 1001 z "},"Æ":{"ha":1134,"x_min":18,"x_max":1085,"o":"m 585 0 q 556 29 556 0 l 556 249 l 216 250 l 84 15 q 44 4 69 -10 q 33 44 18 19 l 492 858 q 506 875 498 870 q 526 879 515 879 l 1056 879 q 1085 850 1085 879 q 1056 821 1085 821 l 615 821 l 615 475 l 892 475 q 922 446 922 475 q 892 417 922 417 l 615 417 l 615 58 l 1056 58 q 1085 29 1085 58 q 1056 0 1085 0 l 585 0 m 248 307 l 556 307 l 556 821 l 537 821 l 248 307 z "},"Ǽ":{"ha":1134,"x_min":18,"x_max":1085,"o":"m 666 965 q 662 1007 645 984 l 787 1154 q 828 1158 806 1178 q 833 1117 849 1140 l 708 969 q 666 965 688 945 m 585 0 q 556 29 556 0 l 556 249 l 216 250 l 84 15 q 44 4 69 -10 q 33 44 18 19 l 492 858 q 506 875 498 870 q 526 879 515 879 l 1056 879 q 1085 850 1085 879 q 1056 821 1085 821 l 615 821 l 615 475 l 892 475 q 922 446 922 475 q 892 417 922 417 l 615 417 l 615 58 l 1056 58 q 1085 29 1085 58 q 1056 0 1085 0 l 585 0 m 248 307 l 556 307 l 556 821 l 537 821 l 248 307 z "},"B":{"ha":838,"x_min":125,"x_max":768,"o":"m 154 0 q 125 29 125 0 l 125 850 q 154 879 125 879 l 517 879 q 666 830 616 879 q 717 683 717 781 l 717 646 q 643 489 717 531 q 768 275 768 442 l 768 232 q 709 59 768 117 q 535 0 651 0 l 154 0 m 183 58 l 535 58 q 668 100 626 58 q 710 232 710 142 l 710 275 q 668 407 710 366 q 535 447 626 447 l 183 447 l 183 58 m 183 506 l 522 506 q 624 538 590 506 q 658 646 658 571 l 658 683 q 625 788 658 756 q 517 821 591 821 l 183 821 l 183 506 z "},"Ḃ":{"ha":838,"x_min":125,"x_max":768,"o":"m 402 1010 q 360 1053 360 1010 l 360 1081 q 402 1123 360 1123 l 431 1123 q 472 1081 472 1123 l 472 1053 q 431 1010 472 1010 l 402 1010 m 154 0 q 125 29 125 0 l 125 850 q 154 879 125 879 l 517 879 q 666 830 616 879 q 717 683 717 781 l 717 646 q 643 489 717 531 q 768 275 768 442 l 768 232 q 709 59 768 117 q 535 0 651 0 l 154 0 m 183 58 l 535 58 q 668 100 626 58 q 710 232 710 142 l 710 275 q 668 407 710 366 q 535 447 626 447 l 183 447 l 183 58 m 183 506 l 522 506 q 624 538 590 506 q 658 646 658 571 l 658 683 q 625 788 658 756 q 517 821 591 821 l 183 821 l 183 506 z "},"C":{"ha":910,"x_min":111,"x_max":814,"o":"m 393 0 q 178 67 245 0 q 111 282 111 134 l 111 597 q 178 813 111 747 q 392 879 245 879 l 560 879 q 747 826 687 879 q 813 656 808 774 q 807 633 814 641 q 785 625 799 625 q 754 654 756 625 q 706 784 750 748 q 560 821 662 821 l 392 821 q 261 799 310 821 q 191 729 213 778 q 169 597 169 680 l 169 282 q 191 151 169 200 q 262 80 213 102 q 393 58 311 58 l 560 58 q 706 95 662 58 q 754 225 750 131 q 785 254 756 254 q 807 246 799 254 q 813 224 814 238 q 747 53 808 106 q 560 0 687 0 l 393 0 z "},"Ć":{"ha":910,"x_min":111,"x_max":814,"o":"m 424 965 q 419 1007 403 984 l 544 1154 q 586 1158 564 1178 q 590 1117 607 1140 l 465 969 q 424 965 446 945 m 393 0 q 178 67 245 0 q 111 282 111 134 l 111 597 q 178 813 111 747 q 392 879 245 879 l 560 879 q 747 826 687 879 q 813 656 808 774 q 807 633 814 641 q 785 625 799 625 q 754 654 756 625 q 706 784 750 748 q 560 821 662 821 l 392 821 q 261 799 310 821 q 191 729 213 778 q 169 597 169 680 l 169 282 q 191 151 169 200 q 262 80 213 102 q 393 58 311 58 l 560 58 q 706 95 662 58 q 754 225 750 131 q 785 254 756 254 q 807 246 799 254 q 813 224 814 238 q 747 53 808 106 q 560 0 687 0 l 393 0 z "},"Č":{"ha":910,"x_min":111,"x_max":814,"o":"m 335 1168 q 354 1161 345 1168 l 494 1044 l 511 1044 l 651 1161 q 671 1168 660 1168 q 692 1160 683 1168 q 700 1139 700 1151 q 689 1117 700 1126 l 549 999 q 513 986 532 986 l 493 986 q 457 999 474 986 l 317 1117 q 306 1139 306 1126 q 314 1160 306 1151 q 335 1168 322 1168 m 393 0 q 178 67 245 0 q 111 282 111 134 l 111 597 q 178 813 111 747 q 392 879 245 879 l 560 879 q 747 826 687 879 q 813 656 808 774 q 807 633 814 641 q 785 625 799 625 q 754 654 756 625 q 706 784 750 748 q 560 821 662 821 l 392 821 q 261 799 310 821 q 191 729 213 778 q 169 597 169 680 l 169 282 q 191 151 169 200 q 262 80 213 102 q 393 58 311 58 l 560 58 q 706 95 662 58 q 754 225 750 131 q 785 254 756 254 q 807 246 799 254 q 813 224 814 238 q 747 53 808 106 q 560 0 687 0 l 393 0 z "},"Ç":{"ha":910,"x_min":111,"x_max":814,"o":"m 393 0 q 178 67 245 0 q 111 282 111 134 l 111 597 q 178 813 111 747 q 392 879 245 879 l 560 879 q 747 826 687 879 q 813 656 808 774 q 807 633 814 641 q 785 625 799 625 q 754 654 756 625 q 706 784 750 748 q 560 821 662 821 l 392 821 q 261 799 310 821 q 191 729 213 778 q 169 597 169 680 l 169 282 q 191 151 169 200 q 262 80 213 102 q 393 58 311 58 l 560 58 q 706 95 662 58 q 754 225 750 131 q 785 254 756 254 q 807 246 799 254 q 813 224 814 238 q 747 53 808 106 q 560 0 687 0 l 393 0 m 493 -278 q 378 -162 378 -278 q 407 -133 378 -133 q 436 -162 436 -133 q 448 -208 436 -196 q 493 -219 460 -219 q 560 -201 542 -219 q 578 -135 578 -183 q 571 -109 578 -119 q 542 -85 564 -100 q 513 -63 528 -76 q 487 -30 498 -50 q 476 21 476 -10 q 506 50 476 50 q 535 21 535 50 q 542 -9 535 2 q 574 -36 550 -20 q 614 -70 592 -49 q 636 -135 636 -92 q 602 -243 636 -208 q 493 -278 567 -278 z "},"Ĉ":{"ha":910,"x_min":111,"x_max":814,"o":"m 393 0 q 178 67 245 0 q 111 282 111 134 l 111 597 q 178 813 111 747 q 392 879 245 879 l 560 879 q 747 826 687 879 q 813 656 808 774 q 807 633 814 641 q 785 625 799 625 q 754 654 756 625 q 706 784 750 748 q 560 821 662 821 l 392 821 q 261 799 310 821 q 191 729 213 778 q 169 597 169 680 l 169 282 q 191 151 169 200 q 262 80 213 102 q 393 58 311 58 l 560 58 q 706 95 662 58 q 754 225 750 131 q 785 254 756 254 q 807 246 799 254 q 813 224 814 238 q 747 53 808 106 q 560 0 687 0 l 393 0 m 333 958 q 313 967 321 958 q 304 988 304 975 q 306 997 304 993 q 310 1006 308 1001 l 418 1150 q 453 1168 432 1168 l 478 1168 q 513 1150 499 1168 l 621 1006 q 625 997 623 1001 q 626 988 626 993 q 618 967 626 975 q 597 958 610 958 q 574 971 582 958 l 469 1110 l 461 1110 l 357 971 q 333 958 349 958 z "},"Ċ":{"ha":910,"x_min":111,"x_max":814,"o":"m 448 1010 q 406 1053 406 1010 l 406 1081 q 448 1123 406 1123 l 476 1123 q 517 1081 517 1123 l 517 1053 q 476 1010 517 1010 l 448 1010 m 393 0 q 178 67 245 0 q 111 282 111 134 l 111 597 q 178 813 111 747 q 392 879 245 879 l 560 879 q 747 826 687 879 q 813 656 808 774 q 807 633 814 641 q 785 625 799 625 q 754 654 756 625 q 706 784 750 748 q 560 821 662 821 l 392 821 q 261 799 310 821 q 191 729 213 778 q 169 597 169 680 l 169 282 q 191 151 169 200 q 262 80 213 102 q 393 58 311 58 l 560 58 q 706 95 662 58 q 754 225 750 131 q 785 254 756 254 q 807 246 799 254 q 813 224 814 238 q 747 53 808 106 q 560 0 687 0 l 393 0 z "},"D":{"ha":924,"x_min":125,"x_max":813,"o":"m 154 0 q 125 29 125 0 l 125 850 q 154 879 125 879 l 489 879 q 736 802 659 879 q 813 556 813 726 l 813 324 q 736 77 813 154 q 489 0 659 0 l 154 0 m 183 58 l 489 58 q 644 84 585 58 q 728 169 702 110 q 754 324 754 227 l 754 556 q 728 710 754 652 q 644 795 702 769 q 489 821 585 821 l 183 821 l 183 58 z "},"Ǳ":{"ha":1694,"x_min":125,"x_max":1640,"o":"m 154 0 q 125 29 125 0 l 125 850 q 154 879 125 879 l 489 879 q 736 802 659 879 q 813 556 813 726 l 813 324 q 736 77 813 154 q 489 0 659 0 l 154 0 m 183 58 l 489 58 q 644 84 585 58 q 728 169 702 110 q 754 324 754 227 l 754 556 q 728 710 754 652 q 644 795 702 769 q 489 821 585 821 l 183 821 l 183 58 m 979 0 q 947 29 947 0 q 951 47 947 40 q 963 65 956 55 l 1540 835 l 1540 821 l 1121 821 q 1022 794 1056 821 q 982 710 988 768 q 974 688 981 695 q 951 681 966 681 q 931 689 938 681 q 924 711 923 697 q 980 837 930 794 q 1121 879 1031 879 l 1579 879 q 1608 850 1608 879 q 1606 829 1608 838 q 1596 811 1603 821 l 1017 32 l 1017 58 l 1442 58 q 1541 85 1508 58 q 1581 169 1574 111 q 1589 191 1582 184 q 1610 199 1597 199 q 1632 191 1624 199 q 1639 168 1640 183 q 1442 0 1626 0 l 979 0 z "},"Ǆ":{"ha":1694,"x_min":125,"x_max":1640,"o":"m 1147 1168 q 1167 1161 1158 1168 l 1307 1044 l 1324 1044 l 1464 1161 q 1483 1168 1473 1168 q 1504 1160 1496 1168 q 1513 1139 1513 1151 q 1501 1117 1513 1126 l 1361 999 q 1325 986 1344 986 l 1306 986 q 1269 999 1286 986 l 1129 1117 q 1118 1139 1118 1126 q 1126 1160 1118 1151 q 1147 1168 1135 1168 m 154 0 q 125 29 125 0 l 125 850 q 154 879 125 879 l 489 879 q 736 802 659 879 q 813 556 813 726 l 813 324 q 736 77 813 154 q 489 0 659 0 l 154 0 m 183 58 l 489 58 q 644 84 585 58 q 728 169 702 110 q 754 324 754 227 l 754 556 q 728 710 754 652 q 644 795 702 769 q 489 821 585 821 l 183 821 l 183 58 m 979 0 q 947 29 947 0 q 951 47 947 40 q 963 65 956 55 l 1540 835 l 1540 821 l 1121 821 q 1022 794 1056 821 q 982 710 988 768 q 974 688 981 695 q 951 681 966 681 q 931 689 938 681 q 924 711 923 697 q 980 837 930 794 q 1121 879 1031 879 l 1579 879 q 1608 850 1608 879 q 1606 829 1608 838 q 1596 811 1603 821 l 1017 32 l 1017 58 l 1442 58 q 1541 85 1508 58 q 1581 169 1574 111 q 1589 191 1582 184 q 1610 199 1597 199 q 1632 191 1624 199 q 1639 168 1640 183 q 1442 0 1626 0 l 979 0 z "},"Ð":{"ha":924,"x_min":0,"x_max":813,"o":"m 154 0 q 125 29 125 0 l 125 850 q 154 879 125 879 l 489 879 q 736 802 659 879 q 813 556 813 726 l 813 324 q 736 77 813 154 q 489 0 659 0 l 154 0 m 183 58 l 489 58 q 644 84 585 58 q 728 169 702 110 q 754 324 754 227 l 754 556 q 728 710 754 652 q 644 795 702 769 q 489 821 585 821 l 183 821 l 183 58 m 29 417 q 0 446 0 417 q 29 475 0 475 l 388 475 q 417 446 417 475 q 388 417 417 417 l 29 417 z "},"Ď":{"ha":924,"x_min":125,"x_max":813,"o":"m 283 1168 q 303 1161 294 1168 l 443 1044 l 460 1044 l 600 1161 q 619 1168 609 1168 q 640 1160 632 1168 q 649 1139 649 1151 q 638 1117 649 1126 l 497 999 q 461 986 481 986 l 442 986 q 406 999 422 986 l 265 1117 q 254 1139 254 1126 q 263 1160 254 1151 q 283 1168 271 1168 m 154 0 q 125 29 125 0 l 125 850 q 154 879 125 879 l 489 879 q 736 802 659 879 q 813 556 813 726 l 813 324 q 736 77 813 154 q 489 0 659 0 l 154 0 m 183 58 l 489 58 q 644 84 585 58 q 728 169 702 110 q 754 324 754 227 l 754 556 q 728 710 754 652 q 644 795 702 769 q 489 821 585 821 l 183 821 l 183 58 z "},"Đ":{"ha":924,"x_min":0,"x_max":813,"o":"m 154 0 q 125 29 125 0 l 125 850 q 154 879 125 879 l 489 879 q 736 802 659 879 q 813 556 813 726 l 813 324 q 736 77 813 154 q 489 0 659 0 l 154 0 m 183 58 l 489 58 q 644 84 585 58 q 728 169 702 110 q 754 324 754 227 l 754 556 q 728 710 754 652 q 644 795 702 769 q 489 821 585 821 l 183 821 l 183 58 m 29 417 q 0 446 0 417 q 29 475 0 475 l 388 475 q 417 446 417 475 q 388 417 417 417 l 29 417 z "},"Ḋ":{"ha":924,"x_min":125,"x_max":813,"o":"m 397 1010 q 355 1053 355 1010 l 355 1081 q 397 1123 355 1123 l 425 1123 q 466 1081 466 1123 l 466 1053 q 425 1010 466 1010 l 397 1010 m 154 0 q 125 29 125 0 l 125 850 q 154 879 125 879 l 489 879 q 736 802 659 879 q 813 556 813 726 l 813 324 q 736 77 813 154 q 489 0 659 0 l 154 0 m 183 58 l 489 58 q 644 84 585 58 q 728 169 702 110 q 754 324 754 227 l 754 556 q 728 710 754 652 q 644 795 702 769 q 489 821 585 821 l 183 821 l 183 58 z "},"ǲ":{"ha":1542,"x_min":125,"x_max":1495,"o":"m 154 0 q 125 29 125 0 l 125 850 q 154 879 125 879 l 489 879 q 736 802 659 879 q 813 556 813 726 l 813 324 q 736 77 813 154 q 489 0 659 0 l 154 0 m 183 58 l 489 58 q 644 84 585 58 q 728 169 702 110 q 754 324 754 227 l 754 556 q 728 710 754 652 q 644 795 702 769 q 489 821 585 821 l 183 821 l 183 58 m 950 0 q 921 29 921 0 q 933 61 921 44 l 1367 594 l 1403 582 l 1071 582 q 990 564 1015 582 q 960 499 965 547 q 952 477 959 484 q 931 469 944 469 q 908 477 916 469 q 901 500 901 485 q 949 607 908 573 q 1071 640 991 640 l 1411 640 q 1440 611 1440 640 q 1428 578 1440 594 l 1001 51 l 972 58 l 1324 58 q 1403 78 1377 58 q 1435 142 1430 97 q 1444 164 1437 156 q 1465 171 1451 171 q 1488 163 1480 171 q 1493 140 1495 155 q 1324 0 1478 0 l 950 0 z "},"ǅ":{"ha":1542,"x_min":125,"x_max":1495,"o":"m 1071 929 q 1090 922 1081 929 l 1231 806 l 1247 806 l 1388 922 q 1407 929 1397 929 q 1428 921 1419 929 q 1436 900 1436 913 q 1425 878 1436 887 l 1285 760 q 1249 747 1268 747 l 1229 747 q 1193 760 1210 747 l 1053 878 q 1042 900 1042 887 q 1050 921 1042 913 q 1071 929 1058 929 m 154 0 q 125 29 125 0 l 125 850 q 154 879 125 879 l 489 879 q 736 802 659 879 q 813 556 813 726 l 813 324 q 736 77 813 154 q 489 0 659 0 l 154 0 m 183 58 l 489 58 q 644 84 585 58 q 728 169 702 110 q 754 324 754 227 l 754 556 q 728 710 754 652 q 644 795 702 769 q 489 821 585 821 l 183 821 l 183 58 m 950 0 q 921 29 921 0 q 933 61 921 44 l 1367 594 l 1403 582 l 1071 582 q 990 564 1015 582 q 960 499 965 547 q 952 477 959 484 q 931 469 944 469 q 908 477 916 469 q 901 500 901 485 q 949 607 908 573 q 1071 640 991 640 l 1411 640 q 1440 611 1440 640 q 1428 578 1440 594 l 1001 51 l 972 58 l 1324 58 q 1403 78 1377 58 q 1435 142 1430 97 q 1444 164 1437 156 q 1465 171 1451 171 q 1488 163 1480 171 q 1493 140 1495 155 q 1324 0 1478 0 l 950 0 z "},"E":{"ha":760,"x_min":125,"x_max":711,"o":"m 154 0 q 125 29 125 0 l 125 850 q 154 879 125 879 l 682 879 q 711 850 711 879 q 682 821 711 821 l 183 821 l 183 475 l 518 475 q 547 446 547 475 q 518 417 547 417 l 183 417 l 183 58 l 682 58 q 711 29 711 58 q 682 0 711 0 l 154 0 z "},"É":{"ha":760,"x_min":125,"x_max":711,"o":"m 404 965 q 400 1007 383 984 l 525 1154 q 567 1158 544 1178 q 571 1117 588 1140 l 446 969 q 404 965 426 945 m 154 0 q 125 29 125 0 l 125 850 q 154 879 125 879 l 682 879 q 711 850 711 879 q 682 821 711 821 l 183 821 l 183 475 l 518 475 q 547 446 547 475 q 518 417 547 417 l 183 417 l 183 58 l 682 58 q 711 29 711 58 q 682 0 711 0 l 154 0 z "},"Ĕ":{"ha":760,"x_min":125,"x_max":711,"o":"m 154 0 q 125 29 125 0 l 125 850 q 154 879 125 879 l 682 879 q 711 850 711 879 q 682 821 711 821 l 183 821 l 183 475 l 518 475 q 547 446 547 475 q 518 417 547 417 l 183 417 l 183 58 l 682 58 q 711 29 711 58 q 682 0 711 0 l 154 0 m 444 960 q 317 1002 360 959 q 274 1128 274 1044 l 274 1131 q 303 1160 274 1160 q 332 1131 332 1160 l 332 1128 q 358 1043 332 1069 q 443 1017 385 1017 q 528 1044 503 1018 q 554 1128 554 1069 l 554 1131 q 583 1160 554 1160 q 613 1131 613 1160 l 613 1128 q 569 1001 613 1042 q 444 960 525 960 z "},"Ě":{"ha":760,"x_min":125,"x_max":711,"o":"m 315 1168 q 335 1161 326 1168 l 475 1044 l 492 1044 l 632 1161 q 651 1168 641 1168 q 672 1160 664 1168 q 681 1139 681 1151 q 669 1117 681 1126 l 529 999 q 493 986 513 986 l 474 986 q 438 999 454 986 l 297 1117 q 286 1139 286 1126 q 294 1160 286 1151 q 315 1168 303 1168 m 154 0 q 125 29 125 0 l 125 850 q 154 879 125 879 l 682 879 q 711 850 711 879 q 682 821 711 821 l 183 821 l 183 475 l 518 475 q 547 446 547 475 q 518 417 547 417 l 183 417 l 183 58 l 682 58 q 711 29 711 58 q 682 0 711 0 l 154 0 z "},"Ê":{"ha":760,"x_min":125,"x_max":711,"o":"m 154 0 q 125 29 125 0 l 125 850 q 154 879 125 879 l 682 879 q 711 850 711 879 q 682 821 711 821 l 183 821 l 183 475 l 518 475 q 547 446 547 475 q 518 417 547 417 l 183 417 l 183 58 l 682 58 q 711 29 711 58 q 682 0 711 0 l 154 0 m 272 969 q 251 978 260 969 q 243 999 243 986 q 254 1021 243 1012 l 394 1139 q 431 1151 411 1151 l 450 1151 q 486 1139 469 1151 l 626 1021 q 638 999 638 1012 q 629 978 638 986 q 608 969 621 969 q 589 976 598 969 l 449 1093 l 432 1093 l 292 976 q 272 969 283 969 z "},"Ế":{"ha":760,"x_min":125,"x_max":711,"o":"m 154 0 q 125 29 125 0 l 125 850 q 154 879 125 879 l 682 879 q 711 850 711 879 q 682 821 711 821 l 183 821 l 183 475 l 518 475 q 547 446 547 475 q 518 417 547 417 l 183 417 l 183 58 l 682 58 q 711 29 711 58 q 682 0 711 0 l 154 0 m 571 1106 q 550 1114 558 1106 q 542 1135 542 1122 q 549 1154 542 1145 l 644 1267 q 667 1278 653 1278 q 688 1269 679 1278 q 696 1249 696 1261 q 694 1239 696 1244 q 689 1229 692 1233 l 593 1117 q 571 1106 584 1106 m 279 969 q 258 978 267 969 q 250 999 250 986 q 261 1021 250 1012 l 401 1139 q 438 1151 418 1151 l 457 1151 q 493 1139 476 1151 l 633 1021 q 644 999 644 1012 q 636 978 644 986 q 615 969 628 969 q 596 976 605 969 l 456 1093 l 439 1093 l 299 976 q 279 969 290 969 z "},"Ệ":{"ha":760,"x_min":125,"x_max":711,"o":"m 154 0 q 125 29 125 0 l 125 850 q 154 879 125 879 l 682 879 q 711 850 711 879 q 682 821 711 821 l 183 821 l 183 475 l 518 475 q 547 446 547 475 q 518 417 547 417 l 183 417 l 183 58 l 682 58 q 711 29 711 58 q 682 0 711 0 l 154 0 m 403 -208 q 368 -172 368 -208 l 368 -149 q 403 -114 368 -114 l 426 -114 q 461 -149 461 -114 l 461 -172 q 426 -208 461 -208 l 403 -208 m 272 969 q 251 978 260 969 q 243 999 243 986 q 254 1021 243 1012 l 394 1139 q 431 1151 411 1151 l 450 1151 q 486 1139 469 1151 l 626 1021 q 638 999 638 1012 q 629 978 638 986 q 608 969 621 969 q 589 976 598 969 l 449 1093 l 432 1093 l 292 976 q 272 969 283 969 z "},"Ề":{"ha":760,"x_min":125,"x_max":711,"o":"m 154 0 q 125 29 125 0 l 125 850 q 154 879 125 879 l 682 879 q 711 850 711 879 q 682 821 711 821 l 183 821 l 183 475 l 518 475 q 547 446 547 475 q 518 417 547 417 l 183 417 l 183 58 l 682 58 q 711 29 711 58 q 682 0 711 0 l 154 0 m 288 1106 q 265 1117 274 1106 l 169 1229 q 163 1249 163 1238 q 171 1269 163 1261 q 192 1278 179 1278 q 214 1267 205 1278 l 310 1154 q 317 1135 317 1145 q 308 1114 317 1122 q 288 1106 300 1106 m 285 969 q 264 978 272 969 q 256 999 256 986 q 267 1021 256 1012 l 407 1139 q 443 1151 424 1151 l 463 1151 q 499 1139 482 1151 l 639 1021 q 650 999 650 1012 q 642 978 650 986 q 621 969 633 969 q 601 976 610 969 l 461 1093 l 444 1093 l 304 976 q 285 969 295 969 z "},"Ể":{"ha":760,"x_min":125,"x_max":711,"o":"m 154 0 q 125 29 125 0 l 125 850 q 154 879 125 879 l 682 879 q 711 850 711 879 q 682 821 711 821 l 183 821 l 183 475 l 518 475 q 547 446 547 475 q 518 417 547 417 l 183 417 l 183 58 l 682 58 q 711 29 711 58 q 682 0 711 0 l 154 0 m 274 969 q 253 978 261 969 q 244 999 244 986 q 256 1021 244 1012 l 396 1139 q 432 1151 413 1151 l 451 1151 q 488 1139 471 1151 l 628 1021 q 639 999 639 1012 q 631 978 639 986 q 610 969 622 969 q 590 976 599 969 l 450 1093 l 433 1093 l 293 976 q 274 969 284 969 m 571 1096 q 549 1103 556 1096 q 542 1125 542 1110 q 565 1191 542 1169 q 607 1224 588 1213 q 636 1245 630 1238 q 643 1267 643 1253 q 631 1312 643 1300 q 586 1324 619 1324 q 541 1312 553 1324 q 529 1267 529 1300 q 522 1245 529 1252 q 500 1238 515 1238 q 478 1245 485 1238 q 471 1267 471 1252 q 586 1382 471 1382 q 701 1267 701 1382 q 679 1206 701 1226 q 638 1174 656 1185 q 607 1150 615 1159 q 600 1125 600 1141 q 593 1103 600 1110 q 571 1096 585 1096 z "},"Ễ":{"ha":760,"x_min":125,"x_max":711,"o":"m 154 0 q 125 29 125 0 l 125 850 q 154 879 125 879 l 682 879 q 711 850 711 879 q 682 821 711 821 l 183 821 l 183 475 l 518 475 q 547 446 547 475 q 518 417 547 417 l 183 417 l 183 58 l 682 58 q 711 29 711 58 q 682 0 711 0 l 154 0 m 276 969 q 256 978 264 969 q 247 999 247 986 q 258 1021 247 1012 l 399 1139 q 435 1151 415 1151 l 454 1151 q 490 1139 474 1151 l 631 1021 q 642 999 642 1012 q 633 978 642 986 q 613 969 625 969 q 593 976 602 969 l 453 1093 l 436 1093 l 296 976 q 276 969 287 969 m 528 1175 q 467 1192 490 1175 q 429 1225 444 1210 q 400 1250 414 1241 q 364 1260 387 1260 q 326 1247 339 1260 q 300 1196 313 1235 q 290 1181 297 1187 q 272 1175 282 1175 q 247 1190 253 1175 q 244 1214 240 1205 q 291 1294 263 1269 q 364 1318 319 1318 q 431 1300 406 1318 q 471 1265 456 1282 q 501 1240 490 1247 q 528 1233 513 1233 q 567 1248 552 1233 q 593 1297 583 1263 q 603 1313 597 1307 q 622 1318 609 1318 q 646 1305 639 1318 q 649 1281 653 1291 q 601 1202 630 1230 q 528 1175 573 1175 z "},"Ȅ":{"ha":760,"x_min":125,"x_max":711,"o":"m 378 977 q 341 981 358 960 l 228 1114 q 232 1151 213 1134 q 269 1147 252 1169 l 382 1015 q 378 977 397 994 m 531 977 q 494 981 511 960 l 381 1114 q 385 1151 366 1134 q 422 1147 405 1169 l 535 1015 q 531 977 550 994 m 154 0 q 125 29 125 0 l 125 850 q 154 879 125 879 l 682 879 q 711 850 711 879 q 682 821 711 821 l 183 821 l 183 475 l 518 475 q 547 446 547 475 q 518 417 547 417 l 183 417 l 183 58 l 682 58 q 711 29 711 58 q 682 0 711 0 l 154 0 z "},"Ë":{"ha":760,"x_min":125,"x_max":711,"o":"m 154 0 q 125 29 125 0 l 125 850 q 154 879 125 879 l 682 879 q 711 850 711 879 q 682 821 711 821 l 183 821 l 183 475 l 518 475 q 547 446 547 475 q 518 417 547 417 l 183 417 l 183 58 l 682 58 q 711 29 711 58 q 682 0 711 0 l 154 0 m 332 1001 q 297 1038 297 1001 l 297 1061 q 332 1096 297 1096 l 356 1096 q 390 1061 390 1096 l 390 1038 q 356 1001 390 1001 l 332 1001 m 531 1001 q 496 1038 496 1001 l 496 1061 q 531 1096 496 1096 l 554 1096 q 589 1061 589 1096 l 589 1038 q 554 1001 589 1001 l 531 1001 z "},"Ė":{"ha":760,"x_min":125,"x_max":711,"o":"m 428 1010 q 387 1053 387 1010 l 387 1081 q 428 1123 387 1123 l 457 1123 q 498 1081 498 1123 l 498 1053 q 457 1010 498 1010 l 428 1010 m 154 0 q 125 29 125 0 l 125 850 q 154 879 125 879 l 682 879 q 711 850 711 879 q 682 821 711 821 l 183 821 l 183 475 l 518 475 q 547 446 547 475 q 518 417 547 417 l 183 417 l 183 58 l 682 58 q 711 29 711 58 q 682 0 711 0 l 154 0 z "},"Ẹ":{"ha":760,"x_min":125,"x_max":711,"o":"m 154 0 q 125 29 125 0 l 125 850 q 154 879 125 879 l 682 879 q 711 850 711 879 q 682 821 711 821 l 183 821 l 183 475 l 518 475 q 547 446 547 475 q 518 417 547 417 l 183 417 l 183 58 l 682 58 q 711 29 711 58 q 682 0 711 0 l 154 0 m 403 -208 q 368 -172 368 -208 l 368 -149 q 403 -114 368 -114 l 426 -114 q 461 -149 461 -114 l 461 -172 q 426 -208 461 -208 l 403 -208 z "},"È":{"ha":760,"x_min":125,"x_max":711,"o":"m 154 0 q 125 29 125 0 l 125 850 q 154 879 125 879 l 682 879 q 711 850 711 879 q 682 821 711 821 l 183 821 l 183 475 l 518 475 q 547 446 547 475 q 518 417 547 417 l 183 417 l 183 58 l 682 58 q 711 29 711 58 q 682 0 711 0 l 154 0 m 482 965 q 440 969 460 945 l 315 1117 q 319 1158 299 1140 q 361 1154 342 1178 l 486 1007 q 482 965 503 984 z "},"Ẻ":{"ha":760,"x_min":125,"x_max":711,"o":"m 154 0 q 125 29 125 0 l 125 850 q 154 879 125 879 l 682 879 q 711 850 711 879 q 682 821 711 821 l 183 821 l 183 475 l 518 475 q 547 446 547 475 q 518 417 547 417 l 183 417 l 183 58 l 682 58 q 711 29 711 58 q 682 0 711 0 l 154 0 m 443 958 q 421 966 428 958 q 414 988 414 973 q 437 1053 414 1031 q 479 1086 460 1075 q 509 1108 502 1100 q 515 1129 515 1116 q 503 1174 515 1163 q 458 1186 492 1186 q 413 1174 425 1186 q 401 1129 401 1163 q 394 1107 401 1115 q 372 1100 387 1100 q 350 1107 358 1100 q 343 1129 343 1115 q 458 1244 343 1244 q 574 1129 574 1244 q 551 1068 574 1089 q 510 1036 528 1048 q 480 1013 487 1022 q 472 988 472 1003 q 465 966 472 973 q 443 958 458 958 z "},"Ȇ":{"ha":760,"x_min":125,"x_max":711,"o":"m 444 1167 q 569 1126 525 1167 q 613 999 613 1085 l 613 996 q 583 967 613 967 q 554 996 554 967 l 554 999 q 528 1083 554 1057 q 443 1110 503 1109 q 358 1083 385 1110 q 332 999 332 1057 l 332 996 q 303 967 332 967 q 274 996 274 967 l 274 999 q 317 1125 274 1082 q 444 1167 360 1168 m 154 0 q 125 29 125 0 l 125 850 q 154 879 125 879 l 682 879 q 711 850 711 879 q 682 821 711 821 l 183 821 l 183 475 l 518 475 q 547 446 547 475 q 518 417 547 417 l 183 417 l 183 58 l 682 58 q 711 29 711 58 q 682 0 711 0 l 154 0 z "},"Ē":{"ha":760,"x_min":125,"x_max":711,"o":"m 154 0 q 125 29 125 0 l 125 850 q 154 879 125 879 l 682 879 q 711 850 711 879 q 682 821 711 821 l 183 821 l 183 475 l 518 475 q 547 446 547 475 q 518 417 547 417 l 183 417 l 183 58 l 682 58 q 711 29 711 58 q 682 0 711 0 l 154 0 m 268 1050 q 239 1079 239 1050 q 268 1108 239 1108 l 619 1108 q 649 1079 649 1108 q 619 1050 649 1050 l 268 1050 z "},"Ę":{"ha":760,"x_min":125,"x_max":808,"o":"m 154 0 q 125 29 125 0 l 125 850 q 154 879 125 879 l 682 879 q 711 850 711 879 q 682 821 711 821 l 183 821 l 183 475 l 518 475 q 547 446 547 475 q 518 417 547 417 l 183 417 l 183 58 l 682 58 q 711 29 711 58 q 682 0 711 0 l 154 0 m 676 -233 q 590 -202 626 -233 q 554 -124 554 -170 q 562 -82 554 -103 q 585 -42 570 -60 l 653 47 q 676 58 662 58 q 697 50 689 58 q 706 29 706 42 q 700 11 706 19 l 632 -78 q 613 -124 613 -103 q 631 -160 613 -145 q 676 -175 649 -175 q 719 -165 699 -175 q 758 -136 739 -156 q 768 -130 763 -132 q 779 -128 773 -128 q 800 -136 792 -128 q 808 -157 808 -144 q 800 -178 808 -169 q 676 -233 744 -233 z "},"Ẽ":{"ha":760,"x_min":125,"x_max":711,"o":"m 154 0 q 125 29 125 0 l 125 850 q 154 879 125 879 l 682 879 q 711 850 711 879 q 682 821 711 821 l 183 821 l 183 475 l 518 475 q 547 446 547 475 q 518 417 547 417 l 183 417 l 183 58 l 682 58 q 711 29 711 58 q 682 0 711 0 l 154 0 m 525 1001 q 464 1019 488 1001 q 426 1051 441 1036 q 398 1077 411 1067 q 361 1086 384 1086 q 323 1074 336 1086 q 297 1022 310 1061 q 287 1007 294 1013 q 269 1001 279 1001 q 244 1016 251 1001 q 242 1040 238 1031 q 289 1120 260 1096 q 361 1144 317 1144 q 428 1126 403 1144 q 468 1092 453 1108 q 498 1066 487 1073 q 525 1060 510 1060 q 565 1075 549 1060 q 590 1124 580 1090 q 600 1139 594 1133 q 619 1144 606 1144 q 643 1131 636 1144 q 646 1107 650 1117 q 599 1029 627 1056 q 525 1001 570 1001 z "},"F":{"ha":681,"x_min":125,"x_max":681,"o":"m 154 0 q 125 29 125 0 l 125 850 q 154 879 125 879 l 651 879 q 673 872 666 879 q 681 850 681 865 q 651 821 681 821 l 183 821 l 183 475 l 513 475 q 542 446 542 475 q 513 417 542 417 l 183 417 l 183 29 q 154 0 183 0 z "},"Ḟ":{"ha":681,"x_min":125,"x_max":681,"o":"m 409 1010 q 367 1053 367 1010 l 367 1081 q 409 1123 367 1123 l 438 1123 q 478 1081 478 1123 l 478 1053 q 438 1010 478 1010 l 409 1010 m 154 0 q 125 29 125 0 l 125 850 q 154 879 125 879 l 651 879 q 673 872 666 879 q 681 850 681 865 q 651 821 681 821 l 183 821 l 183 475 l 513 475 q 542 446 542 475 q 513 417 542 417 l 183 417 l 183 29 q 154 0 183 0 z "},"G":{"ha":911,"x_min":111,"x_max":814,"o":"m 393 0 q 178 67 245 0 q 111 282 111 134 l 111 597 q 178 813 111 747 q 392 879 245 879 l 560 879 q 747 826 687 879 q 813 656 808 774 q 807 633 814 641 q 785 625 799 625 q 754 654 756 625 q 706 784 750 748 q 560 821 662 821 l 392 821 q 261 799 310 821 q 191 729 213 778 q 169 597 169 680 l 169 282 q 191 151 169 200 q 262 80 213 102 q 393 58 311 58 l 560 58 q 676 77 633 58 q 737 138 719 95 q 756 254 756 181 l 756 349 l 589 350 q 560 379 560 350 q 589 408 560 408 l 785 407 q 814 378 814 407 l 814 254 q 754 60 814 120 q 560 0 694 0 l 393 0 z "},"Ğ":{"ha":911,"x_min":111,"x_max":814,"o":"m 393 0 q 178 67 245 0 q 111 282 111 134 l 111 597 q 178 813 111 747 q 392 879 245 879 l 560 879 q 747 826 687 879 q 813 656 808 774 q 807 633 814 641 q 785 625 799 625 q 754 654 756 625 q 706 784 750 748 q 560 821 662 821 l 392 821 q 261 799 310 821 q 191 729 213 778 q 169 597 169 680 l 169 282 q 191 151 169 200 q 262 80 213 102 q 393 58 311 58 l 560 58 q 676 77 633 58 q 737 138 719 95 q 756 254 756 181 l 756 349 l 589 350 q 560 379 560 350 q 589 408 560 408 l 785 407 q 814 378 814 407 l 814 254 q 754 60 814 120 q 560 0 694 0 l 393 0 m 464 960 q 336 1002 380 959 q 293 1128 293 1044 l 293 1131 q 322 1160 293 1160 q 351 1131 351 1160 l 351 1128 q 378 1043 351 1069 q 463 1017 404 1017 q 548 1044 522 1018 q 574 1128 574 1069 l 574 1131 q 603 1160 574 1160 q 632 1131 632 1160 l 632 1128 q 588 1001 632 1042 q 464 960 544 960 z "},"Ǧ":{"ha":911,"x_min":111,"x_max":814,"o":"m 331 1168 q 354 1156 346 1168 l 458 1017 l 467 1017 l 571 1156 q 594 1168 579 1168 q 615 1160 607 1168 q 624 1139 624 1151 q 622 1130 624 1134 q 618 1121 620 1125 l 510 976 q 475 958 496 958 l 450 958 q 415 976 429 958 l 307 1121 q 303 1130 305 1125 q 301 1139 301 1134 q 310 1160 301 1151 q 331 1168 318 1168 m 393 0 q 178 67 245 0 q 111 282 111 134 l 111 597 q 178 813 111 747 q 392 879 245 879 l 560 879 q 747 826 687 879 q 813 656 808 774 q 807 633 814 641 q 785 625 799 625 q 754 654 756 625 q 706 784 750 748 q 560 821 662 821 l 392 821 q 261 799 310 821 q 191 729 213 778 q 169 597 169 680 l 169 282 q 191 151 169 200 q 262 80 213 102 q 393 58 311 58 l 560 58 q 676 77 633 58 q 737 138 719 95 q 756 254 756 181 l 756 349 l 589 350 q 560 379 560 350 q 589 408 560 408 l 785 407 q 814 378 814 407 l 814 254 q 754 60 814 120 q 560 0 694 0 l 393 0 z "},"Ĝ":{"ha":911,"x_min":111,"x_max":814,"o":"m 393 0 q 178 67 245 0 q 111 282 111 134 l 111 597 q 178 813 111 747 q 392 879 245 879 l 560 879 q 747 826 687 879 q 813 656 808 774 q 807 633 814 641 q 785 625 799 625 q 754 654 756 625 q 706 784 750 748 q 560 821 662 821 l 392 821 q 261 799 310 821 q 191 729 213 778 q 169 597 169 680 l 169 282 q 191 151 169 200 q 262 80 213 102 q 393 58 311 58 l 560 58 q 676 77 633 58 q 737 138 719 95 q 756 254 756 181 l 756 349 l 589 350 q 560 379 560 350 q 589 408 560 408 l 785 407 q 814 378 814 407 l 814 254 q 754 60 814 120 q 560 0 694 0 l 393 0 m 333 958 q 313 967 321 958 q 304 988 304 975 q 306 997 304 993 q 310 1006 308 1001 l 418 1150 q 453 1168 432 1168 l 478 1168 q 513 1150 499 1168 l 621 1006 q 625 997 623 1001 q 626 988 626 993 q 618 967 626 975 q 597 958 610 958 q 574 971 582 958 l 469 1110 l 461 1110 l 357 971 q 333 958 349 958 z "},"Ģ":{"ha":911,"x_min":111,"x_max":814,"o":"m 444 -268 q 427 -261 435 -268 q 421 -242 419 -253 l 446 -94 q 474 -68 448 -68 l 492 -68 q 520 -99 520 -68 l 520 -112 q 519 -131 520 -126 q 517 -139 518 -135 l 467 -250 q 444 -268 459 -268 m 393 0 q 178 67 245 0 q 111 282 111 134 l 111 597 q 178 813 111 747 q 392 879 245 879 l 560 879 q 747 826 687 879 q 813 656 808 774 q 807 633 814 641 q 785 625 799 625 q 754 654 756 625 q 706 784 750 748 q 560 821 662 821 l 392 821 q 261 799 310 821 q 191 729 213 778 q 169 597 169 680 l 169 282 q 191 151 169 200 q 262 80 213 102 q 393 58 311 58 l 560 58 q 676 77 633 58 q 737 138 719 95 q 756 254 756 181 l 756 349 l 589 350 q 560 379 560 350 q 589 408 560 408 l 785 407 q 814 378 814 407 l 814 254 q 754 60 814 120 q 560 0 694 0 l 393 0 z "},"Ġ":{"ha":911,"x_min":111,"x_max":814,"o":"m 448 1010 q 406 1053 406 1010 l 406 1081 q 448 1123 406 1123 l 476 1123 q 517 1081 517 1123 l 517 1053 q 476 1010 517 1010 l 448 1010 m 393 0 q 178 67 245 0 q 111 282 111 134 l 111 597 q 178 813 111 747 q 392 879 245 879 l 560 879 q 747 826 687 879 q 813 656 808 774 q 807 633 814 641 q 785 625 799 625 q 754 654 756 625 q 706 784 750 748 q 560 821 662 821 l 392 821 q 261 799 310 821 q 191 729 213 778 q 169 597 169 680 l 169 282 q 191 151 169 200 q 262 80 213 102 q 393 58 311 58 l 560 58 q 676 77 633 58 q 737 138 719 95 q 756 254 756 181 l 756 349 l 589 350 q 560 379 560 350 q 589 408 560 408 l 785 407 q 814 378 814 407 l 814 254 q 754 60 814 120 q 560 0 694 0 l 393 0 z "},"H":{"ha":954,"x_min":125,"x_max":829,"o":"m 154 0 q 132 7 140 0 q 125 29 125 15 l 125 850 q 132 872 125 865 q 154 879 140 879 q 176 872 169 879 q 183 850 183 865 l 183 475 l 771 475 l 771 850 q 778 872 771 865 q 800 879 785 879 q 822 872 815 879 q 829 850 829 865 l 829 29 q 822 7 829 15 q 800 0 815 0 q 778 7 785 0 q 771 29 771 15 l 771 417 l 183 417 l 183 29 q 176 7 183 15 q 154 0 169 0 z "},"Ħ":{"ha":954,"x_min":75,"x_max":882,"o":"m 154 0 q 132 7 140 0 q 125 29 125 15 l 125 850 q 132 872 125 865 q 154 879 140 879 q 176 872 169 879 q 183 850 183 865 l 183 475 l 771 475 l 771 850 q 778 872 771 865 q 800 879 785 879 q 822 872 815 879 q 829 850 829 865 l 829 29 q 822 7 829 15 q 800 0 815 0 q 778 7 785 0 q 771 29 771 15 l 771 417 l 183 417 l 183 29 q 176 7 183 15 q 154 0 169 0 m 100 614 q 75 639 75 614 q 100 664 75 664 l 857 664 q 882 639 882 664 q 857 614 882 614 l 100 614 z "},"Ĥ":{"ha":954,"x_min":125,"x_max":829,"o":"m 154 0 q 132 7 140 0 q 125 29 125 15 l 125 850 q 132 872 125 865 q 154 879 140 879 q 176 872 169 879 q 183 850 183 865 l 183 475 l 771 475 l 771 850 q 778 872 771 865 q 800 879 785 879 q 822 872 815 879 q 829 850 829 865 l 829 29 q 822 7 829 15 q 800 0 815 0 q 778 7 785 0 q 771 29 771 15 l 771 417 l 183 417 l 183 29 q 176 7 183 15 q 154 0 169 0 m 349 958 q 328 967 336 958 q 319 988 319 975 q 321 997 319 993 q 325 1006 323 1001 l 433 1150 q 468 1168 447 1168 l 493 1168 q 528 1150 514 1168 l 636 1006 q 640 997 638 1001 q 642 988 642 993 q 633 967 642 975 q 613 958 625 958 q 589 971 597 958 l 485 1110 l 476 1110 l 372 971 q 349 958 364 958 z "},"I":{"ha":308,"x_min":125,"x_max":183,"o":"m 154 0 q 133 8 142 0 q 125 29 125 17 l 125 851 q 133 872 125 864 q 154 881 142 881 q 175 872 167 881 q 183 851 183 864 l 183 29 q 175 8 183 17 q 154 0 167 0 z "},"Í":{"ha":308,"x_min":94,"x_max":299,"o":"m 115 965 q 111 1007 94 984 l 236 1154 q 278 1158 256 1178 q 282 1117 299 1140 l 157 969 q 115 965 138 945 m 154 0 q 133 8 142 0 q 125 29 125 17 l 125 851 q 133 872 125 864 q 154 881 142 881 q 175 872 167 881 q 183 851 183 864 l 183 29 q 175 8 183 17 q 154 0 167 0 z "},"Ĭ":{"ha":308,"x_min":-15,"x_max":324,"o":"m 154 0 q 133 8 142 0 q 125 29 125 17 l 125 851 q 133 872 125 864 q 154 881 142 881 q 175 872 167 881 q 183 851 183 864 l 183 29 q 175 8 183 17 q 154 0 167 0 m 156 960 q 28 1002 72 959 q -15 1128 -15 1044 l -15 1131 q 14 1160 -15 1160 q 43 1131 43 1160 l 43 1128 q 69 1043 43 1069 q 154 1017 96 1017 q 240 1044 214 1018 q 265 1128 265 1069 l 265 1131 q 294 1160 265 1160 q 324 1131 324 1160 l 324 1128 q 280 1001 324 1042 q 156 960 236 960 z "},"Î":{"ha":308,"x_min":-4,"x_max":318,"o":"m 154 0 q 133 8 142 0 q 125 29 125 17 l 125 851 q 133 872 125 864 q 154 881 142 881 q 175 872 167 881 q 183 851 183 864 l 183 29 q 175 8 183 17 q 154 0 167 0 m 25 958 q 4 967 13 958 q -4 988 -4 975 q -2 997 -4 993 q 1 1006 -1 1001 l 110 1150 q 144 1168 124 1168 l 169 1168 q 204 1150 190 1168 l 313 1006 q 316 997 315 1001 q 318 988 318 993 q 310 967 318 975 q 289 958 301 958 q 265 971 274 958 l 161 1110 l 153 1110 l 49 971 q 25 958 40 958 z "},"Ȉ":{"ha":308,"x_min":-76,"x_max":261,"o":"m 90 977 q 52 981 69 960 l -60 1114 q -57 1151 -76 1134 q -19 1147 -37 1169 l 93 1015 q 90 977 108 994 m 242 977 q 205 981 222 960 l 92 1114 q 96 1151 77 1134 q 133 1147 116 1169 l 246 1015 q 242 977 261 994 m 154 0 q 133 8 142 0 q 125 29 125 17 l 125 851 q 133 872 125 864 q 154 881 142 881 q 175 872 167 881 q 183 851 183 864 l 183 29 q 175 8 183 17 q 154 0 167 0 z "},"Ï":{"ha":308,"x_min":8,"x_max":300,"o":"m 154 0 q 133 8 142 0 q 125 29 125 17 l 125 851 q 133 872 125 864 q 154 881 142 881 q 175 872 167 881 q 183 851 183 864 l 183 29 q 175 8 183 17 q 154 0 167 0 m 43 1001 q 8 1038 8 1001 l 8 1061 q 43 1096 8 1096 l 67 1096 q 101 1061 101 1096 l 101 1038 q 67 1001 101 1001 l 43 1001 m 242 1001 q 207 1038 207 1001 l 207 1061 q 242 1096 207 1096 l 265 1096 q 300 1061 300 1096 l 300 1038 q 265 1001 300 1001 l 242 1001 z "},"İ":{"ha":308,"x_min":98,"x_max":209,"o":"m 140 1010 q 98 1053 98 1010 l 98 1081 q 140 1123 98 1123 l 168 1123 q 209 1081 209 1123 l 209 1053 q 168 1010 209 1010 l 140 1010 m 154 0 q 133 8 142 0 q 125 29 125 17 l 125 851 q 133 872 125 864 q 154 881 142 881 q 175 872 167 881 q 183 851 183 864 l 183 29 q 175 8 183 17 q 154 0 167 0 z "},"Ị":{"ha":308,"x_min":107,"x_max":200,"o":"m 154 0 q 133 8 142 0 q 125 29 125 17 l 125 851 q 133 872 125 864 q 154 881 142 881 q 175 872 167 881 q 183 851 183 864 l 183 29 q 175 8 183 17 q 154 0 167 0 m 142 -208 q 107 -172 107 -208 l 107 -149 q 142 -114 107 -114 l 165 -114 q 200 -149 200 -114 l 200 -172 q 165 -208 200 -208 l 142 -208 z "},"Ì":{"ha":308,"x_min":10,"x_max":214,"o":"m 154 0 q 133 8 142 0 q 125 29 125 17 l 125 851 q 133 872 125 864 q 154 881 142 881 q 175 872 167 881 q 183 851 183 864 l 183 29 q 175 8 183 17 q 154 0 167 0 m 193 965 q 151 969 171 945 l 26 1117 q 31 1158 10 1140 q 72 1154 53 1178 l 197 1007 q 193 965 214 984 z "},"Ỉ":{"ha":308,"x_min":54,"x_max":285,"o":"m 154 0 q 133 8 142 0 q 125 29 125 17 l 125 851 q 133 872 125 864 q 154 881 142 881 q 175 872 167 881 q 183 851 183 864 l 183 29 q 175 8 183 17 q 154 0 167 0 m 154 958 q 132 966 140 958 q 125 988 125 973 q 148 1053 125 1031 q 190 1086 172 1075 q 220 1108 213 1100 q 226 1129 226 1116 q 215 1174 226 1163 q 169 1186 203 1186 q 124 1174 136 1186 q 113 1129 113 1163 q 105 1107 113 1115 q 83 1100 98 1100 q 61 1107 69 1100 q 54 1129 54 1115 q 169 1244 54 1244 q 285 1129 285 1244 q 262 1068 285 1089 q 221 1036 240 1048 q 191 1013 198 1022 q 183 988 183 1003 q 176 966 183 973 q 154 958 169 958 z "},"Ȋ":{"ha":308,"x_min":-15,"x_max":324,"o":"m 156 1167 q 280 1126 236 1167 q 324 999 324 1085 l 324 996 q 294 967 324 967 q 265 996 265 967 l 265 999 q 240 1083 265 1057 q 154 1110 214 1109 q 69 1083 96 1110 q 43 999 43 1057 l 43 996 q 14 967 43 967 q -15 996 -15 967 l -15 999 q 28 1125 -15 1082 q 156 1167 72 1168 m 154 0 q 133 8 142 0 q 125 29 125 17 l 125 851 q 133 872 125 864 q 154 881 142 881 q 175 872 167 881 q 183 851 183 864 l 183 29 q 175 8 183 17 q 154 0 167 0 z "},"Ī":{"ha":308,"x_min":25,"x_max":282,"o":"m 154 0 q 133 8 142 0 q 125 29 125 17 l 125 851 q 133 872 125 864 q 154 881 142 881 q 175 872 167 881 q 183 851 183 864 l 183 29 q 175 8 183 17 q 154 0 167 0 m 54 1046 q 25 1075 25 1046 q 54 1104 25 1104 l 253 1104 q 282 1075 282 1104 q 253 1046 282 1046 l 54 1046 z "},"Į":{"ha":308,"x_min":31,"x_max":285,"o":"m 154 0 q 133 8 142 0 q 125 29 125 17 l 125 851 q 133 872 125 864 q 154 881 142 881 q 175 872 167 881 q 183 851 183 864 l 183 29 q 175 8 183 17 q 154 0 167 0 m 153 -233 q 66 -202 102 -233 q 31 -124 31 -170 q 39 -82 31 -103 q 61 -42 47 -60 l 129 47 q 153 58 138 58 q 174 50 165 58 q 182 29 182 42 q 176 11 182 19 l 108 -78 q 89 -124 89 -103 q 107 -160 89 -145 q 153 -175 125 -175 q 195 -165 175 -175 q 235 -136 215 -156 q 244 -130 239 -132 q 256 -128 249 -128 q 276 -136 268 -128 q 285 -157 285 -144 q 276 -178 285 -169 q 153 -233 221 -233 z "},"Ĩ":{"ha":308,"x_min":-17,"x_max":322,"o":"m 154 0 q 133 8 142 0 q 125 29 125 17 l 125 851 q 133 872 125 864 q 154 881 142 881 q 175 872 167 881 q 183 851 183 864 l 183 29 q 175 8 183 17 q 154 0 167 0 m 215 1003 q 173 1015 190 1003 q 144 1043 156 1027 q 120 1071 132 1059 q 92 1083 108 1083 q 66 1068 76 1083 q 43 1024 57 1053 q 32 1009 39 1015 q 15 1003 25 1003 q -10 1018 -3 1003 q -12 1042 -17 1033 q 33 1116 10 1091 q 93 1142 56 1142 q 139 1130 121 1142 q 169 1101 156 1117 q 193 1073 181 1085 q 219 1061 204 1061 q 243 1073 234 1061 q 257 1100 252 1085 q 265 1121 263 1114 q 275 1136 269 1131 q 294 1142 282 1142 q 318 1128 313 1142 q 321 1103 322 1115 q 305 1060 319 1083 q 267 1020 290 1037 q 215 1003 244 1003 z "},"J":{"ha":693,"x_min":30,"x_max":575,"o":"m 283 0 q 96 53 156 0 q 31 224 36 106 q 37 246 30 238 q 58 254 44 254 q 89 225 87 254 q 137 95 93 131 q 283 58 181 58 l 321 58 q 437 77 394 58 q 498 138 480 95 q 517 254 517 181 l 517 850 q 546 879 517 879 q 575 850 575 879 l 575 254 q 515 60 575 120 q 321 0 456 0 l 283 0 z "},"Ĵ":{"ha":693,"x_min":30,"x_max":707,"o":"m 283 0 q 96 53 156 0 q 31 224 36 106 q 37 246 30 238 q 58 254 44 254 q 89 225 87 254 q 137 95 93 131 q 283 58 181 58 l 321 58 q 437 77 394 58 q 498 138 480 95 q 517 254 517 181 l 517 850 q 546 879 517 879 q 575 850 575 879 l 575 254 q 515 60 575 120 q 321 0 456 0 l 283 0 m 414 958 q 393 967 401 958 q 385 988 385 975 q 386 997 385 993 q 390 1006 388 1001 l 499 1150 q 533 1168 513 1168 l 558 1168 q 593 1150 579 1168 l 701 1006 q 705 997 703 1001 q 707 988 707 993 q 699 967 707 975 q 678 958 690 958 q 654 971 663 958 l 550 1110 l 542 1110 l 438 971 q 414 958 429 958 z "},"K":{"ha":749,"x_min":125,"x_max":731,"o":"m 154 0 q 125 29 125 0 l 125 850 q 154 879 125 879 q 183 850 183 879 l 183 427 l 615 869 q 656 869 635 890 q 657 828 677 850 l 340 504 l 713 43 q 708 1 731 20 q 668 6 686 -17 l 300 463 l 183 343 l 183 29 q 154 0 183 0 z "},"Ķ":{"ha":749,"x_min":125,"x_max":731,"o":"m 361 -268 q 344 -261 351 -268 q 338 -242 336 -253 l 363 -94 q 390 -68 365 -68 l 409 -68 q 437 -99 437 -68 l 437 -112 q 436 -131 437 -126 q 433 -139 435 -135 l 383 -250 q 361 -268 376 -268 m 154 0 q 125 29 125 0 l 125 850 q 154 879 125 879 q 183 850 183 879 l 183 427 l 615 869 q 656 869 635 890 q 657 828 677 850 l 340 504 l 713 43 q 708 1 731 20 q 668 6 686 -17 l 300 463 l 183 343 l 183 29 q 154 0 183 0 z "},"L":{"ha":675,"x_min":125,"x_max":647,"o":"m 154 0 q 125 29 125 0 l 125 850 q 154 879 125 879 q 183 850 183 879 l 183 58 l 618 58 q 647 29 647 58 q 618 0 647 0 l 154 0 z "},"Ǉ":{"ha":1368,"x_min":125,"x_max":1250,"o":"m 154 0 q 125 29 125 0 l 125 850 q 154 879 125 879 q 183 850 183 879 l 183 58 l 618 58 q 647 29 647 58 q 618 0 647 0 l 154 0 m 958 0 q 771 53 831 0 q 706 224 711 106 q 712 246 705 238 q 733 254 719 254 q 764 225 762 254 q 812 95 768 131 q 958 58 856 58 l 996 58 q 1112 77 1069 58 q 1173 138 1155 95 q 1192 254 1192 181 l 1192 850 q 1221 879 1192 879 q 1250 850 1250 879 l 1250 254 q 1190 60 1250 120 q 996 0 1131 0 l 958 0 z "},"Ĺ":{"ha":675,"x_min":94,"x_max":647,"o":"m 115 965 q 111 1007 94 984 l 236 1154 q 278 1158 256 1178 q 282 1117 299 1140 l 157 969 q 115 965 138 945 m 154 0 q 125 29 125 0 l 125 850 q 154 879 125 879 q 183 850 183 879 l 183 58 l 618 58 q 647 29 647 58 q 618 0 647 0 l 154 0 z "},"Ľ":{"ha":675,"x_min":125,"x_max":647,"o":"m 365 697 q 347 704 355 697 q 342 723 340 711 l 365 867 q 393 893 368 893 l 411 893 q 438 863 438 893 l 438 849 q 438 832 438 837 q 435 824 437 827 l 386 715 q 365 697 378 697 m 154 0 q 125 29 125 0 l 125 850 q 154 879 125 879 q 183 850 183 879 l 183 58 l 618 58 q 647 29 647 58 q 618 0 647 0 l 154 0 z "},"Ļ":{"ha":675,"x_min":125,"x_max":647,"o":"m 363 -268 q 345 -261 353 -268 q 339 -242 338 -253 l 364 -94 q 392 -68 366 -68 l 410 -68 q 438 -99 438 -68 l 438 -112 q 437 -131 438 -126 q 435 -139 436 -135 l 385 -250 q 363 -268 377 -268 m 154 0 q 125 29 125 0 l 125 850 q 154 879 125 879 q 183 850 183 879 l 183 58 l 618 58 q 647 29 647 58 q 618 0 647 0 l 154 0 z "},"Ŀ":{"ha":675,"x_min":125,"x_max":647,"o":"m 154 0 q 125 29 125 0 l 125 850 q 154 879 125 879 q 183 850 183 879 l 183 58 l 618 58 q 647 29 647 58 q 618 0 647 0 l 154 0 m 451 425 q 417 461 417 425 l 417 485 q 451 519 417 519 l 475 519 q 510 485 510 519 l 510 461 q 475 425 510 425 l 451 425 z "},"ǈ":{"ha":928,"x_min":125,"x_max":828,"o":"m 759 771 q 717 814 717 771 l 717 842 q 759 884 717 884 l 788 884 q 828 842 828 884 l 828 814 q 788 771 828 771 l 759 771 m 154 0 q 125 29 125 0 l 125 850 q 154 879 125 879 q 183 850 183 879 l 183 58 l 618 58 q 647 29 647 58 q 618 0 647 0 l 154 0 m 621 -278 q 599 -270 608 -278 q 589 -249 589 -263 q 599 -227 589 -234 q 621 -219 608 -219 q 718 -192 691 -219 q 744 -96 744 -165 l 744 611 q 774 640 744 640 q 803 611 803 640 l 803 -96 q 759 -234 803 -190 q 621 -278 715 -278 z "},"Ł":{"ha":675,"x_min":-9,"x_max":647,"o":"m 154 0 q 125 29 125 0 l 125 850 q 154 879 125 879 q 183 850 183 879 l 183 58 l 618 58 q 647 29 647 58 q 618 0 647 0 l 154 0 m 50 296 q 8 301 26 279 q 14 342 -9 325 l 367 610 q 407 604 390 627 q 401 564 426 581 l 50 296 z "},"M":{"ha":1065,"x_min":125,"x_max":940,"o":"m 154 0 q 125 29 125 0 l 125 850 q 154 879 125 879 q 189 860 177 879 l 540 319 l 526 318 l 878 860 q 913 879 890 879 q 940 850 940 879 l 940 29 q 911 0 940 0 q 882 29 882 0 l 882 792 l 899 786 l 568 278 q 533 258 556 258 q 499 278 510 258 l 168 786 l 183 779 l 183 29 q 154 0 183 0 z "},"Ṁ":{"ha":1065,"x_min":125,"x_max":940,"o":"m 519 1010 q 477 1053 477 1010 l 477 1081 q 519 1123 477 1123 l 547 1123 q 588 1081 588 1123 l 588 1053 q 547 1010 588 1010 l 519 1010 m 154 0 q 125 29 125 0 l 125 850 q 154 879 125 879 q 189 860 177 879 l 540 319 l 526 318 l 878 860 q 913 879 890 879 q 940 850 940 879 l 940 29 q 911 0 940 0 q 882 29 882 0 l 882 792 l 899 786 l 568 278 q 533 258 556 258 q 499 278 510 258 l 168 786 l 183 779 l 183 29 q 154 0 183 0 z "},"N":{"ha":954,"x_min":125,"x_max":829,"o":"m 154 0 q 125 29 125 0 l 125 850 q 154 879 125 879 q 185 863 170 879 l 783 94 l 771 94 l 771 850 q 800 879 771 879 q 829 850 829 879 l 829 29 q 800 0 829 0 q 769 17 784 0 l 171 785 l 183 785 l 183 29 q 154 0 183 0 z "},"Ǌ":{"ha":1647,"x_min":125,"x_max":1529,"o":"m 154 0 q 125 29 125 0 l 125 850 q 154 879 125 879 q 185 863 170 879 l 783 94 l 771 94 l 771 850 q 800 879 771 879 q 829 850 829 879 l 829 29 q 800 0 829 0 q 769 17 784 0 l 171 785 l 183 785 l 183 29 q 154 0 183 0 m 1238 0 q 1050 53 1110 0 q 985 224 990 106 q 991 246 984 238 q 1013 254 998 254 q 1043 225 1041 254 q 1091 95 1047 131 q 1238 58 1135 58 l 1275 58 q 1391 77 1349 58 q 1452 138 1434 95 q 1471 254 1471 181 l 1471 850 q 1500 879 1471 879 q 1529 850 1529 879 l 1529 254 q 1469 60 1529 120 q 1275 0 1410 0 l 1238 0 z "},"Ń":{"ha":954,"x_min":125,"x_max":829,"o":"m 451 965 q 447 1007 431 984 l 572 1154 q 614 1158 592 1178 q 618 1117 635 1140 l 493 969 q 451 965 474 945 m 154 0 q 125 29 125 0 l 125 850 q 154 879 125 879 q 185 863 170 879 l 783 94 l 771 94 l 771 850 q 800 879 771 879 q 829 850 829 879 l 829 29 q 800 0 829 0 q 769 17 784 0 l 171 785 l 183 785 l 183 29 q 154 0 183 0 z "},"Ň":{"ha":954,"x_min":125,"x_max":829,"o":"m 363 1168 q 382 1161 373 1168 l 522 1044 l 539 1044 l 679 1161 q 699 1168 688 1168 q 719 1160 711 1168 q 728 1139 728 1151 q 717 1117 728 1126 l 576 999 q 540 986 560 986 l 521 986 q 485 999 501 986 l 344 1117 q 333 1139 333 1126 q 342 1160 333 1151 q 363 1168 350 1168 m 154 0 q 125 29 125 0 l 125 850 q 154 879 125 879 q 185 863 170 879 l 783 94 l 771 94 l 771 850 q 800 879 771 879 q 829 850 829 879 l 829 29 q 800 0 829 0 q 769 17 784 0 l 171 785 l 183 785 l 183 29 q 154 0 183 0 z "},"Ņ":{"ha":954,"x_min":125,"x_max":829,"o":"m 472 -268 q 455 -261 463 -268 q 449 -242 447 -253 l 474 -94 q 501 -68 476 -68 l 520 -68 q 548 -99 548 -68 l 548 -112 q 547 -131 548 -126 q 544 -139 546 -135 l 494 -250 q 472 -268 487 -268 m 154 0 q 125 29 125 0 l 125 850 q 154 879 125 879 q 185 863 170 879 l 783 94 l 771 94 l 771 850 q 800 879 771 879 q 829 850 829 879 l 829 29 q 800 0 829 0 q 769 17 784 0 l 171 785 l 183 785 l 183 29 q 154 0 183 0 z "},"Ŋ":{"ha":954,"x_min":125,"x_max":829,"o":"m 507 -278 q 384 -244 426 -278 q 338 -137 343 -210 q 344 -115 337 -123 q 365 -107 352 -107 q 388 -114 380 -107 q 396 -136 395 -122 q 425 -202 399 -184 q 507 -219 451 -219 l 658 -219 q 747 -195 723 -219 q 771 -107 771 -172 l 771 15 l 183 769 l 183 29 q 154 0 183 0 q 125 29 125 0 l 125 850 q 154 879 125 879 q 185 863 170 879 l 771 110 l 771 850 q 800 879 771 879 q 829 850 829 879 l 829 -107 q 788 -236 829 -195 q 658 -278 747 -278 l 507 -278 z "},"ǋ":{"ha":1254,"x_min":125,"x_max":1155,"o":"m 1085 771 q 1044 814 1044 771 l 1044 842 q 1085 884 1044 884 l 1114 884 q 1155 842 1155 884 l 1155 814 q 1114 771 1155 771 l 1085 771 m 154 0 q 125 29 125 0 l 125 850 q 154 879 125 879 q 185 863 170 879 l 783 94 l 771 94 l 771 850 q 800 879 771 879 q 829 850 829 879 l 829 29 q 800 0 829 0 q 769 17 784 0 l 171 785 l 183 785 l 183 29 q 154 0 183 0 m 947 -278 q 925 -270 935 -278 q 915 -249 915 -263 q 925 -227 915 -234 q 947 -219 935 -219 q 1044 -192 1017 -219 q 1071 -96 1071 -165 l 1071 611 q 1100 640 1071 640 q 1129 611 1129 640 l 1129 -96 q 1085 -234 1129 -190 q 947 -278 1041 -278 z "},"Ñ":{"ha":954,"x_min":125,"x_max":829,"o":"m 154 0 q 125 29 125 0 l 125 850 q 154 879 125 879 q 185 863 170 879 l 783 94 l 771 94 l 771 850 q 800 879 771 879 q 829 850 829 879 l 829 29 q 800 0 829 0 q 769 17 784 0 l 171 785 l 183 785 l 183 29 q 154 0 183 0 m 572 1001 q 511 1019 535 1001 q 474 1051 488 1036 q 445 1077 458 1067 q 408 1086 431 1086 q 370 1074 383 1086 q 344 1022 357 1061 q 334 1007 342 1013 q 317 1001 326 1001 q 291 1016 298 1001 q 289 1040 285 1031 q 336 1120 308 1096 q 408 1144 364 1144 q 475 1126 450 1144 q 515 1092 500 1108 q 545 1066 534 1073 q 572 1060 557 1060 q 612 1075 597 1060 q 638 1124 627 1090 q 647 1139 641 1133 q 667 1144 653 1144 q 690 1131 683 1144 q 693 1107 697 1117 q 646 1029 674 1056 q 572 1001 617 1001 z "},"O":{"ha":953,"x_min":111,"x_max":842,"o":"m 393 0 q 178 67 245 0 q 111 282 111 134 l 111 597 q 178 814 111 747 q 392 879 245 881 l 560 879 q 775 812 708 879 q 842 597 842 745 l 842 282 q 775 67 842 134 q 560 0 708 0 l 393 0 m 393 58 l 560 58 q 691 80 642 58 q 761 151 740 102 q 783 282 783 200 l 783 597 q 761 728 783 679 q 691 799 740 777 q 560 821 642 821 l 392 821 q 261 800 310 822 q 191 729 213 778 q 169 597 169 680 l 169 282 q 191 151 169 200 q 262 80 213 102 q 393 58 311 58 z "},"Ó":{"ha":953,"x_min":111,"x_max":842,"o":"m 438 965 q 433 1007 417 984 l 558 1154 q 600 1158 578 1178 q 604 1117 621 1140 l 479 969 q 438 965 460 945 m 393 0 q 178 67 245 0 q 111 282 111 134 l 111 597 q 178 814 111 747 q 392 879 245 881 l 560 879 q 775 812 708 879 q 842 597 842 745 l 842 282 q 775 67 842 134 q 560 0 708 0 l 393 0 m 393 58 l 560 58 q 691 80 642 58 q 761 151 740 102 q 783 282 783 200 l 783 597 q 761 728 783 679 q 691 799 740 777 q 560 821 642 821 l 392 821 q 261 800 310 822 q 191 729 213 778 q 169 597 169 680 l 169 282 q 191 151 169 200 q 262 80 213 102 q 393 58 311 58 z "},"Ŏ":{"ha":953,"x_min":111,"x_max":842,"o":"m 393 0 q 178 67 245 0 q 111 282 111 134 l 111 597 q 178 814 111 747 q 392 879 245 881 l 560 879 q 775 812 708 879 q 842 597 842 745 l 842 282 q 775 67 842 134 q 560 0 708 0 l 393 0 m 393 58 l 560 58 q 691 80 642 58 q 761 151 740 102 q 783 282 783 200 l 783 597 q 761 728 783 679 q 691 799 740 777 q 560 821 642 821 l 392 821 q 261 800 310 822 q 191 729 213 778 q 169 597 169 680 l 169 282 q 191 151 169 200 q 262 80 213 102 q 393 58 311 58 m 478 960 q 350 1002 394 959 q 307 1128 307 1044 l 307 1131 q 336 1160 307 1160 q 365 1131 365 1160 l 365 1128 q 392 1043 365 1069 q 476 1017 418 1017 q 562 1044 536 1018 q 588 1128 588 1069 l 588 1131 q 617 1160 588 1160 q 646 1131 646 1160 l 646 1128 q 602 1001 646 1042 q 478 960 558 960 z "},"Ô":{"ha":953,"x_min":111,"x_max":842,"o":"m 393 0 q 178 67 245 0 q 111 282 111 134 l 111 597 q 178 814 111 747 q 392 879 245 881 l 560 879 q 775 812 708 879 q 842 597 842 745 l 842 282 q 775 67 842 134 q 560 0 708 0 l 393 0 m 393 58 l 560 58 q 691 80 642 58 q 761 151 740 102 q 783 282 783 200 l 783 597 q 761 728 783 679 q 691 799 740 777 q 560 821 642 821 l 392 821 q 261 800 310 822 q 191 729 213 778 q 169 597 169 680 l 169 282 q 191 151 169 200 q 262 80 213 102 q 393 58 311 58 m 306 969 q 285 978 293 969 q 276 999 276 986 q 288 1021 276 1012 l 428 1139 q 464 1151 444 1151 l 483 1151 q 519 1139 503 1151 l 660 1021 q 671 999 671 1012 q 663 978 671 986 q 642 969 654 969 q 622 976 631 969 l 482 1093 l 465 1093 l 325 976 q 306 969 316 969 z "},"Ố":{"ha":953,"x_min":111,"x_max":842,"o":"m 393 0 q 178 67 245 0 q 111 282 111 134 l 111 597 q 178 814 111 747 q 392 879 245 881 l 560 879 q 775 812 708 879 q 842 597 842 745 l 842 282 q 775 67 842 134 q 560 0 708 0 l 393 0 m 393 58 l 560 58 q 691 80 642 58 q 761 151 740 102 q 783 282 783 200 l 783 597 q 761 728 783 679 q 691 799 740 777 q 560 821 642 821 l 392 821 q 261 800 310 822 q 191 729 213 778 q 169 597 169 680 l 169 282 q 191 151 169 200 q 262 80 213 102 q 393 58 311 58 m 604 1106 q 583 1114 592 1106 q 575 1135 575 1122 q 582 1154 575 1145 l 678 1267 q 700 1278 687 1278 q 721 1269 713 1278 q 729 1249 729 1261 q 727 1239 729 1244 q 722 1229 726 1233 l 626 1117 q 604 1106 617 1106 m 313 969 q 292 978 300 969 q 283 999 283 986 q 294 1021 283 1012 l 435 1139 q 471 1151 451 1151 l 490 1151 q 526 1139 510 1151 l 667 1021 q 678 999 678 1012 q 669 978 678 986 q 649 969 661 969 q 629 976 638 969 l 489 1093 l 472 1093 l 332 976 q 313 969 323 969 z "},"Ộ":{"ha":953,"x_min":111,"x_max":842,"o":"m 393 0 q 178 67 245 0 q 111 282 111 134 l 111 597 q 178 814 111 747 q 392 879 245 881 l 560 879 q 775 812 708 879 q 842 597 842 745 l 842 282 q 775 67 842 134 q 560 0 708 0 l 393 0 m 393 58 l 560 58 q 691 80 642 58 q 761 151 740 102 q 783 282 783 200 l 783 597 q 761 728 783 679 q 691 799 740 777 q 560 821 642 821 l 392 821 q 261 800 310 822 q 191 729 213 778 q 169 597 169 680 l 169 282 q 191 151 169 200 q 262 80 213 102 q 393 58 311 58 m 464 -208 q 429 -172 429 -208 l 429 -149 q 464 -114 429 -114 l 488 -114 q 522 -149 522 -114 l 522 -172 q 488 -208 522 -208 l 464 -208 m 306 969 q 285 978 293 969 q 276 999 276 986 q 288 1021 276 1012 l 428 1139 q 464 1151 444 1151 l 483 1151 q 519 1139 503 1151 l 660 1021 q 671 999 671 1012 q 663 978 671 986 q 642 969 654 969 q 622 976 631 969 l 482 1093 l 465 1093 l 325 976 q 306 969 316 969 z "},"Ồ":{"ha":953,"x_min":111,"x_max":842,"o":"m 393 0 q 178 67 245 0 q 111 282 111 134 l 111 597 q 178 814 111 747 q 392 879 245 881 l 560 879 q 775 812 708 879 q 842 597 842 745 l 842 282 q 775 67 842 134 q 560 0 708 0 l 393 0 m 393 58 l 560 58 q 691 80 642 58 q 761 151 740 102 q 783 282 783 200 l 783 597 q 761 728 783 679 q 691 799 740 777 q 560 821 642 821 l 392 821 q 261 800 310 822 q 191 729 213 778 q 169 597 169 680 l 169 282 q 191 151 169 200 q 262 80 213 102 q 393 58 311 58 m 321 1106 q 299 1117 308 1106 l 203 1229 q 196 1249 196 1238 q 204 1269 196 1261 q 225 1278 213 1278 q 247 1267 238 1278 l 343 1154 q 350 1135 350 1145 q 342 1114 350 1122 q 321 1106 333 1106 m 318 969 q 297 978 306 969 q 289 999 289 986 q 300 1021 289 1012 l 440 1139 q 476 1151 457 1151 l 496 1151 q 532 1139 515 1151 l 672 1021 q 683 999 683 1012 q 675 978 683 986 q 654 969 667 969 q 635 976 644 969 l 494 1093 l 478 1093 l 338 976 q 318 969 328 969 z "},"Ổ":{"ha":953,"x_min":111,"x_max":842,"o":"m 393 0 q 178 67 245 0 q 111 282 111 134 l 111 597 q 178 814 111 747 q 392 879 245 881 l 560 879 q 775 812 708 879 q 842 597 842 745 l 842 282 q 775 67 842 134 q 560 0 708 0 l 393 0 m 393 58 l 560 58 q 691 80 642 58 q 761 151 740 102 q 783 282 783 200 l 783 597 q 761 728 783 679 q 691 799 740 777 q 560 821 642 821 l 392 821 q 261 800 310 822 q 191 729 213 778 q 169 597 169 680 l 169 282 q 191 151 169 200 q 262 80 213 102 q 393 58 311 58 m 307 969 q 286 978 294 969 q 278 999 278 986 q 289 1021 278 1012 l 429 1139 q 465 1151 446 1151 l 485 1151 q 521 1139 504 1151 l 661 1021 q 672 999 672 1012 q 664 978 672 986 q 643 969 656 969 q 624 976 633 969 l 483 1093 l 467 1093 l 326 976 q 307 969 317 969 m 604 1096 q 582 1103 590 1096 q 575 1125 575 1110 q 598 1191 575 1169 q 640 1224 622 1213 q 670 1245 663 1238 q 676 1267 676 1253 q 665 1312 676 1300 q 619 1324 653 1324 q 574 1312 586 1324 q 563 1267 563 1300 q 555 1245 563 1252 q 533 1238 548 1238 q 511 1245 519 1238 q 504 1267 504 1252 q 619 1382 504 1382 q 735 1267 735 1382 q 712 1206 735 1226 q 671 1174 690 1185 q 641 1150 648 1159 q 633 1125 633 1141 q 626 1103 633 1110 q 604 1096 619 1096 z "},"Ỗ":{"ha":953,"x_min":111,"x_max":842,"o":"m 393 0 q 178 67 245 0 q 111 282 111 134 l 111 597 q 178 814 111 747 q 392 879 245 881 l 560 879 q 775 812 708 879 q 842 597 842 745 l 842 282 q 775 67 842 134 q 560 0 708 0 l 393 0 m 393 58 l 560 58 q 691 80 642 58 q 761 151 740 102 q 783 282 783 200 l 783 597 q 761 728 783 679 q 691 799 740 777 q 560 821 642 821 l 392 821 q 261 800 310 822 q 191 729 213 778 q 169 597 169 680 l 169 282 q 191 151 169 200 q 262 80 213 102 q 393 58 311 58 m 310 969 q 289 978 297 969 q 281 999 281 986 q 292 1021 281 1012 l 432 1139 q 468 1151 449 1151 l 488 1151 q 524 1139 507 1151 l 664 1021 q 675 999 675 1012 q 667 978 675 986 q 646 969 658 969 q 626 976 635 969 l 486 1093 l 469 1093 l 329 976 q 310 969 320 969 m 561 1175 q 500 1192 524 1175 q 463 1225 477 1210 q 434 1250 447 1241 q 397 1260 420 1260 q 359 1247 372 1260 q 333 1196 346 1235 q 323 1181 331 1187 q 306 1175 315 1175 q 280 1190 287 1175 q 278 1214 274 1205 q 325 1294 297 1269 q 397 1318 353 1318 q 464 1300 439 1318 q 504 1265 489 1282 q 534 1240 523 1247 q 561 1233 546 1233 q 601 1248 585 1233 q 626 1297 616 1263 q 636 1313 630 1307 q 656 1318 642 1318 q 679 1305 672 1318 q 682 1281 686 1291 q 635 1202 663 1230 q 561 1175 606 1175 z "},"Ȍ":{"ha":953,"x_min":111,"x_max":842,"o":"m 412 977 q 374 981 392 960 l 262 1114 q 265 1151 247 1134 q 303 1147 285 1169 l 415 1015 q 412 977 431 994 m 565 977 q 527 981 544 960 l 415 1114 q 418 1151 399 1134 q 456 1147 438 1169 l 568 1015 q 565 977 583 994 m 393 0 q 178 67 245 0 q 111 282 111 134 l 111 597 q 178 814 111 747 q 392 879 245 881 l 560 879 q 775 812 708 879 q 842 597 842 745 l 842 282 q 775 67 842 134 q 560 0 708 0 l 393 0 m 393 58 l 560 58 q 691 80 642 58 q 761 151 740 102 q 783 282 783 200 l 783 597 q 761 728 783 679 q 691 799 740 777 q 560 821 642 821 l 392 821 q 261 800 310 822 q 191 729 213 778 q 169 597 169 680 l 169 282 q 191 151 169 200 q 262 80 213 102 q 393 58 311 58 z "},"Ö":{"ha":953,"x_min":111,"x_max":842,"o":"m 393 0 q 178 67 245 0 q 111 282 111 134 l 111 597 q 178 814 111 747 q 392 879 245 881 l 560 879 q 775 812 708 879 q 842 597 842 745 l 842 282 q 775 67 842 134 q 560 0 708 0 l 393 0 m 393 58 l 560 58 q 691 80 642 58 q 761 151 740 102 q 783 282 783 200 l 783 597 q 761 728 783 679 q 691 799 740 777 q 560 821 642 821 l 392 821 q 261 800 310 822 q 191 729 213 778 q 169 597 169 680 l 169 282 q 191 151 169 200 q 262 80 213 102 q 393 58 311 58 m 365 1001 q 331 1038 331 1001 l 331 1061 q 365 1096 331 1096 l 389 1096 q 424 1061 424 1096 l 424 1038 q 389 1001 424 1001 l 365 1001 m 564 1001 q 529 1038 529 1001 l 529 1061 q 564 1096 529 1096 l 588 1096 q 622 1061 622 1096 l 622 1038 q 588 1001 622 1001 l 564 1001 z "},"Ȫ":{"ha":953,"x_min":111,"x_max":842,"o":"m 393 0 q 178 67 245 0 q 111 282 111 134 l 111 597 q 178 814 111 747 q 392 879 245 881 l 560 879 q 775 812 708 879 q 842 597 842 745 l 842 282 q 775 67 842 134 q 560 0 708 0 l 393 0 m 393 58 l 560 58 q 691 80 642 58 q 761 151 740 102 q 783 282 783 200 l 783 597 q 761 728 783 679 q 691 799 740 777 q 560 821 642 821 l 392 821 q 261 800 310 822 q 191 729 213 778 q 169 597 169 680 l 169 282 q 191 151 169 200 q 262 80 213 102 q 393 58 311 58 m 365 1001 q 331 1038 331 1001 l 331 1061 q 365 1096 331 1096 l 389 1096 q 424 1061 424 1096 l 424 1038 q 389 1001 424 1001 l 365 1001 m 564 1001 q 529 1038 529 1001 l 529 1061 q 564 1096 529 1096 l 588 1096 q 622 1061 622 1096 l 622 1038 q 588 1001 622 1001 l 564 1001 m 301 1267 q 272 1296 272 1267 q 301 1325 272 1325 l 653 1325 q 682 1296 682 1325 q 653 1267 682 1267 l 301 1267 z "},"Ȱ":{"ha":953,"x_min":111,"x_max":842,"o":"m 462 1010 q 420 1053 420 1010 l 420 1081 q 462 1123 420 1123 l 490 1123 q 531 1081 531 1123 l 531 1053 q 490 1010 531 1010 l 462 1010 m 393 0 q 178 67 245 0 q 111 282 111 134 l 111 597 q 178 814 111 747 q 392 879 245 881 l 560 879 q 775 812 708 879 q 842 597 842 745 l 842 282 q 775 67 842 134 q 560 0 708 0 l 393 0 m 393 58 l 560 58 q 691 80 642 58 q 761 151 740 102 q 783 282 783 200 l 783 597 q 761 728 783 679 q 691 799 740 777 q 560 821 642 821 l 392 821 q 261 800 310 822 q 191 729 213 778 q 169 597 169 680 l 169 282 q 191 151 169 200 q 262 80 213 102 q 393 58 311 58 m 301 1293 q 272 1322 272 1293 q 301 1351 272 1351 l 653 1351 q 682 1322 682 1351 q 653 1293 682 1293 l 301 1293 z "},"Ọ":{"ha":953,"x_min":111,"x_max":842,"o":"m 393 0 q 178 67 245 0 q 111 282 111 134 l 111 597 q 178 814 111 747 q 392 879 245 881 l 560 879 q 775 812 708 879 q 842 597 842 745 l 842 282 q 775 67 842 134 q 560 0 708 0 l 393 0 m 393 58 l 560 58 q 691 80 642 58 q 761 151 740 102 q 783 282 783 200 l 783 597 q 761 728 783 679 q 691 799 740 777 q 560 821 642 821 l 392 821 q 261 800 310 822 q 191 729 213 778 q 169 597 169 680 l 169 282 q 191 151 169 200 q 262 80 213 102 q 393 58 311 58 m 464 -208 q 429 -172 429 -208 l 429 -149 q 464 -114 429 -114 l 488 -114 q 522 -149 522 -114 l 522 -172 q 488 -208 522 -208 l 464 -208 z "},"Ò":{"ha":953,"x_min":111,"x_max":842,"o":"m 393 0 q 178 67 245 0 q 111 282 111 134 l 111 597 q 178 814 111 747 q 392 879 245 881 l 560 879 q 775 812 708 879 q 842 597 842 745 l 842 282 q 775 67 842 134 q 560 0 708 0 l 393 0 m 393 58 l 560 58 q 691 80 642 58 q 761 151 740 102 q 783 282 783 200 l 783 597 q 761 728 783 679 q 691 799 740 777 q 560 821 642 821 l 392 821 q 261 800 310 822 q 191 729 213 778 q 169 597 169 680 l 169 282 q 191 151 169 200 q 262 80 213 102 q 393 58 311 58 m 515 965 q 474 969 493 945 l 349 1117 q 353 1158 332 1140 q 394 1154 375 1178 l 519 1007 q 515 965 536 984 z "},"Ỏ":{"ha":953,"x_min":111,"x_max":842,"o":"m 393 0 q 178 67 245 0 q 111 282 111 134 l 111 597 q 178 814 111 747 q 392 879 245 881 l 560 879 q 775 812 708 879 q 842 597 842 745 l 842 282 q 775 67 842 134 q 560 0 708 0 l 393 0 m 393 58 l 560 58 q 691 80 642 58 q 761 151 740 102 q 783 282 783 200 l 783 597 q 761 728 783 679 q 691 799 740 777 q 560 821 642 821 l 392 821 q 261 800 310 822 q 191 729 213 778 q 169 597 169 680 l 169 282 q 191 151 169 200 q 262 80 213 102 q 393 58 311 58 m 476 958 q 455 966 462 958 q 447 988 447 973 q 470 1053 447 1031 q 513 1086 494 1075 q 542 1108 535 1100 q 549 1129 549 1116 q 537 1174 549 1163 q 492 1186 525 1186 q 447 1174 458 1186 q 435 1129 435 1163 q 427 1107 435 1115 q 406 1100 420 1100 q 384 1107 391 1100 q 376 1129 376 1115 q 492 1244 376 1244 q 607 1129 607 1244 q 584 1068 607 1089 q 543 1036 562 1048 q 513 1013 520 1022 q 506 988 506 1003 q 498 966 506 973 q 476 958 491 958 z "},"Ơ":{"ha":953,"x_min":111,"x_max":889,"o":"m 393 0 q 178 67 245 0 q 111 282 111 134 l 111 597 q 178 814 111 747 q 392 879 245 881 l 560 879 q 775 812 708 879 q 842 597 842 745 l 842 282 q 775 67 842 134 q 560 0 708 0 l 393 0 m 393 58 l 560 58 q 691 80 642 58 q 761 151 740 102 q 783 282 783 200 l 783 597 q 761 728 783 679 q 691 799 740 777 q 560 821 642 821 l 392 821 q 261 800 310 822 q 191 729 213 778 q 169 597 169 680 l 169 282 q 191 151 169 200 q 262 80 213 102 q 393 58 311 58 m 740 781 l 740 839 q 811 855 792 839 q 831 910 831 870 l 831 940 q 860 969 831 969 q 889 940 889 969 l 889 910 q 873 837 889 866 q 823 794 856 808 q 740 781 790 781 z "},"Ớ":{"ha":953,"x_min":111,"x_max":889,"o":"m 438 965 q 433 1007 417 984 l 558 1154 q 600 1158 578 1178 q 604 1117 621 1140 l 479 969 q 438 965 460 945 m 393 0 q 178 67 245 0 q 111 282 111 134 l 111 597 q 178 814 111 747 q 392 879 245 881 l 560 879 q 775 812 708 879 q 842 597 842 745 l 842 282 q 775 67 842 134 q 560 0 708 0 l 393 0 m 393 58 l 560 58 q 691 80 642 58 q 761 151 740 102 q 783 282 783 200 l 783 597 q 761 728 783 679 q 691 799 740 777 q 560 821 642 821 l 392 821 q 261 800 310 822 q 191 729 213 778 q 169 597 169 680 l 169 282 q 191 151 169 200 q 262 80 213 102 q 393 58 311 58 m 740 781 l 740 839 q 811 855 792 839 q 831 910 831 870 l 831 940 q 860 969 831 969 q 889 940 889 969 l 889 910 q 873 838 889 866 q 823 795 856 809 q 740 781 790 781 z "},"Ợ":{"ha":953,"x_min":111,"x_max":889,"o":"m 393 0 q 178 67 245 0 q 111 282 111 134 l 111 597 q 178 814 111 747 q 392 879 245 881 l 560 879 q 775 812 708 879 q 842 597 842 745 l 842 282 q 775 67 842 134 q 560 0 708 0 l 393 0 m 393 58 l 560 58 q 691 80 642 58 q 761 151 740 102 q 783 282 783 200 l 783 597 q 761 728 783 679 q 691 799 740 777 q 560 821 642 821 l 392 821 q 261 800 310 822 q 191 729 213 778 q 169 597 169 680 l 169 282 q 191 151 169 200 q 262 80 213 102 q 393 58 311 58 m 740 781 l 740 839 q 811 855 792 839 q 831 910 831 870 l 831 940 q 860 969 831 969 q 889 940 889 969 l 889 910 q 873 837 889 866 q 823 794 856 808 q 740 781 790 781 m 464 -208 q 429 -172 429 -208 l 429 -149 q 464 -114 429 -114 l 488 -114 q 522 -149 522 -114 l 522 -172 q 488 -208 522 -208 l 464 -208 z "},"Ờ":{"ha":953,"x_min":111,"x_max":889,"o":"m 393 0 q 178 67 245 0 q 111 282 111 134 l 111 597 q 178 814 111 747 q 392 879 245 881 l 560 879 q 775 812 708 879 q 842 597 842 745 l 842 282 q 775 67 842 134 q 560 0 708 0 l 393 0 m 393 58 l 560 58 q 691 80 642 58 q 761 151 740 102 q 783 282 783 200 l 783 597 q 761 728 783 679 q 691 799 740 777 q 560 821 642 821 l 392 821 q 261 800 310 822 q 191 729 213 778 q 169 597 169 680 l 169 282 q 191 151 169 200 q 262 80 213 102 q 393 58 311 58 m 740 781 l 740 839 q 811 855 792 839 q 831 910 831 870 l 831 940 q 860 969 831 969 q 889 940 889 969 l 889 910 q 873 837 889 866 q 823 794 856 808 q 740 781 790 781 m 515 965 q 474 969 493 945 l 349 1117 q 353 1158 332 1140 q 394 1154 375 1178 l 519 1007 q 515 965 536 984 z "},"Ở":{"ha":953,"x_min":111,"x_max":889,"o":"m 393 0 q 178 67 245 0 q 111 282 111 134 l 111 597 q 178 814 111 747 q 392 879 245 881 l 560 879 q 775 812 708 879 q 842 597 842 745 l 842 282 q 775 67 842 134 q 560 0 708 0 l 393 0 m 393 58 l 560 58 q 691 80 642 58 q 761 151 740 102 q 783 282 783 200 l 783 597 q 761 728 783 679 q 691 799 740 777 q 560 821 642 821 l 392 821 q 261 800 310 822 q 191 729 213 778 q 169 597 169 680 l 169 282 q 191 151 169 200 q 262 80 213 102 q 393 58 311 58 m 740 781 l 740 839 q 811 855 792 839 q 831 910 831 870 l 831 940 q 860 969 831 969 q 889 940 889 969 l 889 910 q 873 837 889 866 q 823 794 856 808 q 740 781 790 781 m 476 958 q 455 966 462 958 q 447 988 447 973 q 470 1053 447 1031 q 513 1086 494 1075 q 542 1108 535 1100 q 549 1129 549 1116 q 537 1174 549 1163 q 492 1186 525 1186 q 447 1174 458 1186 q 435 1129 435 1163 q 427 1107 435 1115 q 406 1100 420 1100 q 384 1107 391 1100 q 376 1129 376 1115 q 492 1244 376 1244 q 607 1129 607 1244 q 584 1068 607 1089 q 543 1036 562 1048 q 513 1013 520 1022 q 506 988 506 1003 q 498 966 506 973 q 476 958 491 958 z "},"Ỡ":{"ha":953,"x_min":111,"x_max":889,"o":"m 393 0 q 178 67 245 0 q 111 282 111 134 l 111 597 q 178 814 111 747 q 392 879 245 881 l 560 879 q 775 812 708 879 q 842 597 842 745 l 842 282 q 775 67 842 134 q 560 0 708 0 l 393 0 m 393 58 l 560 58 q 691 80 642 58 q 761 151 740 102 q 783 282 783 200 l 783 597 q 761 728 783 679 q 691 799 740 777 q 560 821 642 821 l 392 821 q 261 800 310 822 q 191 729 213 778 q 169 597 169 680 l 169 282 q 191 151 169 200 q 262 80 213 102 q 393 58 311 58 m 740 781 l 740 839 q 811 855 792 839 q 831 910 831 870 l 831 940 q 860 969 831 969 q 889 940 889 969 l 889 910 q 873 837 889 866 q 823 794 856 808 q 740 781 790 781 m 558 1001 q 498 1019 521 1001 q 460 1051 474 1036 q 431 1077 444 1067 q 394 1086 417 1086 q 356 1074 369 1086 q 331 1022 343 1061 q 320 1007 328 1013 q 303 1001 313 1001 q 277 1016 284 1001 q 275 1040 271 1031 q 322 1120 294 1096 q 394 1144 350 1144 q 461 1126 436 1144 q 501 1092 486 1108 q 532 1066 520 1073 q 558 1060 543 1060 q 598 1075 583 1060 q 624 1124 613 1090 q 633 1139 627 1133 q 653 1144 640 1144 q 676 1131 669 1144 q 679 1107 683 1117 q 632 1029 660 1056 q 558 1001 603 1001 z "},"Ő":{"ha":953,"x_min":111,"x_max":842,"o":"m 381 965 q 376 1007 360 984 l 501 1154 q 543 1158 521 1178 q 547 1117 564 1140 l 422 969 q 381 965 403 945 m 519 965 q 515 1007 499 984 l 640 1154 q 682 1158 660 1178 q 686 1117 703 1140 l 561 969 q 519 965 542 945 m 393 0 q 178 67 245 0 q 111 282 111 134 l 111 597 q 178 814 111 747 q 392 879 245 881 l 560 879 q 775 812 708 879 q 842 597 842 745 l 842 282 q 775 67 842 134 q 560 0 708 0 l 393 0 m 393 58 l 560 58 q 691 80 642 58 q 761 151 740 102 q 783 282 783 200 l 783 597 q 761 728 783 679 q 691 799 740 777 q 560 821 642 821 l 392 821 q 261 800 310 822 q 191 729 213 778 q 169 597 169 680 l 169 282 q 191 151 169 200 q 262 80 213 102 q 393 58 311 58 z "},"Ȏ":{"ha":953,"x_min":111,"x_max":842,"o":"m 478 1167 q 602 1126 558 1167 q 646 999 646 1085 l 646 996 q 617 967 646 967 q 588 996 588 967 l 588 999 q 562 1083 588 1057 q 476 1110 536 1109 q 392 1083 418 1110 q 365 999 365 1057 l 365 996 q 336 967 365 967 q 307 996 307 967 l 307 999 q 350 1125 307 1082 q 478 1167 394 1168 m 393 0 q 178 67 245 0 q 111 282 111 134 l 111 597 q 178 814 111 747 q 392 879 245 881 l 560 879 q 775 812 708 879 q 842 597 842 745 l 842 282 q 775 67 842 134 q 560 0 708 0 l 393 0 m 393 58 l 560 58 q 691 80 642 58 q 761 151 740 102 q 783 282 783 200 l 783 597 q 761 728 783 679 q 691 799 740 777 q 560 821 642 821 l 392 821 q 261 800 310 822 q 191 729 213 778 q 169 597 169 680 l 169 282 q 191 151 169 200 q 262 80 213 102 q 393 58 311 58 z "},"Ō":{"ha":953,"x_min":111,"x_max":842,"o":"m 393 0 q 178 67 245 0 q 111 282 111 134 l 111 597 q 178 814 111 747 q 392 879 245 881 l 560 879 q 775 812 708 879 q 842 597 842 745 l 842 282 q 775 67 842 134 q 560 0 708 0 l 393 0 m 393 58 l 560 58 q 691 80 642 58 q 761 151 740 102 q 783 282 783 200 l 783 597 q 761 728 783 679 q 691 799 740 777 q 560 821 642 821 l 392 821 q 261 800 310 822 q 191 729 213 778 q 169 597 169 680 l 169 282 q 191 151 169 200 q 262 80 213 102 q 393 58 311 58 m 301 1050 q 272 1079 272 1050 q 301 1108 272 1108 l 653 1108 q 682 1079 682 1108 q 653 1050 682 1050 l 301 1050 z "},"Ǫ":{"ha":953,"x_min":111,"x_max":842,"o":"m 393 0 q 178 67 245 0 q 111 282 111 134 l 111 597 q 178 814 111 747 q 392 879 245 881 l 560 879 q 775 812 708 879 q 842 597 842 745 l 842 282 q 775 67 842 134 q 560 0 708 0 l 393 0 m 393 58 l 560 58 q 691 80 642 58 q 761 151 740 102 q 783 282 783 200 l 783 597 q 761 728 783 679 q 691 799 740 777 q 560 821 642 821 l 392 821 q 261 800 310 822 q 191 729 213 778 q 169 597 169 680 l 169 282 q 191 151 169 200 q 262 80 213 102 q 393 58 311 58 m 600 -236 q 514 -205 549 -236 q 478 -126 478 -173 q 486 -84 478 -106 q 508 -44 494 -63 l 576 44 q 600 56 585 56 q 621 47 613 56 q 629 26 629 39 q 624 8 629 16 l 556 -81 q 536 -126 536 -106 q 554 -163 536 -148 q 600 -178 572 -178 q 642 -168 622 -178 q 682 -139 663 -158 q 691 -133 686 -135 q 703 -131 697 -131 q 724 -139 715 -131 q 732 -160 732 -147 q 724 -181 732 -172 q 600 -236 668 -236 z "},"Ø":{"ha":953,"x_min":111,"x_max":842,"o":"m 393 0 q 178 67 245 0 q 111 282 111 134 l 111 597 q 178 814 111 747 q 392 879 245 881 l 560 879 q 775 812 708 879 q 842 597 842 745 l 842 282 q 775 67 842 134 q 560 0 708 0 l 393 0 m 393 58 l 560 58 q 691 80 642 58 q 761 151 740 102 q 783 282 783 200 l 783 597 q 761 728 783 679 q 691 799 740 777 q 560 821 642 821 l 392 821 q 261 800 310 822 q 191 729 213 778 q 169 597 169 680 l 169 282 q 191 151 169 200 q 262 80 213 102 q 393 58 311 58 m 171 -62 q 161 -22 146 -48 l 749 940 q 789 950 763 965 q 799 910 814 935 l 211 -53 q 171 -62 197 -78 z "},"Ǿ":{"ha":953,"x_min":111,"x_max":842,"o":"m 438 965 q 433 1007 417 984 l 558 1154 q 600 1158 578 1178 q 604 1117 621 1140 l 479 969 q 438 965 460 945 m 393 0 q 178 67 245 0 q 111 282 111 134 l 111 597 q 178 814 111 747 q 392 879 245 881 l 560 879 q 775 812 708 879 q 842 597 842 745 l 842 282 q 775 67 842 134 q 560 0 708 0 l 393 0 m 393 58 l 560 58 q 691 80 642 58 q 761 151 740 102 q 783 282 783 200 l 783 597 q 761 728 783 679 q 691 799 740 777 q 560 821 642 821 l 392 821 q 261 800 310 822 q 191 729 213 778 q 169 597 169 680 l 169 282 q 191 151 169 200 q 262 80 213 102 q 393 58 311 58 m 171 -62 q 161 -22 146 -48 l 749 940 q 789 950 763 965 q 799 910 814 935 l 211 -53 q 171 -62 197 -78 z "},"Õ":{"ha":953,"x_min":111,"x_max":842,"o":"m 393 0 q 178 67 245 0 q 111 282 111 134 l 111 597 q 178 814 111 747 q 392 879 245 881 l 560 879 q 775 812 708 879 q 842 597 842 745 l 842 282 q 775 67 842 134 q 560 0 708 0 l 393 0 m 393 58 l 560 58 q 691 80 642 58 q 761 151 740 102 q 783 282 783 200 l 783 597 q 761 728 783 679 q 691 799 740 777 q 560 821 642 821 l 392 821 q 261 800 310 822 q 191 729 213 778 q 169 597 169 680 l 169 282 q 191 151 169 200 q 262 80 213 102 q 393 58 311 58 m 558 1001 q 498 1019 521 1001 q 460 1051 474 1036 q 431 1077 444 1067 q 394 1086 417 1086 q 356 1074 369 1086 q 331 1022 343 1061 q 320 1007 328 1013 q 303 1001 313 1001 q 277 1016 284 1001 q 275 1040 271 1031 q 322 1120 294 1096 q 394 1144 350 1144 q 461 1126 436 1144 q 501 1092 486 1108 q 532 1066 520 1073 q 558 1060 543 1060 q 598 1075 583 1060 q 624 1124 613 1090 q 633 1139 627 1133 q 653 1144 640 1144 q 676 1131 669 1144 q 679 1107 683 1117 q 632 1029 660 1056 q 558 1001 603 1001 z "},"Ȭ":{"ha":953,"x_min":111,"x_max":842,"o":"m 393 0 q 178 67 245 0 q 111 282 111 134 l 111 597 q 178 814 111 747 q 392 879 245 881 l 560 879 q 775 812 708 879 q 842 597 842 745 l 842 282 q 775 67 842 134 q 560 0 708 0 l 393 0 m 393 58 l 560 58 q 691 80 642 58 q 761 151 740 102 q 783 282 783 200 l 783 597 q 761 728 783 679 q 691 799 740 777 q 560 821 642 821 l 392 821 q 261 800 310 822 q 191 729 213 778 q 169 597 169 680 l 169 282 q 191 151 169 200 q 262 80 213 102 q 393 58 311 58 m 558 1001 q 498 1019 521 1001 q 460 1051 474 1036 q 431 1077 444 1067 q 394 1086 417 1086 q 356 1074 369 1086 q 331 1022 343 1061 q 320 1007 328 1013 q 303 1001 313 1001 q 277 1016 284 1001 q 275 1040 271 1031 q 322 1120 294 1096 q 394 1144 350 1144 q 461 1126 436 1144 q 501 1092 486 1108 q 532 1066 520 1073 q 558 1060 543 1060 q 598 1075 583 1060 q 624 1124 613 1090 q 633 1139 627 1133 q 653 1144 640 1144 q 676 1131 669 1144 q 679 1107 683 1117 q 632 1029 660 1056 q 558 1001 603 1001 m 301 1272 q 272 1301 272 1272 q 301 1331 272 1331 l 653 1331 q 682 1301 682 1331 q 653 1272 682 1272 l 301 1272 z "},"Œ":{"ha":1122,"x_min":111,"x_max":1074,"o":"m 393 0 q 178 67 245 0 q 111 282 111 134 l 111 597 q 178 813 111 747 q 392 879 245 879 l 1044 879 q 1066 872 1059 879 q 1074 850 1074 865 q 1044 821 1074 821 l 643 821 l 643 475 l 881 475 q 910 446 910 475 q 881 417 910 417 l 643 417 l 643 58 l 1044 58 q 1074 29 1074 58 q 1044 0 1074 0 l 393 0 m 393 58 l 585 58 l 585 821 l 392 821 q 261 799 310 821 q 191 729 213 778 q 169 597 169 680 l 169 282 q 191 151 169 200 q 262 80 213 102 q 393 58 311 58 z "},"P":{"ha":754,"x_min":125,"x_max":713,"o":"m 154 0 q 125 29 125 0 l 125 850 q 154 879 125 879 l 479 879 q 654 820 595 879 q 713 646 713 762 l 713 604 q 654 430 713 489 q 479 371 595 371 l 183 371 l 183 29 q 154 0 183 0 m 183 429 l 479 429 q 612 472 570 429 q 654 604 654 514 l 654 646 q 612 779 654 737 q 479 821 570 821 l 183 821 l 183 429 z "},"Ṗ":{"ha":754,"x_min":125,"x_max":713,"o":"m 360 1010 q 319 1053 319 1010 l 319 1081 q 360 1123 319 1123 l 389 1123 q 430 1081 430 1123 l 430 1053 q 389 1010 430 1010 l 360 1010 m 154 0 q 125 29 125 0 l 125 850 q 154 879 125 879 l 479 879 q 654 820 595 879 q 713 646 713 762 l 713 604 q 654 430 713 489 q 479 371 595 371 l 183 371 l 183 29 q 154 0 183 0 m 183 429 l 479 429 q 612 472 570 429 q 654 604 654 514 l 654 646 q 612 779 654 737 q 479 821 570 821 l 183 821 l 183 429 z "},"Þ":{"ha":688,"x_min":125,"x_max":646,"o":"m 154 0 q 125 29 125 0 l 125 850 q 154 879 125 879 q 183 850 183 879 l 183 756 l 413 756 q 587 697 528 756 q 646 522 646 638 l 646 481 q 587 306 646 365 q 413 247 528 247 l 183 247 l 183 29 q 154 0 183 0 m 183 306 l 413 306 q 545 348 503 306 q 588 481 588 390 l 588 522 q 545 655 588 613 q 413 697 503 697 l 183 697 l 183 306 z "},"Q":{"ha":953,"x_min":111,"x_max":842,"o":"m 831 3 q 841 -18 841 -8 q 831 -39 841 -28 q 789 -39 810 -60 l 621 132 q 610 153 610 142 q 621 174 610 163 q 663 174 642 194 l 831 3 m 393 0 q 178 67 245 0 q 111 282 111 134 l 111 597 q 178 814 111 747 q 392 879 245 881 l 560 879 q 775 812 708 879 q 842 597 842 745 l 842 282 q 775 67 842 134 q 560 0 708 0 l 393 0 m 393 58 l 560 58 q 691 80 642 58 q 761 151 740 102 q 783 282 783 200 l 783 597 q 761 728 783 679 q 691 799 740 777 q 560 821 642 821 l 392 821 q 261 800 310 822 q 191 729 213 778 q 169 597 169 680 l 169 282 q 191 151 169 200 q 262 80 213 102 q 393 58 311 58 z "},"R":{"ha":808,"x_min":125,"x_max":756,"o":"m 731 -1 q 708 -6 718 -8 q 690 7 698 -4 l 458 371 l 183 371 l 183 29 q 154 0 183 0 q 125 29 125 0 l 125 850 q 154 879 125 879 l 479 879 q 654 820 595 879 q 713 646 713 762 l 713 604 q 666 443 713 501 q 526 374 619 385 l 739 39 q 731 -1 756 13 m 183 429 l 479 429 q 612 472 570 429 q 654 604 654 514 l 654 646 q 612 779 654 737 q 479 821 570 821 l 183 821 l 183 429 z "},"Ŕ":{"ha":808,"x_min":125,"x_max":756,"o":"m 365 965 q 361 1007 344 984 l 486 1154 q 528 1158 506 1178 q 532 1117 549 1140 l 407 969 q 365 965 388 945 m 731 -1 q 708 -6 718 -8 q 690 7 698 -4 l 458 371 l 183 371 l 183 29 q 154 0 183 0 q 125 29 125 0 l 125 850 q 154 879 125 879 l 479 879 q 654 820 595 879 q 713 646 713 762 l 713 604 q 666 443 713 501 q 526 374 619 385 l 739 39 q 731 -1 756 13 m 183 429 l 479 429 q 612 472 570 429 q 654 604 654 514 l 654 646 q 612 779 654 737 q 479 821 570 821 l 183 821 l 183 429 z "},"Ř":{"ha":808,"x_min":125,"x_max":756,"o":"m 276 1168 q 296 1161 287 1168 l 436 1044 l 453 1044 l 593 1161 q 613 1168 602 1168 q 633 1160 625 1168 q 642 1139 642 1151 q 631 1117 642 1126 l 490 999 q 454 986 474 986 l 435 986 q 399 999 415 986 l 258 1117 q 247 1139 247 1126 q 256 1160 247 1151 q 276 1168 264 1168 m 731 -1 q 708 -6 718 -8 q 690 7 698 -4 l 458 371 l 183 371 l 183 29 q 154 0 183 0 q 125 29 125 0 l 125 850 q 154 879 125 879 l 479 879 q 654 820 595 879 q 713 646 713 762 l 713 604 q 666 443 713 501 q 526 374 619 385 l 739 39 q 731 -1 756 13 m 183 429 l 479 429 q 612 472 570 429 q 654 604 654 514 l 654 646 q 612 779 654 737 q 479 821 570 821 l 183 821 l 183 429 z "},"Ŗ":{"ha":808,"x_min":125,"x_max":756,"o":"m 386 -268 q 369 -261 376 -268 q 363 -242 361 -253 l 388 -94 q 415 -68 390 -68 l 434 -68 q 462 -99 462 -68 l 462 -112 q 461 -131 462 -126 q 458 -139 460 -135 l 408 -250 q 386 -268 401 -268 m 731 -1 q 708 -6 718 -8 q 690 7 698 -4 l 458 371 l 183 371 l 183 29 q 154 0 183 0 q 125 29 125 0 l 125 850 q 154 879 125 879 l 479 879 q 654 820 595 879 q 713 646 713 762 l 713 604 q 666 443 713 501 q 526 374 619 385 l 739 39 q 731 -1 756 13 m 183 429 l 479 429 q 612 472 570 429 q 654 604 654 514 l 654 646 q 612 779 654 737 q 479 821 570 821 l 183 821 l 183 429 z "},"Ȑ":{"ha":808,"x_min":125,"x_max":756,"o":"m 340 977 q 302 981 319 960 l 190 1114 q 193 1151 174 1134 q 231 1147 213 1169 l 343 1015 q 340 977 358 994 m 492 977 q 455 981 472 960 l 342 1114 q 346 1151 327 1134 q 383 1147 366 1169 l 496 1015 q 492 977 511 994 m 731 -1 q 708 -6 718 -8 q 690 7 698 -4 l 458 371 l 183 371 l 183 29 q 154 0 183 0 q 125 29 125 0 l 125 850 q 154 879 125 879 l 479 879 q 654 820 595 879 q 713 646 713 762 l 713 604 q 666 443 713 501 q 526 374 619 385 l 739 39 q 731 -1 756 13 m 183 429 l 479 429 q 612 472 570 429 q 654 604 654 514 l 654 646 q 612 779 654 737 q 479 821 570 821 l 183 821 l 183 429 z "},"Ȓ":{"ha":808,"x_min":125,"x_max":756,"o":"m 406 1167 q 530 1126 486 1167 q 574 999 574 1085 l 574 996 q 544 967 574 967 q 515 996 515 967 l 515 999 q 490 1083 515 1057 q 404 1110 464 1109 q 319 1083 346 1110 q 293 999 293 1057 l 293 996 q 264 967 293 967 q 235 996 235 967 l 235 999 q 278 1125 235 1082 q 406 1167 322 1168 m 731 -1 q 708 -6 718 -8 q 690 7 698 -4 l 458 371 l 183 371 l 183 29 q 154 0 183 0 q 125 29 125 0 l 125 850 q 154 879 125 879 l 479 879 q 654 820 595 879 q 713 646 713 762 l 713 604 q 666 443 713 501 q 526 374 619 385 l 739 39 q 731 -1 756 13 m 183 429 l 479 429 q 612 472 570 429 q 654 604 654 514 l 654 646 q 612 779 654 737 q 479 821 570 821 l 183 821 l 183 429 z "},"S":{"ha":906,"x_min":111,"x_max":794,"o":"m 353 1 q 169 59 227 1 q 111 242 111 117 q 119 263 111 254 q 140 271 128 271 q 161 263 153 271 q 169 242 169 254 q 210 100 169 141 q 353 60 251 60 l 553 60 q 695 100 655 60 q 736 242 736 141 q 695 383 736 343 q 553 424 655 424 l 357 424 q 183 478 238 424 q 128 651 128 533 q 182 825 128 770 q 356 879 237 879 l 560 879 q 733 825 678 879 q 788 653 788 771 q 779 632 788 640 q 758 624 771 624 q 738 632 746 624 q 729 653 729 640 q 691 783 729 746 q 560 821 653 821 l 356 821 q 224 783 262 821 q 186 651 186 745 q 224 520 186 558 q 357 482 263 482 l 553 482 q 737 424 679 482 q 794 242 794 367 q 737 59 794 117 q 553 1 679 1 l 353 1 z "},"Ś":{"ha":906,"x_min":111,"x_max":794,"o":"m 414 965 q 410 1007 393 984 l 535 1154 q 576 1158 554 1178 q 581 1117 597 1140 l 456 969 q 414 965 436 945 m 353 1 q 169 59 227 1 q 111 242 111 117 q 119 263 111 254 q 140 271 128 271 q 161 263 153 271 q 169 242 169 254 q 210 100 169 141 q 353 60 251 60 l 553 60 q 695 100 655 60 q 736 242 736 141 q 695 383 736 343 q 553 424 655 424 l 357 424 q 183 478 238 424 q 128 651 128 533 q 182 825 128 770 q 356 879 237 879 l 560 879 q 733 825 678 879 q 788 653 788 771 q 779 632 788 640 q 758 624 771 624 q 738 632 746 624 q 729 653 729 640 q 691 783 729 746 q 560 821 653 821 l 356 821 q 224 783 262 821 q 186 651 186 745 q 224 520 186 558 q 357 482 263 482 l 553 482 q 737 424 679 482 q 794 242 794 367 q 737 59 794 117 q 553 1 679 1 l 353 1 z "},"Š":{"ha":906,"x_min":111,"x_max":794,"o":"m 325 1168 q 344 1161 335 1168 l 485 1044 l 501 1044 l 642 1161 q 661 1168 651 1168 q 682 1160 674 1168 q 690 1139 690 1151 q 679 1117 690 1126 l 539 999 q 503 986 522 986 l 483 986 q 447 999 464 986 l 307 1117 q 296 1139 296 1126 q 304 1160 296 1151 q 325 1168 313 1168 m 353 1 q 169 59 227 1 q 111 242 111 117 q 119 263 111 254 q 140 271 128 271 q 161 263 153 271 q 169 242 169 254 q 210 100 169 141 q 353 60 251 60 l 553 60 q 695 100 655 60 q 736 242 736 141 q 695 383 736 343 q 553 424 655 424 l 357 424 q 183 478 238 424 q 128 651 128 533 q 182 825 128 770 q 356 879 237 879 l 560 879 q 733 825 678 879 q 788 653 788 771 q 779 632 788 640 q 758 624 771 624 q 738 632 746 624 q 729 653 729 640 q 691 783 729 746 q 560 821 653 821 l 356 821 q 224 783 262 821 q 186 651 186 745 q 224 520 186 558 q 357 482 263 482 l 553 482 q 737 424 679 482 q 794 242 794 367 q 737 59 794 117 q 553 1 679 1 l 353 1 z "},"Ş":{"ha":906,"x_min":111,"x_max":794,"o":"m 353 1 q 169 59 227 1 q 111 242 111 117 q 119 263 111 254 q 140 271 128 271 q 161 263 153 271 q 169 242 169 254 q 210 100 169 141 q 353 60 251 60 l 553 60 q 695 100 655 60 q 736 242 736 141 q 695 383 736 343 q 553 424 655 424 l 357 424 q 183 478 238 424 q 128 651 128 533 q 182 825 128 770 q 356 879 237 879 l 560 879 q 733 825 678 879 q 788 653 788 771 q 779 632 788 640 q 758 624 771 624 q 738 632 746 624 q 729 653 729 640 q 691 783 729 746 q 560 821 653 821 l 356 821 q 224 783 262 821 q 186 651 186 745 q 224 520 186 558 q 357 482 263 482 l 553 482 q 737 424 679 482 q 794 242 794 367 q 737 59 794 117 q 553 1 679 1 l 353 1 m 468 -278 q 353 -162 353 -278 q 382 -133 353 -133 q 411 -162 411 -133 q 423 -208 411 -196 q 468 -219 435 -219 q 535 -201 517 -219 q 553 -135 553 -183 q 546 -109 553 -119 q 517 -85 539 -100 q 488 -63 503 -76 q 462 -30 473 -50 q 451 21 451 -10 q 481 50 451 50 q 510 21 510 50 q 517 -9 510 2 q 549 -36 525 -20 q 589 -70 567 -49 q 611 -135 611 -92 q 577 -243 611 -208 q 468 -278 542 -278 z "},"Ŝ":{"ha":906,"x_min":111,"x_max":794,"o":"m 353 1 q 169 59 227 1 q 111 242 111 117 q 119 263 111 254 q 140 271 128 271 q 161 263 153 271 q 169 242 169 254 q 210 100 169 141 q 353 60 251 60 l 553 60 q 695 100 655 60 q 736 242 736 141 q 695 383 736 343 q 553 424 655 424 l 357 424 q 183 478 238 424 q 128 651 128 533 q 182 825 128 770 q 356 879 237 879 l 560 879 q 733 825 678 879 q 788 653 788 771 q 779 632 788 640 q 758 624 771 624 q 738 632 746 624 q 729 653 729 640 q 691 783 729 746 q 560 821 653 821 l 356 821 q 224 783 262 821 q 186 651 186 745 q 224 520 186 558 q 357 482 263 482 l 553 482 q 737 424 679 482 q 794 242 794 367 q 737 59 794 117 q 553 1 679 1 l 353 1 m 324 958 q 303 967 311 958 q 294 988 294 975 q 296 997 294 993 q 300 1006 298 1001 l 408 1150 q 443 1168 422 1168 l 468 1168 q 503 1150 489 1168 l 611 1006 q 615 997 613 1001 q 617 988 617 993 q 608 967 617 975 q 588 958 600 958 q 564 971 572 958 l 460 1110 l 451 1110 l 347 971 q 324 958 339 958 z "},"Ș":{"ha":906,"x_min":111,"x_max":794,"o":"m 435 -268 q 417 -261 425 -268 q 411 -242 410 -253 l 436 -94 q 464 -68 438 -68 l 483 -68 q 510 -99 510 -68 l 510 -112 q 509 -131 510 -126 q 507 -139 508 -135 l 457 -250 q 435 -268 449 -268 m 353 1 q 169 59 227 1 q 111 242 111 117 q 119 263 111 254 q 140 271 128 271 q 161 263 153 271 q 169 242 169 254 q 210 100 169 141 q 353 60 251 60 l 553 60 q 695 100 655 60 q 736 242 736 141 q 695 383 736 343 q 553 424 655 424 l 357 424 q 183 478 238 424 q 128 651 128 533 q 182 825 128 770 q 356 879 237 879 l 560 879 q 733 825 678 879 q 788 653 788 771 q 779 632 788 640 q 758 624 771 624 q 738 632 746 624 q 729 653 729 640 q 691 783 729 746 q 560 821 653 821 l 356 821 q 224 783 262 821 q 186 651 186 745 q 224 520 186 558 q 357 482 263 482 l 553 482 q 737 424 679 482 q 794 242 794 367 q 737 59 794 117 q 553 1 679 1 l 353 1 z "},"Ṡ":{"ha":906,"x_min":111,"x_max":794,"o":"m 438 1010 q 397 1053 397 1010 l 397 1081 q 438 1123 397 1123 l 467 1123 q 508 1081 508 1123 l 508 1053 q 467 1010 508 1010 l 438 1010 m 353 1 q 169 59 227 1 q 111 242 111 117 q 119 263 111 254 q 140 271 128 271 q 161 263 153 271 q 169 242 169 254 q 210 100 169 141 q 353 60 251 60 l 553 60 q 695 100 655 60 q 736 242 736 141 q 695 383 736 343 q 553 424 655 424 l 357 424 q 183 478 238 424 q 128 651 128 533 q 182 825 128 770 q 356 879 237 879 l 560 879 q 733 825 678 879 q 788 653 788 771 q 779 632 788 640 q 758 624 771 624 q 738 632 746 624 q 729 653 729 640 q 691 783 729 746 q 560 821 653 821 l 356 821 q 224 783 262 821 q 186 651 186 745 q 224 520 186 558 q 357 482 263 482 l 553 482 q 737 424 679 482 q 794 242 794 367 q 737 59 794 117 q 553 1 679 1 l 353 1 z "},"ẞ":{"ha":768,"x_min":125,"x_max":657,"o":"m 154 0 q 132 7 140 0 q 125 29 125 15 l 125 667 q 180 840 125 785 q 353 894 234 894 l 364 894 q 533 842 478 894 q 590 678 588 790 q 587 658 590 667 q 576 642 584 650 l 476 532 q 614 388 572 463 q 657 222 657 314 q 604 53 657 107 q 435 0 551 0 l 338 0 q 316 7 323 0 q 308 29 308 15 q 316 51 308 44 q 338 58 323 58 l 435 58 q 562 95 526 58 q 599 222 599 132 q 557 371 599 306 q 417 503 516 436 l 417 553 l 532 679 q 492 801 530 766 q 364 836 455 836 l 353 836 q 221 798 259 836 q 183 667 183 760 l 183 29 q 176 7 183 15 q 154 0 169 0 z "},"Ə":{"ha":953,"x_min":111,"x_max":842,"o":"m 393 1 q 178 68 245 1 q 111 283 111 135 l 111 400 l 783 400 l 783 597 q 761 728 783 679 q 691 799 740 777 q 560 821 642 821 l 393 821 q 262 799 311 821 q 191 728 213 777 q 169 597 169 679 q 161 576 169 585 q 140 568 153 568 q 119 576 128 568 q 111 597 111 585 q 178 812 111 745 q 393 879 245 879 l 560 879 q 775 812 708 879 q 842 597 842 745 l 842 283 q 775 68 842 135 q 560 1 708 1 l 393 1 m 393 60 l 560 60 q 691 82 642 60 q 761 152 740 103 q 783 283 783 201 l 783 342 l 169 342 l 169 283 q 191 152 169 201 q 262 82 213 103 q 393 60 311 60 z "},"T":{"ha":767,"x_min":21,"x_max":746,"o":"m 383 -1 q 363 7 371 -1 q 354 28 354 15 l 354 822 l 50 822 q 29 831 38 822 q 21 851 21 839 q 29 872 21 864 q 50 881 38 881 l 717 881 q 738 872 729 881 q 746 851 746 864 q 738 831 746 839 q 717 822 729 822 l 413 822 l 413 28 q 404 7 413 15 q 383 -1 396 -1 z "},"Ŧ":{"ha":767,"x_min":21,"x_max":746,"o":"m 383 -1 q 363 7 371 -1 q 354 28 354 15 l 354 822 l 50 822 q 29 831 38 822 q 21 851 21 839 q 29 872 21 864 q 50 881 38 881 l 717 881 q 738 872 729 881 q 746 851 746 864 q 738 831 746 839 q 717 822 729 822 l 413 822 l 413 28 q 404 7 413 15 q 383 -1 396 -1 m 203 411 q 174 440 174 411 q 203 469 174 469 l 561 469 q 590 440 590 469 q 561 411 590 411 l 203 411 z "},"Ť":{"ha":767,"x_min":21,"x_max":746,"o":"m 256 1168 q 275 1161 266 1168 l 415 1044 l 432 1044 l 572 1161 q 592 1168 581 1168 q 613 1160 604 1168 q 621 1139 621 1151 q 610 1117 621 1126 l 469 999 q 433 986 453 986 l 414 986 q 378 999 394 986 l 238 1117 q 226 1139 226 1126 q 235 1160 226 1151 q 256 1168 243 1168 m 383 -1 q 363 7 371 -1 q 354 28 354 15 l 354 822 l 50 822 q 29 831 38 822 q 21 851 21 839 q 29 872 21 864 q 50 881 38 881 l 717 881 q 738 872 729 881 q 746 851 746 864 q 738 831 746 839 q 717 822 729 822 l 413 822 l 413 28 q 404 7 413 15 q 383 -1 396 -1 z "},"Ţ":{"ha":767,"x_min":21,"x_max":746,"o":"m 383 -1 q 363 7 371 -1 q 354 28 354 15 l 354 822 l 50 822 q 29 831 38 822 q 21 851 21 839 q 29 872 21 864 q 50 881 38 881 l 717 881 q 738 872 729 881 q 746 851 746 864 q 738 831 746 839 q 717 822 729 822 l 413 822 l 413 28 q 404 7 413 15 q 383 -1 396 -1 m 371 -278 q 256 -162 256 -278 q 285 -133 256 -133 q 314 -162 314 -133 q 326 -208 314 -196 q 371 -219 338 -219 q 438 -201 420 -219 q 456 -135 456 -183 q 449 -109 456 -119 q 419 -85 442 -100 q 391 -63 406 -76 q 365 -30 376 -50 q 354 21 354 -10 q 383 50 354 50 q 413 21 413 50 q 420 -9 413 2 q 451 -36 428 -20 q 492 -70 470 -49 q 514 -135 514 -92 q 480 -243 514 -208 q 371 -278 445 -278 z "},"Ț":{"ha":767,"x_min":21,"x_max":746,"o":"m 338 -268 q 320 -261 328 -268 q 314 -242 313 -253 l 339 -94 q 367 -68 341 -68 l 385 -68 q 413 -99 413 -68 l 413 -112 q 412 -131 413 -126 q 410 -139 411 -135 l 360 -250 q 338 -268 352 -268 m 383 -1 q 363 7 371 -1 q 354 28 354 15 l 354 822 l 50 822 q 29 831 38 822 q 21 851 21 839 q 29 872 21 864 q 50 881 38 881 l 717 881 q 738 872 729 881 q 746 851 746 864 q 738 831 746 839 q 717 822 729 822 l 413 822 l 413 28 q 404 7 413 15 q 383 -1 396 -1 z "},"Ṫ":{"ha":767,"x_min":21,"x_max":746,"o":"m 369 1010 q 327 1053 327 1010 l 327 1081 q 369 1123 327 1123 l 397 1123 q 438 1081 438 1123 l 438 1053 q 397 1010 438 1010 l 369 1010 m 383 -1 q 363 7 371 -1 q 354 28 354 15 l 354 822 l 50 822 q 29 831 38 822 q 21 851 21 839 q 29 872 21 864 q 50 881 38 881 l 717 881 q 738 872 729 881 q 746 851 746 864 q 738 831 746 839 q 717 822 729 822 l 413 822 l 413 28 q 404 7 413 15 q 383 -1 396 -1 z "},"U":{"ha":967,"x_min":118,"x_max":849,"o":"m 400 0 q 185 67 252 0 q 118 282 118 134 l 118 850 q 126 871 118 863 q 147 879 135 879 q 168 871 160 879 q 176 850 176 863 l 176 282 q 198 151 176 200 q 269 80 220 102 q 400 58 318 58 l 567 58 q 698 80 649 58 q 768 151 747 102 q 790 282 790 200 l 790 850 q 799 871 790 863 q 819 879 807 879 q 840 871 832 879 q 849 850 849 863 l 849 282 q 782 67 849 134 q 567 0 715 0 l 400 0 z "},"Ú":{"ha":967,"x_min":118,"x_max":849,"o":"m 444 965 q 440 1007 424 984 l 565 1154 q 607 1158 585 1178 q 611 1117 628 1140 l 486 969 q 444 965 467 945 m 400 0 q 185 67 252 0 q 118 282 118 134 l 118 850 q 126 871 118 863 q 147 879 135 879 q 168 871 160 879 q 176 850 176 863 l 176 282 q 198 151 176 200 q 269 80 220 102 q 400 58 318 58 l 567 58 q 698 80 649 58 q 768 151 747 102 q 790 282 790 200 l 790 850 q 799 871 790 863 q 819 879 807 879 q 840 871 832 879 q 849 850 849 863 l 849 282 q 782 67 849 134 q 567 0 715 0 l 400 0 z "},"Ŭ":{"ha":967,"x_min":118,"x_max":849,"o":"m 400 0 q 185 67 252 0 q 118 282 118 134 l 118 850 q 126 871 118 863 q 147 879 135 879 q 168 871 160 879 q 176 850 176 863 l 176 282 q 198 151 176 200 q 269 80 220 102 q 400 58 318 58 l 567 58 q 698 80 649 58 q 768 151 747 102 q 790 282 790 200 l 790 850 q 799 871 790 863 q 819 879 807 879 q 840 871 832 879 q 849 850 849 863 l 849 282 q 782 67 849 134 q 567 0 715 0 l 400 0 m 485 960 q 357 1002 401 959 q 314 1128 314 1044 l 314 1131 q 343 1160 314 1160 q 372 1131 372 1160 l 372 1128 q 399 1043 372 1069 q 483 1017 425 1017 q 569 1044 543 1018 q 594 1128 594 1069 l 594 1131 q 624 1160 594 1160 q 653 1131 653 1160 l 653 1128 q 609 1001 653 1042 q 485 960 565 960 z "},"Û":{"ha":967,"x_min":118,"x_max":849,"o":"m 400 0 q 185 67 252 0 q 118 282 118 134 l 118 850 q 126 871 118 863 q 147 879 135 879 q 168 871 160 879 q 176 850 176 863 l 176 282 q 198 151 176 200 q 269 80 220 102 q 400 58 318 58 l 567 58 q 698 80 649 58 q 768 151 747 102 q 790 282 790 200 l 790 850 q 799 871 790 863 q 819 879 807 879 q 840 871 832 879 q 849 850 849 863 l 849 282 q 782 67 849 134 q 567 0 715 0 l 400 0 m 313 969 q 292 978 300 969 q 283 999 283 986 q 294 1021 283 1012 l 435 1139 q 471 1151 451 1151 l 490 1151 q 526 1139 510 1151 l 667 1021 q 678 999 678 1012 q 669 978 678 986 q 649 969 661 969 q 629 976 638 969 l 489 1093 l 472 1093 l 332 976 q 313 969 323 969 z "},"Ȕ":{"ha":967,"x_min":118,"x_max":849,"o":"m 419 977 q 381 981 399 960 l 269 1114 q 272 1151 253 1134 q 310 1147 292 1169 l 422 1015 q 419 977 438 994 m 572 977 q 534 981 551 960 l 422 1114 q 425 1151 406 1134 q 463 1147 445 1169 l 575 1015 q 572 977 590 994 m 400 0 q 185 67 252 0 q 118 282 118 134 l 118 850 q 126 871 118 863 q 147 879 135 879 q 168 871 160 879 q 176 850 176 863 l 176 282 q 198 151 176 200 q 269 80 220 102 q 400 58 318 58 l 567 58 q 698 80 649 58 q 768 151 747 102 q 790 282 790 200 l 790 850 q 799 871 790 863 q 819 879 807 879 q 840 871 832 879 q 849 850 849 863 l 849 282 q 782 67 849 134 q 567 0 715 0 l 400 0 z "},"Ü":{"ha":967,"x_min":118,"x_max":849,"o":"m 400 0 q 185 67 252 0 q 118 282 118 134 l 118 850 q 126 871 118 863 q 147 879 135 879 q 168 871 160 879 q 176 850 176 863 l 176 282 q 198 151 176 200 q 269 80 220 102 q 400 58 318 58 l 567 58 q 698 80 649 58 q 768 151 747 102 q 790 282 790 200 l 790 850 q 799 871 790 863 q 819 879 807 879 q 840 871 832 879 q 849 850 849 863 l 849 282 q 782 67 849 134 q 567 0 715 0 l 400 0 m 372 1001 q 338 1038 338 1001 l 338 1061 q 372 1096 338 1096 l 396 1096 q 431 1061 431 1096 l 431 1038 q 396 1001 431 1001 l 372 1001 m 571 1001 q 536 1038 536 1001 l 536 1061 q 571 1096 536 1096 l 594 1096 q 629 1061 629 1096 l 629 1038 q 594 1001 629 1001 l 571 1001 z "},"Ụ":{"ha":967,"x_min":118,"x_max":849,"o":"m 400 0 q 185 67 252 0 q 118 282 118 134 l 118 850 q 126 871 118 863 q 147 879 135 879 q 168 871 160 879 q 176 850 176 863 l 176 282 q 198 151 176 200 q 269 80 220 102 q 400 58 318 58 l 567 58 q 698 80 649 58 q 768 151 747 102 q 790 282 790 200 l 790 850 q 799 871 790 863 q 819 879 807 879 q 840 871 832 879 q 849 850 849 863 l 849 282 q 782 67 849 134 q 567 0 715 0 l 400 0 m 471 -208 q 436 -172 436 -208 l 436 -149 q 471 -114 436 -114 l 494 -114 q 529 -149 529 -114 l 529 -172 q 494 -208 529 -208 l 471 -208 z "},"Ù":{"ha":967,"x_min":118,"x_max":849,"o":"m 400 0 q 185 67 252 0 q 118 282 118 134 l 118 850 q 126 871 118 863 q 147 879 135 879 q 168 871 160 879 q 176 850 176 863 l 176 282 q 198 151 176 200 q 269 80 220 102 q 400 58 318 58 l 567 58 q 698 80 649 58 q 768 151 747 102 q 790 282 790 200 l 790 850 q 799 871 790 863 q 819 879 807 879 q 840 871 832 879 q 849 850 849 863 l 849 282 q 782 67 849 134 q 567 0 715 0 l 400 0 m 522 965 q 481 969 500 945 l 356 1117 q 360 1158 339 1140 q 401 1154 382 1178 l 526 1007 q 522 965 543 984 z "},"Ủ":{"ha":967,"x_min":118,"x_max":849,"o":"m 400 0 q 185 67 252 0 q 118 282 118 134 l 118 850 q 126 871 118 863 q 147 879 135 879 q 168 871 160 879 q 176 850 176 863 l 176 282 q 198 151 176 200 q 269 80 220 102 q 400 58 318 58 l 567 58 q 698 80 649 58 q 768 151 747 102 q 790 282 790 200 l 790 850 q 799 871 790 863 q 819 879 807 879 q 840 871 832 879 q 849 850 849 863 l 849 282 q 782 67 849 134 q 567 0 715 0 l 400 0 m 483 958 q 461 966 469 958 q 454 988 454 973 q 477 1053 454 1031 q 519 1086 501 1075 q 549 1108 542 1100 q 556 1129 556 1116 q 544 1174 556 1163 q 499 1186 532 1186 q 453 1174 465 1186 q 442 1129 442 1163 q 434 1107 442 1115 q 413 1100 427 1100 q 391 1107 398 1100 q 383 1129 383 1115 q 499 1244 383 1244 q 614 1129 614 1244 q 591 1068 614 1089 q 550 1036 569 1048 q 520 1013 527 1022 q 513 988 513 1003 q 505 966 513 973 q 483 958 498 958 z "},"Ư":{"ha":967,"x_min":118,"x_max":968,"o":"m 400 0 q 185 67 252 0 q 118 282 118 134 l 118 850 q 126 871 118 863 q 147 879 135 879 q 168 871 160 879 q 176 850 176 863 l 176 282 q 198 151 176 200 q 269 80 220 102 q 400 58 318 58 l 567 58 q 698 80 649 58 q 768 151 747 102 q 790 282 790 200 l 790 850 q 799 871 790 863 q 819 879 807 879 q 840 871 832 879 q 849 850 849 863 l 849 282 q 782 67 849 134 q 567 0 715 0 l 400 0 m 819 821 l 819 879 q 891 895 872 879 q 910 950 910 910 l 910 981 q 939 1010 910 1010 q 968 981 968 1010 l 968 950 q 952 877 968 906 q 902 835 935 849 q 819 821 869 821 z "},"Ứ":{"ha":967,"x_min":118,"x_max":968,"o":"m 444 965 q 440 1007 424 984 l 565 1154 q 607 1158 585 1178 q 611 1117 628 1140 l 486 969 q 444 965 467 945 m 400 0 q 185 67 252 0 q 118 282 118 134 l 118 850 q 126 871 118 863 q 147 879 135 879 q 168 871 160 879 q 176 850 176 863 l 176 282 q 198 151 176 200 q 269 80 220 102 q 400 58 318 58 l 567 58 q 698 80 649 58 q 768 151 747 102 q 790 282 790 200 l 790 850 q 799 871 790 863 q 819 879 807 879 q 840 871 832 879 q 849 850 849 863 l 849 282 q 782 67 849 134 q 567 0 715 0 l 400 0 m 819 821 l 819 879 q 891 895 872 879 q 910 950 910 910 l 910 981 q 939 1010 910 1010 q 968 981 968 1010 l 968 950 q 952 878 968 906 q 902 835 935 849 q 819 821 869 821 z "},"Ự":{"ha":967,"x_min":118,"x_max":968,"o":"m 400 0 q 185 67 252 0 q 118 282 118 134 l 118 850 q 126 871 118 863 q 147 879 135 879 q 168 871 160 879 q 176 850 176 863 l 176 282 q 198 151 176 200 q 269 80 220 102 q 400 58 318 58 l 567 58 q 698 80 649 58 q 768 151 747 102 q 790 282 790 200 l 790 850 q 799 871 790 863 q 819 879 807 879 q 840 871 832 879 q 849 850 849 863 l 849 282 q 782 67 849 134 q 567 0 715 0 l 400 0 m 819 821 l 819 879 q 891 895 872 879 q 910 950 910 910 l 910 981 q 939 1010 910 1010 q 968 981 968 1010 l 968 950 q 952 877 968 906 q 902 835 935 849 q 819 821 869 821 m 471 -208 q 436 -172 436 -208 l 436 -149 q 471 -114 436 -114 l 494 -114 q 529 -149 529 -114 l 529 -172 q 494 -208 529 -208 l 471 -208 z "},"Ừ":{"ha":967,"x_min":118,"x_max":968,"o":"m 400 0 q 185 67 252 0 q 118 282 118 134 l 118 850 q 126 871 118 863 q 147 879 135 879 q 168 871 160 879 q 176 850 176 863 l 176 282 q 198 151 176 200 q 269 80 220 102 q 400 58 318 58 l 567 58 q 698 80 649 58 q 768 151 747 102 q 790 282 790 200 l 790 850 q 799 871 790 863 q 819 879 807 879 q 840 871 832 879 q 849 850 849 863 l 849 282 q 782 67 849 134 q 567 0 715 0 l 400 0 m 819 821 l 819 879 q 891 895 872 879 q 910 950 910 910 l 910 981 q 939 1010 910 1010 q 968 981 968 1010 l 968 950 q 952 877 968 906 q 902 835 935 849 q 819 821 869 821 m 522 965 q 481 969 500 945 l 356 1117 q 360 1158 339 1140 q 401 1154 382 1178 l 526 1007 q 522 965 543 984 z "},"Ử":{"ha":967,"x_min":118,"x_max":968,"o":"m 400 0 q 185 67 252 0 q 118 282 118 134 l 118 850 q 126 871 118 863 q 147 879 135 879 q 168 871 160 879 q 176 850 176 863 l 176 282 q 198 151 176 200 q 269 80 220 102 q 400 58 318 58 l 567 58 q 698 80 649 58 q 768 151 747 102 q 790 282 790 200 l 790 850 q 799 871 790 863 q 819 879 807 879 q 840 871 832 879 q 849 850 849 863 l 849 282 q 782 67 849 134 q 567 0 715 0 l 400 0 m 819 821 l 819 879 q 891 895 872 879 q 910 950 910 910 l 910 981 q 939 1010 910 1010 q 968 981 968 1010 l 968 950 q 952 877 968 906 q 902 835 935 849 q 819 821 869 821 m 483 958 q 461 966 469 958 q 454 988 454 973 q 477 1053 454 1031 q 519 1086 501 1075 q 549 1108 542 1100 q 556 1129 556 1116 q 544 1174 556 1163 q 499 1186 532 1186 q 453 1174 465 1186 q 442 1129 442 1163 q 434 1107 442 1115 q 413 1100 427 1100 q 391 1107 398 1100 q 383 1129 383 1115 q 499 1244 383 1244 q 614 1129 614 1244 q 591 1068 614 1089 q 550 1036 569 1048 q 520 1013 527 1022 q 513 988 513 1003 q 505 966 513 973 q 483 958 498 958 z "},"Ữ":{"ha":967,"x_min":118,"x_max":968,"o":"m 400 0 q 185 67 252 0 q 118 282 118 134 l 118 850 q 126 871 118 863 q 147 879 135 879 q 168 871 160 879 q 176 850 176 863 l 176 282 q 198 151 176 200 q 269 80 220 102 q 400 58 318 58 l 567 58 q 698 80 649 58 q 768 151 747 102 q 790 282 790 200 l 790 850 q 799 871 790 863 q 819 879 807 879 q 840 871 832 879 q 849 850 849 863 l 849 282 q 782 67 849 134 q 567 0 715 0 l 400 0 m 819 821 l 819 879 q 891 895 872 879 q 910 950 910 910 l 910 981 q 939 1010 910 1010 q 968 981 968 1010 l 968 950 q 952 877 968 906 q 902 835 935 849 q 819 821 869 821 m 565 1001 q 505 1019 528 1001 q 467 1051 481 1036 q 438 1077 451 1067 q 401 1086 424 1086 q 363 1074 376 1086 q 338 1022 350 1061 q 327 1007 335 1013 q 310 1001 319 1001 q 284 1016 291 1001 q 282 1040 278 1031 q 329 1120 301 1096 q 401 1144 357 1144 q 468 1126 443 1144 q 508 1092 493 1108 q 539 1066 527 1073 q 565 1060 550 1060 q 605 1075 590 1060 q 631 1124 620 1090 q 640 1139 634 1133 q 660 1144 647 1144 q 683 1131 676 1144 q 686 1107 690 1117 q 639 1029 667 1056 q 565 1001 610 1001 z "},"Ű":{"ha":967,"x_min":118,"x_max":849,"o":"m 388 965 q 383 1007 367 984 l 508 1154 q 550 1158 528 1178 q 554 1117 571 1140 l 429 969 q 388 965 410 945 m 526 965 q 522 1007 506 984 l 647 1154 q 689 1158 667 1178 q 693 1117 710 1140 l 568 969 q 526 965 549 945 m 400 0 q 185 67 252 0 q 118 282 118 134 l 118 850 q 126 871 118 863 q 147 879 135 879 q 168 871 160 879 q 176 850 176 863 l 176 282 q 198 151 176 200 q 269 80 220 102 q 400 58 318 58 l 567 58 q 698 80 649 58 q 768 151 747 102 q 790 282 790 200 l 790 850 q 799 871 790 863 q 819 879 807 879 q 840 871 832 879 q 849 850 849 863 l 849 282 q 782 67 849 134 q 567 0 715 0 l 400 0 z "},"Ȗ":{"ha":967,"x_min":118,"x_max":849,"o":"m 485 1167 q 609 1126 565 1167 q 653 999 653 1085 l 653 996 q 624 967 653 967 q 594 996 594 967 l 594 999 q 569 1083 594 1057 q 483 1110 543 1109 q 399 1083 425 1110 q 372 999 372 1057 l 372 996 q 343 967 372 967 q 314 996 314 967 l 314 999 q 357 1125 314 1082 q 485 1167 401 1168 m 400 0 q 185 67 252 0 q 118 282 118 134 l 118 850 q 126 871 118 863 q 147 879 135 879 q 168 871 160 879 q 176 850 176 863 l 176 282 q 198 151 176 200 q 269 80 220 102 q 400 58 318 58 l 567 58 q 698 80 649 58 q 768 151 747 102 q 790 282 790 200 l 790 850 q 799 871 790 863 q 819 879 807 879 q 840 871 832 879 q 849 850 849 863 l 849 282 q 782 67 849 134 q 567 0 715 0 l 400 0 z "},"Ū":{"ha":967,"x_min":118,"x_max":849,"o":"m 400 0 q 185 67 252 0 q 118 282 118 134 l 118 850 q 126 871 118 863 q 147 879 135 879 q 168 871 160 879 q 176 850 176 863 l 176 282 q 198 151 176 200 q 269 80 220 102 q 400 58 318 58 l 567 58 q 698 80 649 58 q 768 151 747 102 q 790 282 790 200 l 790 850 q 799 871 790 863 q 819 879 807 879 q 840 871 832 879 q 849 850 849 863 l 849 282 q 782 67 849 134 q 567 0 715 0 l 400 0 m 308 1050 q 279 1079 279 1050 q 308 1108 279 1108 l 660 1108 q 689 1079 689 1108 q 660 1050 689 1050 l 308 1050 z "},"Ų":{"ha":981,"x_min":118,"x_max":853,"o":"m 400 0 q 185 67 252 0 q 118 282 118 134 l 118 850 q 126 871 118 863 q 147 879 135 879 q 168 871 160 879 q 176 850 176 863 l 176 282 q 198 151 176 200 q 269 80 220 102 q 400 58 318 58 l 567 58 q 698 80 649 58 q 768 151 747 102 q 790 282 790 200 l 790 850 q 799 871 790 863 q 819 879 807 879 q 840 871 832 879 q 849 850 849 863 l 849 282 q 782 67 849 134 q 567 0 715 0 l 400 0 m 721 -236 q 634 -205 670 -236 q 599 -126 599 -173 q 629 -44 599 -85 l 740 103 q 751 111 744 108 q 764 114 757 114 q 785 106 776 114 q 793 85 793 97 q 788 67 793 74 l 676 -81 q 657 -126 657 -106 q 675 -163 657 -148 q 721 -178 693 -178 q 763 -168 743 -178 q 803 -139 783 -158 q 812 -133 807 -135 q 824 -131 817 -131 q 844 -139 836 -131 q 853 -160 853 -147 q 851 -171 853 -166 q 844 -181 849 -176 q 785 -222 817 -208 q 721 -236 753 -236 z "},"Ů":{"ha":967,"x_min":118,"x_max":849,"o":"m 400 0 q 185 67 252 0 q 118 282 118 134 l 118 850 q 126 871 118 863 q 147 879 135 879 q 168 871 160 879 q 176 850 176 863 l 176 282 q 198 151 176 200 q 269 80 220 102 q 400 58 318 58 l 567 58 q 698 80 649 58 q 768 151 747 102 q 790 282 790 200 l 790 850 q 799 871 790 863 q 819 879 807 879 q 840 871 832 879 q 849 850 849 863 l 849 282 q 782 67 849 134 q 567 0 715 0 l 400 0 m 475 965 q 397 993 424 965 q 369 1071 369 1020 q 397 1149 369 1122 q 475 1176 424 1176 q 553 1149 526 1176 q 581 1071 581 1122 q 553 993 581 1020 q 475 965 526 965 m 475 1024 q 512 1034 501 1024 q 522 1071 522 1045 q 512 1108 522 1097 q 475 1118 501 1118 q 439 1108 449 1118 q 428 1071 428 1097 q 439 1034 428 1045 q 475 1024 449 1024 z "},"Ũ":{"ha":967,"x_min":118,"x_max":849,"o":"m 400 0 q 185 67 252 0 q 118 282 118 134 l 118 850 q 126 871 118 863 q 147 879 135 879 q 168 871 160 879 q 176 850 176 863 l 176 282 q 198 151 176 200 q 269 80 220 102 q 400 58 318 58 l 567 58 q 698 80 649 58 q 768 151 747 102 q 790 282 790 200 l 790 850 q 799 871 790 863 q 819 879 807 879 q 840 871 832 879 q 849 850 849 863 l 849 282 q 782 67 849 134 q 567 0 715 0 l 400 0 m 565 1001 q 505 1019 528 1001 q 467 1051 481 1036 q 438 1077 451 1067 q 401 1086 424 1086 q 363 1074 376 1086 q 338 1022 350 1061 q 327 1007 335 1013 q 310 1001 319 1001 q 284 1016 291 1001 q 282 1040 278 1031 q 329 1120 301 1096 q 401 1144 357 1144 q 468 1126 443 1144 q 508 1092 493 1108 q 539 1066 527 1073 q 565 1060 550 1060 q 605 1075 590 1060 q 631 1124 620 1090 q 640 1139 634 1133 q 660 1144 647 1144 q 683 1131 676 1144 q 686 1107 690 1117 q 639 1029 667 1056 q 565 1001 610 1001 z "},"V":{"ha":829,"x_min":8,"x_max":819,"o":"m 410 0 q 383 18 390 0 l 17 838 q 19 868 8 856 q 43 879 30 879 q 69 861 63 879 l 424 67 l 403 67 l 758 861 q 785 879 765 879 q 810 868 801 879 q 811 838 819 856 l 444 18 q 418 0 438 0 l 410 0 z "},"W":{"ha":1167,"x_min":10,"x_max":1155,"o":"m 313 0 q 284 21 290 0 l 15 840 q 18 866 10 853 q 42 879 26 879 q 60 874 53 879 q 70 858 67 869 l 324 86 l 308 86 l 548 858 q 561 875 551 870 q 583 881 572 881 q 605 875 594 881 q 617 858 615 870 l 858 86 l 841 86 l 1095 858 q 1106 874 1099 869 q 1123 879 1113 879 q 1149 866 1144 879 q 1151 840 1155 853 l 881 21 q 851 0 875 0 l 848 0 q 817 21 824 0 l 574 800 l 591 800 l 348 21 q 335 3 344 6 q 313 0 326 0 z "},"Ẃ":{"ha":1167,"x_min":10,"x_max":1155,"o":"m 544 965 q 540 1007 523 984 l 665 1154 q 706 1158 684 1178 q 710 1117 727 1140 l 585 969 q 544 965 566 945 m 313 0 q 284 21 290 0 l 15 840 q 18 866 10 853 q 42 879 26 879 q 60 874 53 879 q 70 858 67 869 l 324 86 l 308 86 l 548 858 q 561 875 551 870 q 583 881 572 881 q 605 875 594 881 q 617 858 615 870 l 858 86 l 841 86 l 1095 858 q 1106 874 1099 869 q 1123 879 1113 879 q 1149 866 1144 879 q 1151 840 1155 853 l 881 21 q 851 0 875 0 l 848 0 q 817 21 824 0 l 574 800 l 591 800 l 348 21 q 335 3 344 6 q 313 0 326 0 z "},"Ŵ":{"ha":1167,"x_min":10,"x_max":1155,"o":"m 313 0 q 284 21 290 0 l 15 840 q 18 866 10 853 q 42 879 26 879 q 60 874 53 879 q 70 858 67 869 l 324 86 l 308 86 l 548 858 q 561 875 551 870 q 583 881 572 881 q 605 875 594 881 q 617 858 615 870 l 858 86 l 841 86 l 1095 858 q 1106 874 1099 869 q 1123 879 1113 879 q 1149 866 1144 879 q 1151 840 1155 853 l 881 21 q 851 0 875 0 l 848 0 q 817 21 824 0 l 574 800 l 591 800 l 348 21 q 335 3 344 6 q 313 0 326 0 m 412 969 q 391 978 399 969 q 383 999 383 986 q 394 1021 383 1012 l 534 1139 q 570 1151 551 1151 l 590 1151 q 626 1139 609 1151 l 766 1021 q 777 999 777 1012 q 769 978 777 986 q 748 969 760 969 q 728 976 738 969 l 588 1093 l 572 1093 l 431 976 q 412 969 422 969 z "},"Ẅ":{"ha":1167,"x_min":10,"x_max":1155,"o":"m 313 0 q 284 21 290 0 l 15 840 q 18 866 10 853 q 42 879 26 879 q 60 874 53 879 q 70 858 67 869 l 324 86 l 308 86 l 548 858 q 561 875 551 870 q 583 881 572 881 q 605 875 594 881 q 617 858 615 870 l 858 86 l 841 86 l 1095 858 q 1106 874 1099 869 q 1123 879 1113 879 q 1149 866 1144 879 q 1151 840 1155 853 l 881 21 q 851 0 875 0 l 848 0 q 817 21 824 0 l 574 800 l 591 800 l 348 21 q 335 3 344 6 q 313 0 326 0 m 472 1001 q 437 1038 437 1001 l 437 1061 q 472 1096 437 1096 l 495 1096 q 530 1061 530 1096 l 530 1038 q 495 1001 530 1001 l 472 1001 m 670 1001 q 635 1038 635 1001 l 635 1061 q 670 1096 635 1096 l 694 1096 q 728 1061 728 1096 l 728 1038 q 694 1001 728 1001 l 670 1001 z "},"Ẁ":{"ha":1167,"x_min":10,"x_max":1155,"o":"m 313 0 q 284 21 290 0 l 15 840 q 18 866 10 853 q 42 879 26 879 q 60 874 53 879 q 70 858 67 869 l 324 86 l 308 86 l 548 858 q 561 875 551 870 q 583 881 572 881 q 605 875 594 881 q 617 858 615 870 l 858 86 l 841 86 l 1095 858 q 1106 874 1099 869 q 1123 879 1113 879 q 1149 866 1144 879 q 1151 840 1155 853 l 881 21 q 851 0 875 0 l 848 0 q 817 21 824 0 l 574 800 l 591 800 l 348 21 q 335 3 344 6 q 313 0 326 0 m 622 965 q 580 969 599 945 l 455 1117 q 459 1158 438 1140 q 501 1154 481 1178 l 626 1007 q 622 965 642 984 z "},"X":{"ha":776,"x_min":37,"x_max":728,"o":"m 60 7 q 51 47 37 24 l 339 465 l 76 832 q 83 872 60 855 q 125 865 107 890 l 378 511 l 642 867 q 683 872 659 890 q 689 832 706 856 l 415 460 l 711 47 q 704 7 728 24 q 664 14 681 -10 l 375 415 l 100 15 q 60 7 83 -10 z "},"Y":{"ha":715,"x_min":3,"x_max":710,"o":"m 356 0 q 327 29 327 0 l 327 347 l 19 833 q 28 874 3 857 q 69 864 53 890 l 356 410 l 645 865 q 663 879 653 877 q 685 874 673 881 q 694 833 710 859 l 385 347 l 385 29 q 356 0 385 0 z "},"Ý":{"ha":715,"x_min":3,"x_max":710,"o":"m 320 965 q 316 1007 299 984 l 441 1154 q 483 1158 460 1178 q 487 1117 503 1140 l 362 969 q 320 965 342 945 m 356 0 q 327 29 327 0 l 327 347 l 19 833 q 28 874 3 857 q 69 864 53 890 l 356 410 l 645 865 q 663 879 653 877 q 685 874 673 881 q 694 833 710 859 l 385 347 l 385 29 q 356 0 385 0 z "},"Ŷ":{"ha":715,"x_min":3,"x_max":710,"o":"m 356 0 q 327 29 327 0 l 327 347 l 19 833 q 28 874 3 857 q 69 864 53 890 l 356 410 l 645 865 q 663 879 653 877 q 685 874 673 881 q 694 833 710 859 l 385 347 l 385 29 q 356 0 385 0 m 188 969 q 167 978 176 969 q 159 999 159 986 q 170 1021 159 1012 l 310 1139 q 347 1151 327 1151 l 366 1151 q 402 1139 385 1151 l 542 1021 q 553 999 553 1012 q 545 978 553 986 q 524 969 537 969 q 505 976 514 969 l 365 1093 l 348 1093 l 208 976 q 188 969 199 969 z "},"Ÿ":{"ha":715,"x_min":3,"x_max":710,"o":"m 356 0 q 327 29 327 0 l 327 347 l 19 833 q 28 874 3 857 q 69 864 53 890 l 356 410 l 645 865 q 663 879 653 877 q 685 874 673 881 q 694 833 710 859 l 385 347 l 385 29 q 356 0 385 0 m 248 1001 q 213 1038 213 1001 l 213 1061 q 248 1096 213 1096 l 272 1096 q 306 1061 306 1096 l 306 1038 q 272 1001 306 1001 l 248 1001 m 447 1001 q 412 1038 412 1001 l 412 1061 q 447 1096 412 1096 l 470 1096 q 505 1061 505 1096 l 505 1038 q 470 1001 505 1001 l 447 1001 z "},"Ỵ":{"ha":715,"x_min":3,"x_max":710,"o":"m 356 0 q 327 29 327 0 l 327 347 l 19 833 q 28 874 3 857 q 69 864 53 890 l 356 410 l 645 865 q 663 879 653 877 q 685 874 673 881 q 694 833 710 859 l 385 347 l 385 29 q 356 0 385 0 m 347 -208 q 312 -172 312 -208 l 312 -149 q 347 -114 312 -114 l 370 -114 q 405 -149 405 -114 l 405 -172 q 370 -208 405 -208 l 347 -208 z "},"Ỳ":{"ha":715,"x_min":3,"x_max":710,"o":"m 356 0 q 327 29 327 0 l 327 347 l 19 833 q 28 874 3 857 q 69 864 53 890 l 356 410 l 645 865 q 663 879 653 877 q 685 874 673 881 q 694 833 710 859 l 385 347 l 385 29 q 356 0 385 0 m 398 965 q 356 969 376 945 l 231 1117 q 235 1158 215 1140 q 277 1154 258 1178 l 402 1007 q 398 965 419 984 z "},"Ỷ":{"ha":715,"x_min":3,"x_max":710,"o":"m 356 0 q 327 29 327 0 l 327 347 l 19 833 q 28 874 3 857 q 69 864 53 890 l 356 410 l 645 865 q 663 879 653 877 q 685 874 673 881 q 694 833 710 859 l 385 347 l 385 29 q 356 0 385 0 m 359 958 q 337 966 344 958 q 330 988 330 973 q 353 1053 330 1031 q 395 1086 376 1075 q 425 1108 418 1100 q 431 1129 431 1116 q 419 1174 431 1163 q 374 1186 408 1186 q 329 1174 341 1186 q 317 1129 317 1163 q 310 1107 317 1115 q 288 1100 303 1100 q 266 1107 274 1100 q 259 1129 259 1115 q 374 1244 259 1244 q 490 1129 490 1244 q 467 1068 490 1089 q 426 1036 444 1048 q 395 1013 403 1022 q 388 988 388 1003 q 381 966 388 973 q 359 958 374 958 z "},"Ȳ":{"ha":715,"x_min":3,"x_max":710,"o":"m 356 0 q 327 29 327 0 l 327 347 l 19 833 q 28 874 3 857 q 69 864 53 890 l 356 410 l 645 865 q 663 879 653 877 q 685 874 673 881 q 694 833 710 859 l 385 347 l 385 29 q 356 0 385 0 m 184 1050 q 155 1079 155 1050 q 184 1108 155 1108 l 535 1108 q 565 1079 565 1108 q 535 1050 565 1050 l 184 1050 z "},"Ỹ":{"ha":715,"x_min":3,"x_max":710,"o":"m 356 0 q 327 29 327 0 l 327 347 l 19 833 q 28 874 3 857 q 69 864 53 890 l 356 410 l 645 865 q 663 879 653 877 q 685 874 673 881 q 694 833 710 859 l 385 347 l 385 29 q 356 0 385 0 m 441 1001 q 380 1019 403 1001 q 342 1051 357 1036 q 314 1077 327 1067 q 277 1086 300 1086 q 239 1074 252 1086 q 213 1022 226 1061 q 203 1007 210 1013 q 185 1001 195 1001 q 160 1016 167 1001 q 158 1040 153 1031 q 205 1120 176 1096 q 277 1144 233 1144 q 344 1126 319 1144 q 384 1092 369 1108 q 414 1066 403 1073 q 441 1060 426 1060 q 481 1075 465 1060 q 506 1124 496 1090 q 516 1139 510 1133 q 535 1144 522 1144 q 559 1131 552 1144 q 562 1107 566 1117 q 515 1029 543 1056 q 441 1001 486 1001 z "},"Z":{"ha":826,"x_min":55,"x_max":772,"o":"m 111 0 q 79 29 79 0 q 83 47 79 40 q 94 65 88 55 l 672 835 l 672 821 l 253 821 q 154 794 188 821 q 114 710 120 768 q 106 688 113 695 q 83 681 98 681 q 63 689 70 681 q 56 711 55 697 q 112 837 62 794 q 253 879 163 879 l 711 879 q 740 850 740 879 q 738 829 740 838 q 728 811 735 821 l 149 32 l 149 58 l 574 58 q 673 85 640 58 q 713 169 706 111 q 721 191 714 184 q 742 199 728 199 q 764 191 756 199 q 771 168 772 183 q 574 0 758 0 l 111 0 z "},"Ź":{"ha":826,"x_min":55,"x_max":772,"o":"m 403 965 q 399 1007 382 984 l 524 1154 q 565 1158 543 1178 q 569 1117 586 1140 l 444 969 q 403 965 425 945 m 111 0 q 79 29 79 0 q 83 47 79 40 q 94 65 88 55 l 672 835 l 672 821 l 253 821 q 154 794 188 821 q 114 710 120 768 q 106 688 113 695 q 83 681 98 681 q 63 689 70 681 q 56 711 55 697 q 112 837 62 794 q 253 879 163 879 l 711 879 q 740 850 740 879 q 738 829 740 838 q 728 811 735 821 l 149 32 l 149 58 l 574 58 q 673 85 640 58 q 713 169 706 111 q 721 191 714 184 q 742 199 728 199 q 764 191 756 199 q 771 168 772 183 q 574 0 758 0 l 111 0 z "},"Ž":{"ha":826,"x_min":55,"x_max":772,"o":"m 314 1168 q 333 1161 324 1168 l 474 1044 l 490 1044 l 631 1161 q 650 1168 640 1168 q 671 1160 663 1168 q 679 1139 679 1151 q 668 1117 679 1126 l 528 999 q 492 986 511 986 l 472 986 q 436 999 453 986 l 296 1117 q 285 1139 285 1126 q 293 1160 285 1151 q 314 1168 301 1168 m 111 0 q 79 29 79 0 q 83 47 79 40 q 94 65 88 55 l 672 835 l 672 821 l 253 821 q 154 794 188 821 q 114 710 120 768 q 106 688 113 695 q 83 681 98 681 q 63 689 70 681 q 56 711 55 697 q 112 837 62 794 q 253 879 163 879 l 711 879 q 740 850 740 879 q 738 829 740 838 q 728 811 735 821 l 149 32 l 149 58 l 574 58 q 673 85 640 58 q 713 169 706 111 q 721 191 714 184 q 742 199 728 199 q 764 191 756 199 q 771 168 772 183 q 574 0 758 0 l 111 0 z "},"Ż":{"ha":826,"x_min":55,"x_max":772,"o":"m 427 1010 q 385 1053 385 1010 l 385 1081 q 427 1123 385 1123 l 456 1123 q 497 1081 497 1123 l 497 1053 q 456 1010 497 1010 l 427 1010 m 111 0 q 79 29 79 0 q 83 47 79 40 q 94 65 88 55 l 672 835 l 672 821 l 253 821 q 154 794 188 821 q 114 710 120 768 q 106 688 113 695 q 83 681 98 681 q 63 689 70 681 q 56 711 55 697 q 112 837 62 794 q 253 879 163 879 l 711 879 q 740 850 740 879 q 738 829 740 838 q 728 811 735 821 l 149 32 l 149 58 l 574 58 q 673 85 640 58 q 713 169 706 111 q 721 191 714 184 q 742 199 728 199 q 764 191 756 199 q 771 168 772 183 q 574 0 758 0 l 111 0 z "},"a":{"ha":807,"x_min":111,"x_max":694,"o":"m 313 0 q 159 48 208 0 q 111 201 111 97 q 160 356 111 307 q 313 404 208 404 l 636 404 q 594 542 635 502 q 451 582 552 582 l 371 582 q 233 560 276 582 q 182 486 190 538 q 173 466 180 473 q 153 458 167 458 q 131 466 138 458 q 124 489 123 474 q 191 604 129 568 q 371 640 252 640 l 451 640 q 636 582 578 640 q 694 397 694 524 l 694 29 q 665 0 694 0 q 636 29 636 0 l 636 111 q 390 0 572 0 l 313 0 m 313 58 l 390 58 q 516 75 463 58 q 600 128 569 92 q 636 222 631 164 l 636 346 l 313 346 q 201 314 233 346 q 169 201 169 283 q 201 90 169 122 q 313 58 233 58 z "},"á":{"ha":807,"x_min":111,"x_max":694,"o":"m 369 726 q 365 768 349 745 l 490 915 q 532 919 510 940 q 536 878 553 901 l 411 731 q 369 726 392 706 m 313 0 q 159 48 208 0 q 111 201 111 97 q 160 356 111 307 q 313 404 208 404 l 636 404 q 594 542 635 502 q 451 582 552 582 l 371 582 q 233 560 276 582 q 182 486 190 538 q 173 466 180 473 q 153 458 167 458 q 131 466 138 458 q 124 489 123 474 q 191 604 129 568 q 371 640 252 640 l 451 640 q 636 582 578 640 q 694 397 694 524 l 694 29 q 665 0 694 0 q 636 29 636 0 l 636 111 q 390 0 572 0 l 313 0 m 313 58 l 390 58 q 516 75 463 58 q 600 128 569 92 q 636 222 631 164 l 636 346 l 313 346 q 201 314 233 346 q 169 201 169 283 q 201 90 169 122 q 313 58 233 58 z "},"ă":{"ha":807,"x_min":111,"x_max":694,"o":"m 313 0 q 159 48 208 0 q 111 201 111 97 q 160 356 111 307 q 313 404 208 404 l 636 404 q 594 542 635 502 q 451 582 552 582 l 371 582 q 233 560 276 582 q 182 486 190 538 q 173 466 180 473 q 153 458 167 458 q 131 466 138 458 q 124 489 123 474 q 191 604 129 568 q 371 640 252 640 l 451 640 q 636 582 578 640 q 694 397 694 524 l 694 29 q 665 0 694 0 q 636 29 636 0 l 636 111 q 390 0 572 0 l 313 0 m 313 58 l 390 58 q 516 75 463 58 q 600 128 569 92 q 636 222 631 164 l 636 346 l 313 346 q 201 314 233 346 q 169 201 169 283 q 201 90 169 122 q 313 58 233 58 m 410 721 q 282 763 326 720 q 239 889 239 806 l 239 892 q 268 921 239 921 q 297 892 297 921 l 297 889 q 324 804 297 831 q 408 778 350 778 q 494 805 468 779 q 519 889 519 831 l 519 892 q 549 921 519 921 q 578 892 578 921 l 578 889 q 534 762 578 803 q 410 721 490 721 z "},"ắ":{"ha":807,"x_min":111,"x_max":694,"o":"m 383 904 q 379 946 363 923 l 504 1093 q 546 1097 524 1117 q 550 1056 567 1078 l 425 908 q 383 904 406 884 m 313 0 q 159 48 208 0 q 111 201 111 97 q 160 356 111 307 q 313 404 208 404 l 636 404 q 594 542 635 502 q 451 582 552 582 l 371 582 q 233 560 276 582 q 182 486 190 538 q 173 466 180 473 q 153 458 167 458 q 131 466 138 458 q 124 489 123 474 q 191 604 129 568 q 371 640 252 640 l 451 640 q 636 582 578 640 q 694 397 694 524 l 694 29 q 665 0 694 0 q 636 29 636 0 l 636 111 q 390 0 572 0 l 313 0 m 313 58 l 390 58 q 516 75 463 58 q 600 128 569 92 q 636 222 631 164 l 636 346 l 313 346 q 201 314 233 346 q 169 201 169 283 q 201 90 169 122 q 313 58 233 58 m 410 721 q 282 763 326 720 q 239 889 239 806 l 239 892 q 268 921 239 921 q 297 892 297 921 l 297 889 q 324 804 297 831 q 408 778 350 778 q 494 805 468 779 q 519 889 519 831 l 519 892 q 549 921 519 921 q 578 892 578 921 l 578 889 q 534 762 578 803 q 410 721 490 721 z "},"ặ":{"ha":807,"x_min":111,"x_max":694,"o":"m 313 0 q 159 48 208 0 q 111 201 111 97 q 160 356 111 307 q 313 404 208 404 l 636 404 q 594 542 635 502 q 451 582 552 582 l 371 582 q 233 560 276 582 q 182 486 190 538 q 173 466 180 473 q 153 458 167 458 q 131 466 138 458 q 124 489 123 474 q 191 604 129 568 q 371 640 252 640 l 451 640 q 636 582 578 640 q 694 397 694 524 l 694 29 q 665 0 694 0 q 636 29 636 0 l 636 111 q 390 0 572 0 l 313 0 m 313 58 l 390 58 q 516 75 463 58 q 600 128 569 92 q 636 222 631 164 l 636 346 l 313 346 q 201 314 233 346 q 169 201 169 283 q 201 90 169 122 q 313 58 233 58 m 396 -208 q 361 -172 361 -208 l 361 -149 q 396 -114 361 -114 l 419 -114 q 454 -149 454 -114 l 454 -172 q 419 -208 454 -208 l 396 -208 m 410 721 q 282 763 326 720 q 239 889 239 806 l 239 892 q 268 921 239 921 q 297 892 297 921 l 297 889 q 324 804 297 831 q 408 778 350 778 q 494 805 468 779 q 519 889 519 831 l 519 892 q 549 921 519 921 q 578 892 578 921 l 578 889 q 534 762 578 803 q 410 721 490 721 z "},"ằ":{"ha":807,"x_min":111,"x_max":694,"o":"m 313 0 q 159 48 208 0 q 111 201 111 97 q 160 356 111 307 q 313 404 208 404 l 636 404 q 594 542 635 502 q 451 582 552 582 l 371 582 q 233 560 276 582 q 182 486 190 538 q 173 466 180 473 q 153 458 167 458 q 131 466 138 458 q 124 489 123 474 q 191 604 129 568 q 371 640 252 640 l 451 640 q 636 582 578 640 q 694 397 694 524 l 694 29 q 665 0 694 0 q 636 29 636 0 l 636 111 q 390 0 572 0 l 313 0 m 313 58 l 390 58 q 516 75 463 58 q 600 128 569 92 q 636 222 631 164 l 636 346 l 313 346 q 201 314 233 346 q 169 201 169 283 q 201 90 169 122 q 313 58 233 58 m 410 721 q 282 763 326 720 q 239 889 239 806 l 239 892 q 268 921 239 921 q 297 892 297 921 l 297 889 q 324 804 297 831 q 408 778 350 778 q 494 805 468 779 q 519 889 519 831 l 519 892 q 549 921 519 921 q 578 892 578 921 l 578 889 q 534 762 578 803 q 410 721 490 721 m 446 904 q 404 908 424 884 l 279 1056 q 283 1097 263 1078 q 325 1093 306 1117 l 450 946 q 446 904 467 923 z "},"ẳ":{"ha":807,"x_min":111,"x_max":694,"o":"m 313 0 q 159 48 208 0 q 111 201 111 97 q 160 356 111 307 q 313 404 208 404 l 636 404 q 594 542 635 502 q 451 582 552 582 l 371 582 q 233 560 276 582 q 182 486 190 538 q 173 466 180 473 q 153 458 167 458 q 131 466 138 458 q 124 489 123 474 q 191 604 129 568 q 371 640 252 640 l 451 640 q 636 582 578 640 q 694 397 694 524 l 694 29 q 665 0 694 0 q 636 29 636 0 l 636 111 q 390 0 572 0 l 313 0 m 313 58 l 390 58 q 516 75 463 58 q 600 128 569 92 q 636 222 631 164 l 636 346 l 313 346 q 201 314 233 346 q 169 201 169 283 q 201 90 169 122 q 313 58 233 58 m 410 721 q 282 763 326 720 q 239 889 239 806 l 239 892 q 268 921 239 921 q 297 892 297 921 l 297 889 q 324 804 297 831 q 408 778 350 778 q 494 805 468 779 q 519 889 519 831 l 519 892 q 549 921 519 921 q 578 892 578 921 l 578 889 q 534 762 578 803 q 410 721 490 721 m 408 869 q 386 877 394 869 q 379 899 379 884 q 402 964 379 942 q 444 997 426 986 q 474 1019 467 1011 q 481 1040 481 1027 q 469 1085 481 1074 q 424 1097 457 1097 q 378 1085 390 1097 q 367 1040 367 1074 q 359 1018 367 1026 q 338 1011 352 1011 q 316 1018 323 1011 q 308 1040 308 1026 q 424 1156 308 1156 q 539 1040 539 1156 q 516 980 539 1000 q 475 947 494 959 q 445 924 452 933 q 438 899 438 915 q 430 877 438 884 q 408 869 423 869 z "},"ẵ":{"ha":807,"x_min":111,"x_max":694,"o":"m 313 0 q 159 48 208 0 q 111 201 111 97 q 160 356 111 307 q 313 404 208 404 l 636 404 q 594 542 635 502 q 451 582 552 582 l 371 582 q 233 560 276 582 q 182 486 190 538 q 173 466 180 473 q 153 458 167 458 q 131 466 138 458 q 124 489 123 474 q 191 604 129 568 q 371 640 252 640 l 451 640 q 636 582 578 640 q 694 397 694 524 l 694 29 q 665 0 694 0 q 636 29 636 0 l 636 111 q 390 0 572 0 l 313 0 m 313 58 l 390 58 q 516 75 463 58 q 600 128 569 92 q 636 222 631 164 l 636 346 l 313 346 q 201 314 233 346 q 169 201 169 283 q 201 90 169 122 q 313 58 233 58 m 404 721 q 277 763 320 720 q 233 889 233 806 l 233 892 q 263 921 233 921 q 292 892 292 921 l 292 889 q 318 804 292 831 q 403 778 344 778 q 488 805 463 779 q 514 889 514 831 l 514 892 q 543 921 514 921 q 572 892 572 921 l 572 889 q 528 762 572 803 q 404 721 485 721 m 464 969 q 422 982 439 969 q 393 1010 405 994 q 368 1038 381 1026 q 340 1050 356 1050 q 315 1035 324 1050 q 292 990 306 1020 q 281 975 288 981 q 264 969 274 969 q 239 984 245 969 q 236 1008 232 999 q 282 1083 258 1058 q 342 1108 305 1108 q 387 1096 369 1108 q 417 1068 405 1084 q 441 1040 430 1052 q 467 1028 453 1028 q 492 1040 483 1028 q 506 1066 501 1052 q 514 1088 511 1081 q 524 1103 517 1097 q 542 1108 531 1108 q 566 1095 562 1108 q 569 1069 571 1081 q 553 1027 567 1050 q 516 986 539 1003 q 464 969 493 969 z "},"â":{"ha":807,"x_min":111,"x_max":694,"o":"m 313 0 q 159 48 208 0 q 111 201 111 97 q 160 356 111 307 q 313 404 208 404 l 636 404 q 594 542 635 502 q 451 582 552 582 l 371 582 q 233 560 276 582 q 182 486 190 538 q 173 466 180 473 q 153 458 167 458 q 131 466 138 458 q 124 489 123 474 q 191 604 129 568 q 371 640 252 640 l 451 640 q 636 582 578 640 q 694 397 694 524 l 694 29 q 665 0 694 0 q 636 29 636 0 l 636 111 q 390 0 572 0 l 313 0 m 313 58 l 390 58 q 516 75 463 58 q 600 128 569 92 q 636 222 631 164 l 636 346 l 313 346 q 201 314 233 346 q 169 201 169 283 q 201 90 169 122 q 313 58 233 58 m 279 719 q 258 728 267 719 q 250 749 250 736 q 252 758 250 754 q 256 767 253 763 l 364 911 q 399 929 378 929 l 424 929 q 458 911 444 929 l 567 767 q 570 758 569 763 q 572 749 572 754 q 564 728 572 736 q 543 719 556 719 q 519 732 528 719 l 415 871 l 407 871 l 303 732 q 279 719 294 719 z "},"ấ":{"ha":807,"x_min":111,"x_max":694,"o":"m 313 0 q 159 48 208 0 q 111 201 111 97 q 160 356 111 307 q 313 404 208 404 l 636 404 q 594 542 635 502 q 451 582 552 582 l 371 582 q 233 560 276 582 q 182 486 190 538 q 173 466 180 473 q 153 458 167 458 q 131 466 138 458 q 124 489 123 474 q 191 604 129 568 q 371 640 252 640 l 451 640 q 636 582 578 640 q 694 397 694 524 l 694 29 q 665 0 694 0 q 636 29 636 0 l 636 111 q 390 0 572 0 l 313 0 m 313 58 l 390 58 q 516 75 463 58 q 600 128 569 92 q 636 222 631 164 l 636 346 l 313 346 q 201 314 233 346 q 169 201 169 283 q 201 90 169 122 q 313 58 233 58 m 536 851 q 525 872 526 861 q 532 893 524 882 l 619 996 q 661 1000 639 1020 q 665 958 682 981 l 578 856 q 536 851 558 831 m 276 719 q 256 728 264 719 q 247 749 247 736 q 249 758 247 754 q 253 767 251 763 l 361 911 q 396 929 375 929 l 421 929 q 456 911 442 929 l 564 767 q 568 758 566 763 q 569 749 569 754 q 561 728 569 736 q 540 719 553 719 q 517 732 525 719 l 413 871 l 404 871 l 300 732 q 276 719 292 719 z "},"ậ":{"ha":807,"x_min":111,"x_max":694,"o":"m 313 0 q 159 48 208 0 q 111 201 111 97 q 160 356 111 307 q 313 404 208 404 l 636 404 q 594 542 635 502 q 451 582 552 582 l 371 582 q 233 560 276 582 q 182 486 190 538 q 173 466 180 473 q 153 458 167 458 q 131 466 138 458 q 124 489 123 474 q 191 604 129 568 q 371 640 252 640 l 451 640 q 636 582 578 640 q 694 397 694 524 l 694 29 q 665 0 694 0 q 636 29 636 0 l 636 111 q 390 0 572 0 l 313 0 m 313 58 l 390 58 q 516 75 463 58 q 600 128 569 92 q 636 222 631 164 l 636 346 l 313 346 q 201 314 233 346 q 169 201 169 283 q 201 90 169 122 q 313 58 233 58 m 396 -208 q 361 -172 361 -208 l 361 -149 q 396 -114 361 -114 l 419 -114 q 454 -149 454 -114 l 454 -172 q 419 -208 454 -208 l 396 -208 m 279 719 q 258 728 267 719 q 250 749 250 736 q 252 758 250 754 q 256 767 253 763 l 364 911 q 399 929 378 929 l 424 929 q 458 911 444 929 l 567 767 q 570 758 569 763 q 572 749 572 754 q 564 728 572 736 q 543 719 556 719 q 519 732 528 719 l 415 871 l 407 871 l 303 732 q 279 719 294 719 z "},"ầ":{"ha":807,"x_min":111,"x_max":694,"o":"m 313 0 q 159 48 208 0 q 111 201 111 97 q 160 356 111 307 q 313 404 208 404 l 636 404 q 594 542 635 502 q 451 582 552 582 l 371 582 q 233 560 276 582 q 182 486 190 538 q 173 466 180 473 q 153 458 167 458 q 131 466 138 458 q 124 489 123 474 q 191 604 129 568 q 371 640 252 640 l 451 640 q 636 582 578 640 q 694 397 694 524 l 694 29 q 665 0 694 0 q 636 29 636 0 l 636 111 q 390 0 572 0 l 313 0 m 313 58 l 390 58 q 516 75 463 58 q 600 128 569 92 q 636 222 631 164 l 636 346 l 313 346 q 201 314 233 346 q 169 201 169 283 q 201 90 169 122 q 313 58 233 58 m 283 851 q 242 856 261 831 l 154 958 q 147 981 146 970 q 158 1000 148 991 q 200 996 181 1020 l 288 893 q 295 872 296 882 q 283 851 294 861 m 276 719 q 256 728 264 719 q 247 749 247 736 q 249 758 247 754 q 253 767 251 763 l 361 911 q 396 929 375 929 l 421 929 q 456 911 442 929 l 564 767 q 568 758 566 763 q 569 749 569 754 q 561 728 569 736 q 540 719 553 719 q 517 732 525 719 l 413 871 l 404 871 l 300 732 q 276 719 292 719 z "},"ẩ":{"ha":807,"x_min":111,"x_max":706,"o":"m 313 0 q 159 48 208 0 q 111 201 111 97 q 160 356 111 307 q 313 404 208 404 l 636 404 q 594 542 635 502 q 451 582 552 582 l 371 582 q 233 560 276 582 q 182 486 190 538 q 173 466 180 473 q 153 458 167 458 q 131 466 138 458 q 124 489 123 474 q 191 604 129 568 q 371 640 252 640 l 451 640 q 636 582 578 640 q 694 397 694 524 l 694 29 q 665 0 694 0 q 636 29 636 0 l 636 111 q 390 0 572 0 l 313 0 m 313 58 l 390 58 q 516 75 463 58 q 600 128 569 92 q 636 222 631 164 l 636 346 l 313 346 q 201 314 233 346 q 169 201 169 283 q 201 90 169 122 q 313 58 233 58 m 276 719 q 256 728 264 719 q 247 749 247 736 q 249 758 247 754 q 253 767 251 763 l 361 911 q 396 929 375 929 l 421 929 q 456 911 442 929 l 564 767 q 568 758 566 763 q 569 749 569 754 q 561 728 569 736 q 540 719 553 719 q 517 732 525 719 l 413 871 l 404 871 l 300 732 q 276 719 292 719 m 575 832 q 553 839 560 832 q 546 861 546 847 q 569 927 546 905 q 611 960 592 949 q 641 982 634 974 q 647 1003 647 990 q 635 1048 647 1036 q 590 1060 624 1060 q 545 1048 557 1060 q 533 1003 533 1036 q 526 981 533 988 q 504 974 519 974 q 482 981 490 974 q 475 1003 475 988 q 590 1118 475 1118 q 706 1003 706 1118 q 683 942 706 963 q 642 910 660 922 q 611 886 619 895 q 604 861 604 877 q 597 839 604 847 q 575 832 590 832 z "},"ẫ":{"ha":807,"x_min":111,"x_max":694,"o":"m 313 0 q 159 48 208 0 q 111 201 111 97 q 160 356 111 307 q 313 404 208 404 l 636 404 q 594 542 635 502 q 451 582 552 582 l 371 582 q 233 560 276 582 q 182 486 190 538 q 173 466 180 473 q 153 458 167 458 q 131 466 138 458 q 124 489 123 474 q 191 604 129 568 q 371 640 252 640 l 451 640 q 636 582 578 640 q 694 397 694 524 l 694 29 q 665 0 694 0 q 636 29 636 0 l 636 111 q 390 0 572 0 l 313 0 m 313 58 l 390 58 q 516 75 463 58 q 600 128 569 92 q 636 222 631 164 l 636 346 l 313 346 q 201 314 233 346 q 169 201 169 283 q 201 90 169 122 q 313 58 233 58 m 276 719 q 256 728 264 719 q 247 749 247 736 q 249 758 247 754 q 253 767 251 763 l 361 911 q 396 929 375 929 l 421 929 q 456 911 442 929 l 564 767 q 568 758 566 763 q 569 749 569 754 q 561 728 569 736 q 540 719 553 719 q 517 732 525 719 l 413 871 l 404 871 l 300 732 q 276 719 292 719 m 476 964 q 434 976 451 964 q 405 1004 417 988 q 381 1032 393 1020 q 353 1044 369 1044 q 327 1030 337 1044 q 304 985 318 1015 q 293 970 300 976 q 276 964 286 964 q 251 979 258 964 q 249 1003 244 994 q 294 1077 271 1052 q 354 1103 317 1103 q 400 1091 382 1103 q 430 1063 417 1078 q 454 1034 442 1047 q 480 1022 465 1022 q 504 1034 495 1022 q 518 1061 513 1047 q 526 1082 524 1075 q 536 1097 530 1092 q 555 1103 543 1103 q 579 1089 574 1103 q 582 1064 583 1076 q 566 1021 580 1044 q 528 981 551 998 q 476 964 506 964 z "},"ȁ":{"ha":807,"x_min":111,"x_max":694,"o":"m 344 738 q 306 742 324 721 l 194 875 q 197 913 178 895 q 235 908 217 930 l 347 776 q 344 738 363 756 m 497 738 q 459 742 476 721 l 347 875 q 350 913 331 895 q 388 908 370 930 l 500 776 q 497 738 515 756 m 313 0 q 159 48 208 0 q 111 201 111 97 q 160 356 111 307 q 313 404 208 404 l 636 404 q 594 542 635 502 q 451 582 552 582 l 371 582 q 233 560 276 582 q 182 486 190 538 q 173 466 180 473 q 153 458 167 458 q 131 466 138 458 q 124 489 123 474 q 191 604 129 568 q 371 640 252 640 l 451 640 q 636 582 578 640 q 694 397 694 524 l 694 29 q 665 0 694 0 q 636 29 636 0 l 636 111 q 390 0 572 0 l 313 0 m 313 58 l 390 58 q 516 75 463 58 q 600 128 569 92 q 636 222 631 164 l 636 346 l 313 346 q 201 314 233 346 q 169 201 169 283 q 201 90 169 122 q 313 58 233 58 z "},"ä":{"ha":807,"x_min":111,"x_max":694,"o":"m 313 0 q 159 48 208 0 q 111 201 111 97 q 160 356 111 307 q 313 404 208 404 l 636 404 q 594 542 635 502 q 451 582 552 582 l 371 582 q 233 560 276 582 q 182 486 190 538 q 173 466 180 473 q 153 458 167 458 q 131 466 138 458 q 124 489 123 474 q 191 604 129 568 q 371 640 252 640 l 451 640 q 636 582 578 640 q 694 397 694 524 l 694 29 q 665 0 694 0 q 636 29 636 0 l 636 111 q 390 0 572 0 l 313 0 m 313 58 l 390 58 q 516 75 463 58 q 600 128 569 92 q 636 222 631 164 l 636 346 l 313 346 q 201 314 233 346 q 169 201 169 283 q 201 90 169 122 q 313 58 233 58 m 297 763 q 263 799 263 763 l 263 822 q 297 857 263 857 l 321 857 q 356 822 356 857 l 356 799 q 321 763 356 763 l 297 763 m 496 763 q 461 799 461 763 l 461 822 q 496 857 461 857 l 519 857 q 554 822 554 857 l 554 799 q 519 763 554 763 l 496 763 z "},"ạ":{"ha":807,"x_min":111,"x_max":694,"o":"m 313 0 q 159 48 208 0 q 111 201 111 97 q 160 356 111 307 q 313 404 208 404 l 636 404 q 594 542 635 502 q 451 582 552 582 l 371 582 q 233 560 276 582 q 182 486 190 538 q 173 466 180 473 q 153 458 167 458 q 131 466 138 458 q 124 489 123 474 q 191 604 129 568 q 371 640 252 640 l 451 640 q 636 582 578 640 q 694 397 694 524 l 694 29 q 665 0 694 0 q 636 29 636 0 l 636 111 q 390 0 572 0 l 313 0 m 313 58 l 390 58 q 516 75 463 58 q 600 128 569 92 q 636 222 631 164 l 636 346 l 313 346 q 201 314 233 346 q 169 201 169 283 q 201 90 169 122 q 313 58 233 58 m 396 -208 q 361 -172 361 -208 l 361 -149 q 396 -114 361 -114 l 419 -114 q 454 -149 454 -114 l 454 -172 q 419 -208 454 -208 l 396 -208 z "},"à":{"ha":807,"x_min":111,"x_max":694,"o":"m 313 0 q 159 48 208 0 q 111 201 111 97 q 160 356 111 307 q 313 404 208 404 l 636 404 q 594 542 635 502 q 451 582 552 582 l 371 582 q 233 560 276 582 q 182 486 190 538 q 173 466 180 473 q 153 458 167 458 q 131 466 138 458 q 124 489 123 474 q 191 604 129 568 q 371 640 252 640 l 451 640 q 636 582 578 640 q 694 397 694 524 l 694 29 q 665 0 694 0 q 636 29 636 0 l 636 111 q 390 0 572 0 l 313 0 m 313 58 l 390 58 q 516 75 463 58 q 600 128 569 92 q 636 222 631 164 l 636 346 l 313 346 q 201 314 233 346 q 169 201 169 283 q 201 90 169 122 q 313 58 233 58 m 447 726 q 406 731 425 706 l 281 878 q 285 919 264 901 q 326 915 307 940 l 451 768 q 447 726 468 745 z "},"ả":{"ha":807,"x_min":111,"x_max":694,"o":"m 313 0 q 159 48 208 0 q 111 201 111 97 q 160 356 111 307 q 313 404 208 404 l 636 404 q 594 542 635 502 q 451 582 552 582 l 371 582 q 233 560 276 582 q 182 486 190 538 q 173 466 180 473 q 153 458 167 458 q 131 466 138 458 q 124 489 123 474 q 191 604 129 568 q 371 640 252 640 l 451 640 q 636 582 578 640 q 694 397 694 524 l 694 29 q 665 0 694 0 q 636 29 636 0 l 636 111 q 390 0 572 0 l 313 0 m 313 58 l 390 58 q 516 75 463 58 q 600 128 569 92 q 636 222 631 164 l 636 346 l 313 346 q 201 314 233 346 q 169 201 169 283 q 201 90 169 122 q 313 58 233 58 m 408 719 q 386 727 394 719 q 379 749 379 734 q 402 814 379 792 q 444 847 426 836 q 474 869 467 861 q 481 890 481 877 q 469 935 481 924 q 424 947 457 947 q 378 935 390 947 q 367 890 367 924 q 359 868 367 876 q 338 861 352 861 q 316 868 323 861 q 308 890 308 876 q 424 1006 308 1006 q 539 890 539 1006 q 516 830 539 850 q 475 797 494 809 q 445 774 452 783 q 438 749 438 765 q 430 727 438 734 q 408 719 423 719 z "},"ȃ":{"ha":807,"x_min":111,"x_max":694,"o":"m 410 928 q 534 887 490 928 q 578 760 578 847 l 578 757 q 549 728 578 728 q 519 757 519 728 l 519 760 q 494 844 519 818 q 408 871 468 870 q 324 844 350 871 q 297 760 297 818 l 297 757 q 268 728 297 728 q 239 757 239 728 l 239 760 q 282 886 239 843 q 410 928 326 929 m 313 0 q 159 48 208 0 q 111 201 111 97 q 160 356 111 307 q 313 404 208 404 l 636 404 q 594 542 635 502 q 451 582 552 582 l 371 582 q 233 560 276 582 q 182 486 190 538 q 173 466 180 473 q 153 458 167 458 q 131 466 138 458 q 124 489 123 474 q 191 604 129 568 q 371 640 252 640 l 451 640 q 636 582 578 640 q 694 397 694 524 l 694 29 q 665 0 694 0 q 636 29 636 0 l 636 111 q 390 0 572 0 l 313 0 m 313 58 l 390 58 q 516 75 463 58 q 600 128 569 92 q 636 222 631 164 l 636 346 l 313 346 q 201 314 233 346 q 169 201 169 283 q 201 90 169 122 q 313 58 233 58 z "},"ā":{"ha":807,"x_min":111,"x_max":694,"o":"m 313 0 q 159 48 208 0 q 111 201 111 97 q 160 356 111 307 q 313 404 208 404 l 636 404 q 594 542 635 502 q 451 582 552 582 l 371 582 q 233 560 276 582 q 182 486 190 538 q 173 466 180 473 q 153 458 167 458 q 131 466 138 458 q 124 489 123 474 q 191 604 129 568 q 371 640 252 640 l 451 640 q 636 582 578 640 q 694 397 694 524 l 694 29 q 665 0 694 0 q 636 29 636 0 l 636 111 q 390 0 572 0 l 313 0 m 313 58 l 390 58 q 516 75 463 58 q 600 128 569 92 q 636 222 631 164 l 636 346 l 313 346 q 201 314 233 346 q 169 201 169 283 q 201 90 169 122 q 313 58 233 58 m 233 811 q 204 840 204 811 q 233 869 204 869 l 585 869 q 614 840 614 869 q 585 811 614 811 l 233 811 z "},"ą":{"ha":807,"x_min":111,"x_max":794,"o":"m 313 0 q 159 48 208 0 q 111 201 111 97 q 160 356 111 307 q 313 404 208 404 l 636 404 q 594 542 635 502 q 451 582 552 582 l 371 582 q 233 560 276 582 q 182 486 190 538 q 173 466 180 473 q 153 458 167 458 q 131 466 138 458 q 124 489 123 474 q 191 604 129 568 q 371 640 252 640 l 451 640 q 636 582 578 640 q 694 397 694 524 l 694 29 q 665 0 694 0 q 636 29 636 0 l 636 111 q 390 0 572 0 l 313 0 m 313 58 l 390 58 q 516 75 463 58 q 600 128 569 92 q 636 222 631 164 l 636 346 l 313 346 q 201 314 233 346 q 169 201 169 283 q 201 90 169 122 q 313 58 233 58 m 663 -233 q 576 -202 612 -233 q 540 -124 540 -170 q 548 -82 540 -103 q 571 -42 556 -60 l 639 47 q 663 58 648 58 q 683 50 675 58 q 692 29 692 42 q 686 11 692 19 l 618 -78 q 599 -124 599 -103 q 617 -160 599 -145 q 663 -175 635 -175 q 705 -165 685 -175 q 744 -136 725 -156 q 754 -130 749 -132 q 765 -128 759 -128 q 786 -136 778 -128 q 794 -157 794 -144 q 786 -178 794 -169 q 663 -233 731 -233 z "},"å":{"ha":807,"x_min":111,"x_max":694,"o":"m 313 0 q 159 48 208 0 q 111 201 111 97 q 160 356 111 307 q 313 404 208 404 l 636 404 q 594 542 635 502 q 451 582 552 582 l 371 582 q 233 560 276 582 q 182 486 190 538 q 173 466 180 473 q 153 458 167 458 q 131 466 138 458 q 124 489 123 474 q 191 604 129 568 q 371 640 252 640 l 451 640 q 636 582 578 640 q 694 397 694 524 l 694 29 q 665 0 694 0 q 636 29 636 0 l 636 111 q 390 0 572 0 l 313 0 m 313 58 l 390 58 q 516 75 463 58 q 600 128 569 92 q 636 222 631 164 l 636 346 l 313 346 q 201 314 233 346 q 169 201 169 283 q 201 90 169 122 q 313 58 233 58 m 400 726 q 322 754 349 726 q 294 832 294 781 q 322 910 294 883 q 400 938 349 938 q 478 910 451 938 q 506 832 506 883 q 478 754 506 781 q 400 726 451 726 m 400 785 q 437 795 426 785 q 447 832 447 806 q 437 869 447 858 q 400 879 426 879 q 364 869 374 879 q 353 832 353 858 q 364 795 353 806 q 400 785 374 785 z "},"ǻ":{"ha":807,"x_min":111,"x_max":694,"o":"m 369 1032 q 365 1074 349 1051 l 490 1221 q 532 1225 510 1245 q 536 1183 553 1206 l 411 1036 q 369 1032 392 1012 m 313 0 q 159 48 208 0 q 111 201 111 97 q 160 356 111 307 q 313 404 208 404 l 636 404 q 594 542 635 502 q 451 582 552 582 l 371 582 q 233 560 276 582 q 182 486 190 538 q 173 466 180 473 q 153 458 167 458 q 131 466 138 458 q 124 489 123 474 q 191 604 129 568 q 371 640 252 640 l 451 640 q 636 582 578 640 q 694 397 694 524 l 694 29 q 665 0 694 0 q 636 29 636 0 l 636 111 q 390 0 572 0 l 313 0 m 313 58 l 390 58 q 516 75 463 58 q 600 128 569 92 q 636 222 631 164 l 636 346 l 313 346 q 201 314 233 346 q 169 201 169 283 q 201 90 169 122 q 313 58 233 58 m 400 726 q 322 754 349 726 q 294 832 294 781 q 322 910 294 883 q 400 938 349 938 q 478 910 451 938 q 506 832 506 883 q 478 754 506 781 q 400 726 451 726 m 400 785 q 437 795 426 785 q 447 832 447 806 q 437 869 447 858 q 400 879 426 879 q 364 869 374 879 q 353 832 353 858 q 364 795 353 806 q 400 785 374 785 z "},"ã":{"ha":807,"x_min":111,"x_max":694,"o":"m 313 0 q 159 48 208 0 q 111 201 111 97 q 160 356 111 307 q 313 404 208 404 l 636 404 q 594 542 635 502 q 451 582 552 582 l 371 582 q 233 560 276 582 q 182 486 190 538 q 173 466 180 473 q 153 458 167 458 q 131 466 138 458 q 124 489 123 474 q 191 604 129 568 q 371 640 252 640 l 451 640 q 636 582 578 640 q 694 397 694 524 l 694 29 q 665 0 694 0 q 636 29 636 0 l 636 111 q 390 0 572 0 l 313 0 m 313 58 l 390 58 q 516 75 463 58 q 600 128 569 92 q 636 222 631 164 l 636 346 l 313 346 q 201 314 233 346 q 169 201 169 283 q 201 90 169 122 q 313 58 233 58 m 490 763 q 430 780 453 763 q 392 813 406 797 q 363 838 376 828 q 326 847 349 847 q 288 835 301 847 q 263 783 275 822 q 252 768 260 774 q 235 763 244 763 q 209 777 216 763 q 207 801 203 792 q 254 881 226 857 q 326 906 282 906 q 393 888 368 906 q 433 853 418 869 q 464 827 452 834 q 490 821 475 821 q 530 836 515 821 q 556 885 545 851 q 565 900 559 894 q 585 906 572 906 q 608 892 601 906 q 611 868 615 878 q 564 790 592 817 q 490 763 535 763 z "},"æ":{"ha":1278,"x_min":111,"x_max":1167,"o":"m 844 -1 q 632 122 678 -1 q 363 1 560 1 l 313 1 q 159 50 208 1 q 111 203 111 98 q 159 356 111 308 q 313 404 208 404 l 608 404 q 566 543 608 503 q 424 583 525 583 l 371 583 q 223 557 265 583 q 182 488 182 531 q 174 467 182 475 q 153 458 165 458 q 132 467 140 458 q 124 488 124 475 q 183 602 124 563 q 371 642 242 642 l 424 642 q 638 531 585 642 q 846 640 688 642 l 929 640 q 1109 576 1052 640 q 1167 375 1167 513 q 1138 346 1167 346 l 667 346 l 667 244 q 707 99 667 142 q 844 57 747 57 l 929 57 q 1069 86 1029 57 q 1108 188 1108 116 q 1117 208 1108 200 q 1138 217 1125 217 q 1158 208 1150 217 q 1167 188 1167 200 q 1109 44 1167 89 q 929 -1 1052 -1 l 844 -1 m 313 60 l 363 60 q 548 105 487 60 q 608 239 608 149 l 608 346 l 313 346 q 201 315 233 346 q 169 203 169 283 q 201 91 169 123 q 313 60 233 60 m 667 404 l 1108 404 q 1062 542 1103 501 q 929 582 1021 582 l 846 582 q 708 543 748 583 q 667 404 668 503 z "},"ǽ":{"ha":1278,"x_min":111,"x_max":1167,"o":"m 593 726 q 589 768 572 745 l 714 915 q 756 919 733 940 q 760 878 776 901 l 635 731 q 593 726 615 706 m 844 -1 q 632 122 678 -1 q 363 1 560 1 l 313 1 q 159 50 208 1 q 111 203 111 98 q 159 356 111 308 q 313 404 208 404 l 608 404 q 566 543 608 503 q 424 583 525 583 l 371 583 q 223 557 265 583 q 182 488 182 531 q 174 467 182 475 q 153 458 165 458 q 132 467 140 458 q 124 488 124 475 q 183 602 124 563 q 371 642 242 642 l 424 642 q 638 531 585 642 q 846 640 688 642 l 929 640 q 1109 576 1052 640 q 1167 375 1167 513 q 1138 346 1167 346 l 667 346 l 667 244 q 707 99 667 142 q 844 57 747 57 l 929 57 q 1069 86 1029 57 q 1108 188 1108 116 q 1117 208 1108 200 q 1138 217 1125 217 q 1158 208 1150 217 q 1167 188 1167 200 q 1109 44 1167 89 q 929 -1 1052 -1 l 844 -1 m 313 60 l 363 60 q 548 105 487 60 q 608 239 608 149 l 608 346 l 313 346 q 201 315 233 346 q 169 203 169 283 q 201 91 169 123 q 313 60 233 60 m 667 404 l 1108 404 q 1062 542 1103 501 q 929 582 1021 582 l 846 582 q 708 543 748 583 q 667 404 668 503 z "},"b":{"ha":836,"x_min":125,"x_max":725,"o":"m 154 0 q 125 29 125 0 l 125 929 q 154 958 125 958 q 183 929 183 958 l 183 536 q 272 615 213 588 q 429 642 331 642 l 482 642 q 667 584 609 642 q 725 399 725 526 l 725 243 q 667 58 725 116 q 482 0 609 0 l 429 0 q 272 27 331 0 q 183 106 213 53 l 183 29 q 154 0 183 0 m 429 58 l 482 58 q 625 100 584 58 q 667 243 667 141 l 667 399 q 625 542 667 501 q 482 583 584 583 l 429 583 q 250 546 316 583 q 183 432 183 508 l 183 206 q 251 95 185 132 q 429 58 317 58 z "},"ḃ":{"ha":836,"x_min":125,"x_max":725,"o":"m 435 771 q 394 814 394 771 l 394 842 q 435 884 394 884 l 464 884 q 505 842 505 884 l 505 814 q 464 771 505 771 l 435 771 m 154 0 q 125 29 125 0 l 125 929 q 154 958 125 958 q 183 929 183 958 l 183 536 q 272 615 213 588 q 429 642 331 642 l 482 642 q 667 584 609 642 q 725 399 725 526 l 725 243 q 667 58 725 116 q 482 0 609 0 l 429 0 q 272 27 331 0 q 183 106 213 53 l 183 29 q 154 0 183 0 m 429 58 l 482 58 q 625 100 584 58 q 667 243 667 141 l 667 399 q 625 542 667 501 q 482 583 584 583 l 429 583 q 250 546 316 583 q 183 432 183 508 l 183 206 q 251 95 185 132 q 429 58 317 58 z "},"c":{"ha":779,"x_min":111,"x_max":683,"o":"m 354 0 q 169 58 227 0 q 111 243 111 116 l 111 399 q 169 584 111 526 q 354 640 227 642 l 468 640 q 622 606 570 640 q 682 497 674 572 q 675 475 683 483 q 653 467 667 467 q 633 474 640 467 q 624 494 626 481 q 582 562 617 542 q 468 582 547 582 l 354 582 q 211 543 252 583 q 169 399 169 502 l 169 243 q 211 100 169 141 q 354 58 252 58 l 468 58 q 582 78 547 58 q 624 146 617 98 q 633 167 626 160 q 653 174 640 174 q 675 166 667 174 q 682 143 683 158 q 622 35 674 69 q 468 0 570 0 l 354 0 z "},"ć":{"ha":779,"x_min":111,"x_max":683,"o":"m 375 726 q 371 768 354 745 l 496 915 q 538 919 515 940 q 542 878 558 901 l 417 731 q 375 726 397 706 m 354 0 q 169 58 227 0 q 111 243 111 116 l 111 399 q 169 584 111 526 q 354 640 227 642 l 468 640 q 622 606 570 640 q 682 497 674 572 q 675 475 683 483 q 653 467 667 467 q 633 474 640 467 q 624 494 626 481 q 582 562 617 542 q 468 582 547 582 l 354 582 q 211 543 252 583 q 169 399 169 502 l 169 243 q 211 100 169 141 q 354 58 252 58 l 468 58 q 582 78 547 58 q 624 146 617 98 q 633 167 626 160 q 653 174 640 174 q 675 166 667 174 q 682 143 683 158 q 622 35 674 69 q 468 0 570 0 l 354 0 z "},"č":{"ha":779,"x_min":111,"x_max":683,"o":"m 282 929 q 306 917 297 929 l 410 778 l 418 778 l 522 917 q 546 929 531 929 q 567 921 558 929 q 575 900 575 913 q 573 891 575 895 q 569 882 572 886 l 461 738 q 426 719 447 719 l 401 719 q 367 738 381 719 l 258 882 q 255 891 256 886 q 253 900 253 895 q 261 921 253 913 q 282 929 269 929 m 354 0 q 169 58 227 0 q 111 243 111 116 l 111 399 q 169 584 111 526 q 354 640 227 642 l 468 640 q 622 606 570 640 q 682 497 674 572 q 675 475 683 483 q 653 467 667 467 q 633 474 640 467 q 624 494 626 481 q 582 562 617 542 q 468 582 547 582 l 354 582 q 211 543 252 583 q 169 399 169 502 l 169 243 q 211 100 169 141 q 354 58 252 58 l 468 58 q 582 78 547 58 q 624 146 617 98 q 633 167 626 160 q 653 174 640 174 q 675 166 667 174 q 682 143 683 158 q 622 35 674 69 q 468 0 570 0 l 354 0 z "},"ç":{"ha":779,"x_min":111,"x_max":683,"o":"m 354 0 q 169 58 227 0 q 111 243 111 116 l 111 399 q 169 584 111 526 q 354 640 227 642 l 468 640 q 622 606 570 640 q 682 497 674 572 q 675 475 683 483 q 653 467 667 467 q 633 474 640 467 q 624 494 626 481 q 582 562 617 542 q 468 582 547 582 l 354 582 q 211 543 252 583 q 169 399 169 502 l 169 243 q 211 100 169 141 q 354 58 252 58 l 468 58 q 582 78 547 58 q 624 146 617 98 q 633 167 626 160 q 653 174 640 174 q 675 166 667 174 q 682 143 683 158 q 622 35 674 69 q 468 0 570 0 l 354 0 m 429 -278 q 314 -162 314 -278 q 343 -133 314 -133 q 372 -162 372 -133 q 384 -208 372 -196 q 429 -219 396 -219 q 496 -201 478 -219 q 514 -135 514 -183 q 507 -109 514 -119 q 478 -85 500 -100 q 449 -63 465 -76 q 423 -30 434 -50 q 413 21 413 -10 q 442 50 413 50 q 471 21 471 50 q 478 -9 471 2 q 510 -36 486 -20 q 550 -70 528 -49 q 572 -135 572 -92 q 538 -243 572 -208 q 429 -278 503 -278 z "},"ĉ":{"ha":779,"x_min":111,"x_max":683,"o":"m 354 0 q 169 58 227 0 q 111 243 111 116 l 111 399 q 169 584 111 526 q 354 640 227 642 l 468 640 q 622 606 570 640 q 682 497 674 572 q 675 475 683 483 q 653 467 667 467 q 633 474 640 467 q 624 494 626 481 q 582 562 617 542 q 468 582 547 582 l 354 582 q 211 543 252 583 q 169 399 169 502 l 169 243 q 211 100 169 141 q 354 58 252 58 l 468 58 q 582 78 547 58 q 624 146 617 98 q 633 167 626 160 q 653 174 640 174 q 675 166 667 174 q 682 143 683 158 q 622 35 674 69 q 468 0 570 0 l 354 0 m 285 719 q 264 728 272 719 q 256 749 256 736 q 257 758 256 754 q 261 767 259 763 l 369 911 q 404 929 383 929 l 429 929 q 464 911 450 929 l 572 767 q 576 758 574 763 q 578 749 578 754 q 569 728 578 736 q 549 719 561 719 q 525 732 533 719 l 421 871 l 413 871 l 308 732 q 285 719 300 719 z "},"ċ":{"ha":779,"x_min":111,"x_max":683,"o":"m 399 771 q 358 814 358 771 l 358 842 q 399 884 358 884 l 428 884 q 469 842 469 884 l 469 814 q 428 771 469 771 l 399 771 m 354 0 q 169 58 227 0 q 111 243 111 116 l 111 399 q 169 584 111 526 q 354 640 227 642 l 468 640 q 622 606 570 640 q 682 497 674 572 q 675 475 683 483 q 653 467 667 467 q 633 474 640 467 q 624 494 626 481 q 582 562 617 542 q 468 582 547 582 l 354 582 q 211 543 252 583 q 169 399 169 502 l 169 243 q 211 100 169 141 q 354 58 252 58 l 468 58 q 582 78 547 58 q 624 146 617 98 q 633 167 626 160 q 653 174 640 174 q 675 166 667 174 q 682 143 683 158 q 622 35 674 69 q 468 0 570 0 l 354 0 z "},"d":{"ha":824,"x_min":111,"x_max":711,"o":"m 354 0 q 169 58 227 0 q 111 243 111 116 l 111 397 q 169 582 111 524 q 354 640 227 640 l 653 640 l 653 929 q 682 958 653 958 q 711 929 711 958 l 711 29 q 682 0 711 0 q 653 29 653 0 l 653 106 q 564 27 624 53 q 407 0 505 0 l 354 0 m 354 58 l 407 58 q 587 96 521 58 q 653 210 653 134 l 653 582 l 354 582 q 211 541 252 582 q 169 397 169 499 l 169 243 q 211 100 169 141 q 354 58 252 58 z "},"ð":{"ha":822,"x_min":111,"x_max":711,"o":"m 354 1 q 169 59 227 1 q 111 243 111 117 l 111 399 q 169 585 111 527 q 354 642 227 643 l 468 642 q 571 625 526 642 q 646 574 617 608 q 623 720 639 662 q 581 810 607 778 q 518 851 555 842 l 197 932 q 176 968 170 940 q 213 989 183 997 l 532 907 q 667 773 625 884 q 711 432 709 661 l 711 244 q 653 59 711 117 q 468 1 595 1 l 354 1 m 354 60 l 468 60 q 611 101 570 60 q 653 244 653 142 l 653 432 q 630 523 653 490 q 565 569 606 556 q 468 583 523 583 l 354 583 q 245 566 286 584 q 187 508 205 549 q 169 399 169 467 l 169 243 q 211 101 169 142 q 354 60 252 60 m 289 789 q 247 790 267 769 q 249 832 228 812 l 461 1031 q 503 1029 483 1051 q 501 988 522 1008 l 289 789 z "},"ď":{"ha":857,"x_min":111,"x_max":912,"o":"m 838 763 q 821 769 828 763 q 815 788 813 776 l 839 932 q 867 958 842 958 l 885 958 q 912 928 912 958 l 912 915 q 911 897 912 902 q 909 889 910 892 l 860 780 q 838 763 852 763 m 354 0 q 169 58 227 0 q 111 243 111 116 l 111 397 q 169 582 111 524 q 354 640 227 640 l 653 640 l 653 929 q 682 958 653 958 q 711 929 711 958 l 711 29 q 682 0 711 0 q 653 29 653 0 l 653 106 q 564 27 624 53 q 407 0 505 0 l 354 0 m 354 58 l 407 58 q 587 96 521 58 q 653 210 653 134 l 653 582 l 354 582 q 211 541 252 582 q 169 397 169 499 l 169 243 q 211 100 169 141 q 354 58 252 58 z "},"đ":{"ha":824,"x_min":111,"x_max":838,"o":"m 354 0 q 169 58 227 0 q 111 243 111 116 l 111 397 q 169 582 111 524 q 354 640 227 640 l 653 640 l 653 929 q 682 958 653 958 q 711 929 711 958 l 711 29 q 682 0 711 0 q 653 29 653 0 l 653 106 q 564 27 624 53 q 407 0 505 0 l 354 0 m 354 58 l 407 58 q 587 96 521 58 q 653 210 653 134 l 653 582 l 354 582 q 211 541 252 582 q 169 397 169 499 l 169 243 q 211 100 169 141 q 354 58 252 58 m 450 764 q 421 793 421 764 q 450 822 421 822 l 808 822 q 838 793 838 822 q 808 764 838 764 l 450 764 z "},"ḋ":{"ha":824,"x_min":111,"x_max":711,"o":"m 434 771 q 392 814 392 771 l 392 842 q 434 884 392 884 l 463 884 q 503 842 503 884 l 503 814 q 463 771 503 771 l 434 771 m 354 0 q 169 58 227 0 q 111 243 111 116 l 111 397 q 169 582 111 524 q 354 640 227 640 l 653 640 l 653 929 q 682 958 653 958 q 711 929 711 958 l 711 29 q 682 0 711 0 q 653 29 653 0 l 653 106 q 564 27 624 53 q 407 0 505 0 l 354 0 m 354 58 l 407 58 q 587 96 521 58 q 653 210 653 134 l 653 582 l 354 582 q 211 541 252 582 q 169 397 169 499 l 169 243 q 211 100 169 141 q 354 58 252 58 z "},"ǳ":{"ha":1451,"x_min":111,"x_max":1405,"o":"m 354 0 q 169 58 227 0 q 111 243 111 116 l 111 397 q 169 582 111 524 q 354 640 227 640 l 653 640 l 653 929 q 682 958 653 958 q 711 929 711 958 l 711 29 q 682 0 711 0 q 653 29 653 0 l 653 106 q 564 27 624 53 q 407 0 505 0 l 354 0 m 354 58 l 407 58 q 587 96 521 58 q 653 210 653 134 l 653 582 l 354 582 q 211 541 252 582 q 169 397 169 499 l 169 243 q 211 100 169 141 q 354 58 252 58 m 860 0 q 831 29 831 0 q 843 61 831 44 l 1276 594 l 1313 582 l 981 582 q 900 564 924 582 q 869 499 875 547 q 861 477 869 484 q 840 469 854 469 q 818 477 826 469 q 811 500 810 485 q 859 607 817 573 q 981 640 901 640 l 1321 640 q 1350 611 1350 640 q 1338 578 1350 594 l 911 51 l 882 58 l 1233 58 q 1313 78 1287 58 q 1344 142 1340 97 q 1353 164 1347 156 q 1375 171 1360 171 q 1397 163 1390 171 q 1403 140 1405 155 q 1233 0 1388 0 l 860 0 z "},"ǆ":{"ha":1451,"x_min":111,"x_max":1405,"o":"m 976 929 q 1000 917 992 929 l 1104 778 l 1113 778 l 1217 917 q 1240 929 1225 929 q 1261 921 1253 929 q 1269 900 1269 913 q 1268 891 1269 895 q 1264 882 1266 886 l 1156 738 q 1121 719 1142 719 l 1096 719 q 1061 738 1075 719 l 953 882 q 949 891 951 886 q 947 900 947 895 q 956 921 947 913 q 976 929 964 929 m 354 0 q 169 58 227 0 q 111 243 111 116 l 111 397 q 169 582 111 524 q 354 640 227 640 l 653 640 l 653 929 q 682 958 653 958 q 711 929 711 958 l 711 29 q 682 0 711 0 q 653 29 653 0 l 653 106 q 564 27 624 53 q 407 0 505 0 l 354 0 m 354 58 l 407 58 q 587 96 521 58 q 653 210 653 134 l 653 582 l 354 582 q 211 541 252 582 q 169 397 169 499 l 169 243 q 211 100 169 141 q 354 58 252 58 m 860 0 q 831 29 831 0 q 843 61 831 44 l 1276 594 l 1313 582 l 981 582 q 900 564 924 582 q 869 499 875 547 q 861 477 869 484 q 840 469 854 469 q 818 477 826 469 q 811 500 810 485 q 859 607 817 573 q 981 640 901 640 l 1321 640 q 1350 611 1350 640 q 1338 578 1350 594 l 911 51 l 882 58 l 1233 58 q 1313 78 1287 58 q 1344 142 1340 97 q 1353 164 1347 156 q 1375 171 1360 171 q 1397 163 1390 171 q 1403 140 1405 155 q 1233 0 1388 0 l 860 0 z "},"e":{"ha":822,"x_min":111,"x_max":711,"o":"m 169 299 l 169 242 q 211 100 169 141 q 354 58 252 58 l 468 58 q 603 84 562 58 q 651 172 645 110 q 660 194 653 187 q 682 201 667 201 q 703 193 696 201 q 710 171 711 185 q 644 41 703 83 q 468 0 585 0 l 354 0 q 169 58 227 0 q 111 242 111 116 l 111 397 q 169 584 111 526 q 354 640 227 642 l 468 640 q 653 582 595 640 q 711 397 711 524 l 711 328 q 682 299 711 299 l 169 299 m 354 582 q 211 542 252 583 q 169 397 169 501 l 169 357 l 653 357 l 653 397 q 611 541 653 499 q 468 582 570 582 l 354 582 z "},"é":{"ha":822,"x_min":111,"x_max":711,"o":"m 383 726 q 379 768 363 745 l 504 915 q 546 919 524 940 q 550 878 567 901 l 425 731 q 383 726 406 706 m 169 299 l 169 242 q 211 100 169 141 q 354 58 252 58 l 468 58 q 603 84 562 58 q 651 172 645 110 q 660 194 653 187 q 682 201 667 201 q 703 193 696 201 q 710 171 711 185 q 644 41 703 83 q 468 0 585 0 l 354 0 q 169 58 227 0 q 111 242 111 116 l 111 397 q 169 584 111 526 q 354 640 227 642 l 468 640 q 653 582 595 640 q 711 397 711 524 l 711 328 q 682 299 711 299 l 169 299 m 354 582 q 211 542 252 583 q 169 397 169 501 l 169 357 l 653 357 l 653 397 q 611 541 653 499 q 468 582 570 582 l 354 582 z "},"ĕ":{"ha":822,"x_min":111,"x_max":711,"o":"m 169 299 l 169 242 q 211 100 169 141 q 354 58 252 58 l 468 58 q 603 84 562 58 q 651 172 645 110 q 660 194 653 187 q 682 201 667 201 q 703 193 696 201 q 710 171 711 185 q 644 41 703 83 q 468 0 585 0 l 354 0 q 169 58 227 0 q 111 242 111 116 l 111 397 q 169 584 111 526 q 354 640 227 642 l 468 640 q 653 582 595 640 q 711 397 711 524 l 711 328 q 682 299 711 299 l 169 299 m 354 582 q 211 542 252 583 q 169 397 169 501 l 169 357 l 653 357 l 653 397 q 611 541 653 499 q 468 582 570 582 l 354 582 m 424 721 q 296 763 340 720 q 253 889 253 806 l 253 892 q 282 921 253 921 q 311 892 311 921 l 311 889 q 338 804 311 831 q 422 778 364 778 q 508 805 482 779 q 533 889 533 831 l 533 892 q 563 921 533 921 q 592 892 592 921 l 592 889 q 548 762 592 803 q 424 721 504 721 z "},"ě":{"ha":822,"x_min":111,"x_max":711,"o":"m 290 929 q 314 917 306 929 l 418 778 l 426 778 l 531 917 q 554 929 539 929 q 575 921 567 929 q 583 900 583 913 q 582 891 583 895 q 578 882 580 886 l 469 738 q 435 719 456 719 l 410 719 q 375 738 389 719 l 267 882 q 263 891 265 886 q 261 900 261 895 q 269 921 261 913 q 290 929 278 929 m 169 299 l 169 242 q 211 100 169 141 q 354 58 252 58 l 468 58 q 603 84 562 58 q 651 172 645 110 q 660 194 653 187 q 682 201 667 201 q 703 193 696 201 q 710 171 711 185 q 644 41 703 83 q 468 0 585 0 l 354 0 q 169 58 227 0 q 111 242 111 116 l 111 397 q 169 584 111 526 q 354 640 227 642 l 468 640 q 653 582 595 640 q 711 397 711 524 l 711 328 q 682 299 711 299 l 169 299 m 354 582 q 211 542 252 583 q 169 397 169 501 l 169 357 l 653 357 l 653 397 q 611 541 653 499 q 468 582 570 582 l 354 582 z "},"ê":{"ha":822,"x_min":111,"x_max":711,"o":"m 169 299 l 169 242 q 211 100 169 141 q 354 58 252 58 l 468 58 q 603 84 562 58 q 651 172 645 110 q 660 194 653 187 q 682 201 667 201 q 703 193 696 201 q 710 171 711 185 q 644 41 703 83 q 468 0 585 0 l 354 0 q 169 58 227 0 q 111 242 111 116 l 111 397 q 169 584 111 526 q 354 640 227 642 l 468 640 q 653 582 595 640 q 711 397 711 524 l 711 328 q 682 299 711 299 l 169 299 m 354 582 q 211 542 252 583 q 169 397 169 501 l 169 357 l 653 357 l 653 397 q 611 541 653 499 q 468 582 570 582 l 354 582 m 293 719 q 272 728 281 719 q 264 749 264 736 q 266 758 264 754 q 269 767 267 763 l 378 911 q 413 929 392 929 l 438 929 q 472 911 458 929 l 581 767 q 584 758 583 763 q 586 749 586 754 q 578 728 586 736 q 557 719 569 719 q 533 732 542 719 l 429 871 l 421 871 l 317 732 q 293 719 308 719 z "},"ế":{"ha":822,"x_min":111,"x_max":711,"o":"m 169 299 l 169 242 q 211 100 169 141 q 354 58 252 58 l 468 58 q 603 84 562 58 q 651 172 645 110 q 660 194 653 187 q 682 201 667 201 q 703 193 696 201 q 710 171 711 185 q 644 41 703 83 q 468 0 585 0 l 354 0 q 169 58 227 0 q 111 242 111 116 l 111 397 q 169 584 111 526 q 354 640 227 642 l 468 640 q 653 582 595 640 q 711 397 711 524 l 711 328 q 682 299 711 299 l 169 299 m 354 582 q 211 542 252 583 q 169 397 169 501 l 169 357 l 653 357 l 653 397 q 611 541 653 499 q 468 582 570 582 l 354 582 m 550 851 q 539 872 540 861 q 546 893 538 882 l 633 996 q 675 1000 653 1020 q 679 958 696 981 l 592 856 q 550 851 572 831 m 290 719 q 269 728 278 719 q 261 749 261 736 q 263 758 261 754 q 267 767 265 763 l 375 911 q 410 929 389 929 l 435 929 q 469 911 456 929 l 578 767 q 582 758 580 763 q 583 749 583 754 q 575 728 583 736 q 554 719 567 719 q 531 732 539 719 l 426 871 l 418 871 l 314 732 q 290 719 306 719 z "},"ệ":{"ha":822,"x_min":111,"x_max":711,"o":"m 169 299 l 169 242 q 211 100 169 141 q 354 58 252 58 l 468 58 q 603 84 562 58 q 651 172 645 110 q 660 194 653 187 q 682 201 667 201 q 703 193 696 201 q 710 171 711 185 q 644 41 703 83 q 468 0 585 0 l 354 0 q 169 58 227 0 q 111 242 111 116 l 111 397 q 169 584 111 526 q 354 640 227 642 l 468 640 q 653 582 595 640 q 711 397 711 524 l 711 328 q 682 299 711 299 l 169 299 m 354 582 q 211 542 252 583 q 169 397 169 501 l 169 357 l 653 357 l 653 397 q 611 541 653 499 q 468 582 570 582 l 354 582 m 410 -208 q 375 -172 375 -208 l 375 -149 q 410 -114 375 -114 l 433 -114 q 468 -149 468 -114 l 468 -172 q 433 -208 468 -208 l 410 -208 m 293 719 q 272 728 281 719 q 264 749 264 736 q 266 758 264 754 q 269 767 267 763 l 378 911 q 413 929 392 929 l 438 929 q 472 911 458 929 l 581 767 q 584 758 583 763 q 586 749 586 754 q 578 728 586 736 q 557 719 569 719 q 533 732 542 719 l 429 871 l 421 871 l 317 732 q 293 719 308 719 z "},"ề":{"ha":822,"x_min":111,"x_max":711,"o":"m 169 299 l 169 242 q 211 100 169 141 q 354 58 252 58 l 468 58 q 603 84 562 58 q 651 172 645 110 q 660 194 653 187 q 682 201 667 201 q 703 193 696 201 q 710 171 711 185 q 644 41 703 83 q 468 0 585 0 l 354 0 q 169 58 227 0 q 111 242 111 116 l 111 397 q 169 584 111 526 q 354 640 227 642 l 468 640 q 653 582 595 640 q 711 397 711 524 l 711 328 q 682 299 711 299 l 169 299 m 354 582 q 211 542 252 583 q 169 397 169 501 l 169 357 l 653 357 l 653 397 q 611 541 653 499 q 468 582 570 582 l 354 582 m 297 851 q 256 856 275 831 l 168 958 q 161 981 160 970 q 172 1000 162 991 q 214 996 194 1020 l 301 893 q 309 872 310 882 q 297 851 308 861 m 290 719 q 269 728 278 719 q 261 749 261 736 q 263 758 261 754 q 267 767 265 763 l 375 911 q 410 929 389 929 l 435 929 q 469 911 456 929 l 578 767 q 582 758 580 763 q 583 749 583 754 q 575 728 583 736 q 554 719 567 719 q 531 732 539 719 l 426 871 l 418 871 l 314 732 q 290 719 306 719 z "},"ể":{"ha":822,"x_min":111,"x_max":719,"o":"m 169 299 l 169 242 q 211 100 169 141 q 354 58 252 58 l 468 58 q 603 84 562 58 q 651 172 645 110 q 660 194 653 187 q 682 201 667 201 q 703 193 696 201 q 710 171 711 185 q 644 41 703 83 q 468 0 585 0 l 354 0 q 169 58 227 0 q 111 242 111 116 l 111 397 q 169 584 111 526 q 354 640 227 642 l 468 640 q 653 582 595 640 q 711 397 711 524 l 711 328 q 682 299 711 299 l 169 299 m 354 582 q 211 542 252 583 q 169 397 169 501 l 169 357 l 653 357 l 653 397 q 611 541 653 499 q 468 582 570 582 l 354 582 m 290 719 q 269 728 278 719 q 261 749 261 736 q 263 758 261 754 q 267 767 265 763 l 375 911 q 410 929 389 929 l 435 929 q 469 911 456 929 l 578 767 q 582 758 580 763 q 583 749 583 754 q 575 728 583 736 q 554 719 567 719 q 531 732 539 719 l 426 871 l 418 871 l 314 732 q 290 719 306 719 m 589 832 q 567 839 574 832 q 560 861 560 847 q 583 927 560 905 q 625 960 606 949 q 655 982 648 974 q 661 1003 661 990 q 649 1048 661 1036 q 604 1060 638 1060 q 559 1048 571 1060 q 547 1003 547 1036 q 540 981 547 988 q 518 974 533 974 q 496 981 503 974 q 489 1003 489 988 q 604 1118 489 1118 q 719 1003 719 1118 q 697 942 719 963 q 656 910 674 922 q 625 886 633 895 q 618 861 618 877 q 611 839 618 847 q 589 832 603 832 z "},"ễ":{"ha":822,"x_min":111,"x_max":711,"o":"m 169 299 l 169 242 q 211 100 169 141 q 354 58 252 58 l 468 58 q 603 84 562 58 q 651 172 645 110 q 660 194 653 187 q 682 201 667 201 q 703 193 696 201 q 710 171 711 185 q 644 41 703 83 q 468 0 585 0 l 354 0 q 169 58 227 0 q 111 242 111 116 l 111 397 q 169 584 111 526 q 354 640 227 642 l 468 640 q 653 582 595 640 q 711 397 711 524 l 711 328 q 682 299 711 299 l 169 299 m 354 582 q 211 542 252 583 q 169 397 169 501 l 169 357 l 653 357 l 653 397 q 611 541 653 499 q 468 582 570 582 l 354 582 m 290 719 q 269 728 278 719 q 261 749 261 736 q 263 758 261 754 q 267 767 265 763 l 375 911 q 410 929 389 929 l 435 929 q 469 911 456 929 l 578 767 q 582 758 580 763 q 583 749 583 754 q 575 728 583 736 q 554 719 567 719 q 531 732 539 719 l 426 871 l 418 871 l 314 732 q 290 719 306 719 m 490 964 q 448 976 465 964 q 419 1004 431 988 q 395 1032 407 1020 q 367 1044 383 1044 q 341 1030 351 1044 q 318 985 332 1015 q 307 970 314 976 q 290 964 300 964 q 265 979 272 964 q 263 1003 258 994 q 308 1077 285 1052 q 368 1103 331 1103 q 414 1091 396 1103 q 444 1063 431 1078 q 468 1034 456 1047 q 494 1022 479 1022 q 518 1034 509 1022 q 532 1061 527 1047 q 540 1082 538 1075 q 550 1097 544 1092 q 569 1103 557 1103 q 593 1089 588 1103 q 596 1064 597 1076 q 580 1021 594 1044 q 542 981 565 998 q 490 964 519 964 z "},"ȅ":{"ha":822,"x_min":111,"x_max":711,"o":"m 358 738 q 320 742 338 721 l 208 875 q 211 913 192 895 q 249 908 231 930 l 361 776 q 358 738 376 756 m 510 738 q 473 742 490 721 l 360 875 q 364 913 345 895 q 401 908 384 930 l 514 776 q 510 738 529 756 m 169 299 l 169 242 q 211 100 169 141 q 354 58 252 58 l 468 58 q 603 84 562 58 q 651 172 645 110 q 660 194 653 187 q 682 201 667 201 q 703 193 696 201 q 710 171 711 185 q 644 41 703 83 q 468 0 585 0 l 354 0 q 169 58 227 0 q 111 242 111 116 l 111 397 q 169 584 111 526 q 354 640 227 642 l 468 640 q 653 582 595 640 q 711 397 711 524 l 711 328 q 682 299 711 299 l 169 299 m 354 582 q 211 542 252 583 q 169 397 169 501 l 169 357 l 653 357 l 653 397 q 611 541 653 499 q 468 582 570 582 l 354 582 z "},"ë":{"ha":822,"x_min":111,"x_max":711,"o":"m 169 299 l 169 242 q 211 100 169 141 q 354 58 252 58 l 468 58 q 603 84 562 58 q 651 172 645 110 q 660 194 653 187 q 682 201 667 201 q 703 193 696 201 q 710 171 711 185 q 644 41 703 83 q 468 0 585 0 l 354 0 q 169 58 227 0 q 111 242 111 116 l 111 397 q 169 584 111 526 q 354 640 227 642 l 468 640 q 653 582 595 640 q 711 397 711 524 l 711 328 q 682 299 711 299 l 169 299 m 354 582 q 211 542 252 583 q 169 397 169 501 l 169 357 l 653 357 l 653 397 q 611 541 653 499 q 468 582 570 582 l 354 582 m 311 763 q 276 799 276 763 l 276 822 q 311 857 276 857 l 335 857 q 369 822 369 857 l 369 799 q 335 763 369 763 l 311 763 m 510 763 q 475 799 475 763 l 475 822 q 510 857 475 857 l 533 857 q 568 822 568 857 l 568 799 q 533 763 568 763 l 510 763 z "},"ė":{"ha":822,"x_min":111,"x_max":711,"o":"m 408 771 q 366 814 366 771 l 366 842 q 408 884 366 884 l 436 884 q 477 842 477 884 l 477 814 q 436 771 477 771 l 408 771 m 169 299 l 169 242 q 211 100 169 141 q 354 58 252 58 l 468 58 q 603 84 562 58 q 651 172 645 110 q 660 194 653 187 q 682 201 667 201 q 703 193 696 201 q 710 171 711 185 q 644 41 703 83 q 468 0 585 0 l 354 0 q 169 58 227 0 q 111 242 111 116 l 111 397 q 169 584 111 526 q 354 640 227 642 l 468 640 q 653 582 595 640 q 711 397 711 524 l 711 328 q 682 299 711 299 l 169 299 m 354 582 q 211 542 252 583 q 169 397 169 501 l 169 357 l 653 357 l 653 397 q 611 541 653 499 q 468 582 570 582 l 354 582 z "},"ẹ":{"ha":822,"x_min":111,"x_max":711,"o":"m 169 299 l 169 242 q 211 100 169 141 q 354 58 252 58 l 468 58 q 603 84 562 58 q 651 172 645 110 q 660 194 653 187 q 682 201 667 201 q 703 193 696 201 q 710 171 711 185 q 644 41 703 83 q 468 0 585 0 l 354 0 q 169 58 227 0 q 111 242 111 116 l 111 397 q 169 584 111 526 q 354 640 227 642 l 468 640 q 653 582 595 640 q 711 397 711 524 l 711 328 q 682 299 711 299 l 169 299 m 354 582 q 211 542 252 583 q 169 397 169 501 l 169 357 l 653 357 l 653 397 q 611 541 653 499 q 468 582 570 582 l 354 582 m 410 -208 q 375 -172 375 -208 l 375 -149 q 410 -114 375 -114 l 433 -114 q 468 -149 468 -114 l 468 -172 q 433 -208 468 -208 l 410 -208 z "},"è":{"ha":822,"x_min":111,"x_max":711,"o":"m 169 299 l 169 242 q 211 100 169 141 q 354 58 252 58 l 468 58 q 603 84 562 58 q 651 172 645 110 q 660 194 653 187 q 682 201 667 201 q 703 193 696 201 q 710 171 711 185 q 644 41 703 83 q 468 0 585 0 l 354 0 q 169 58 227 0 q 111 242 111 116 l 111 397 q 169 584 111 526 q 354 640 227 642 l 468 640 q 653 582 595 640 q 711 397 711 524 l 711 328 q 682 299 711 299 l 169 299 m 354 582 q 211 542 252 583 q 169 397 169 501 l 169 357 l 653 357 l 653 397 q 611 541 653 499 q 468 582 570 582 l 354 582 m 461 726 q 419 731 439 706 l 294 878 q 299 919 278 901 q 340 915 321 940 l 465 768 q 461 726 482 745 z "},"ẻ":{"ha":822,"x_min":111,"x_max":711,"o":"m 169 299 l 169 242 q 211 100 169 141 q 354 58 252 58 l 468 58 q 603 84 562 58 q 651 172 645 110 q 660 194 653 187 q 682 201 667 201 q 703 193 696 201 q 710 171 711 185 q 644 41 703 83 q 468 0 585 0 l 354 0 q 169 58 227 0 q 111 242 111 116 l 111 397 q 169 584 111 526 q 354 640 227 642 l 468 640 q 653 582 595 640 q 711 397 711 524 l 711 328 q 682 299 711 299 l 169 299 m 354 582 q 211 542 252 583 q 169 397 169 501 l 169 357 l 653 357 l 653 397 q 611 541 653 499 q 468 582 570 582 l 354 582 m 422 719 q 400 727 408 719 q 393 749 393 734 q 416 814 393 792 q 458 847 440 836 q 488 869 481 861 q 494 890 494 877 q 483 935 494 924 q 438 947 471 947 q 392 935 404 947 q 381 890 381 924 q 373 868 381 876 q 351 861 366 861 q 330 868 337 861 q 322 890 322 876 q 438 1006 322 1006 q 553 890 553 1006 q 530 830 553 850 q 489 797 508 809 q 459 774 466 783 q 451 749 451 765 q 444 727 451 734 q 422 719 437 719 z "},"ȇ":{"ha":822,"x_min":111,"x_max":711,"o":"m 424 928 q 548 887 504 928 q 592 760 592 847 l 592 757 q 563 728 592 728 q 533 757 533 728 l 533 760 q 508 844 533 818 q 422 871 482 870 q 338 844 364 871 q 311 760 311 818 l 311 757 q 282 728 311 728 q 253 757 253 728 l 253 760 q 296 886 253 843 q 424 928 340 929 m 169 299 l 169 242 q 211 100 169 141 q 354 58 252 58 l 468 58 q 603 84 562 58 q 651 172 645 110 q 660 194 653 187 q 682 201 667 201 q 703 193 696 201 q 710 171 711 185 q 644 41 703 83 q 468 0 585 0 l 354 0 q 169 58 227 0 q 111 242 111 116 l 111 397 q 169 584 111 526 q 354 640 227 642 l 468 640 q 653 582 595 640 q 711 397 711 524 l 711 328 q 682 299 711 299 l 169 299 m 354 582 q 211 542 252 583 q 169 397 169 501 l 169 357 l 653 357 l 653 397 q 611 541 653 499 q 468 582 570 582 l 354 582 z "},"ē":{"ha":822,"x_min":111,"x_max":711,"o":"m 169 299 l 169 242 q 211 100 169 141 q 354 58 252 58 l 468 58 q 603 84 562 58 q 651 172 645 110 q 660 194 653 187 q 682 201 667 201 q 703 193 696 201 q 710 171 711 185 q 644 41 703 83 q 468 0 585 0 l 354 0 q 169 58 227 0 q 111 242 111 116 l 111 397 q 169 584 111 526 q 354 640 227 642 l 468 640 q 653 582 595 640 q 711 397 711 524 l 711 328 q 682 299 711 299 l 169 299 m 354 582 q 211 542 252 583 q 169 397 169 501 l 169 357 l 653 357 l 653 397 q 611 541 653 499 q 468 582 570 582 l 354 582 m 247 811 q 218 840 218 811 q 247 869 218 869 l 599 869 q 628 840 628 869 q 599 811 628 811 l 247 811 z "},"ę":{"ha":822,"x_min":111,"x_max":742,"o":"m 169 299 l 169 242 q 211 100 169 141 q 354 58 252 58 l 468 58 q 603 84 562 58 q 651 172 645 110 q 660 194 653 187 q 682 201 667 201 q 703 193 696 201 q 710 171 711 185 q 644 41 703 83 q 468 0 585 0 l 354 0 q 169 58 227 0 q 111 242 111 116 l 111 397 q 169 584 111 526 q 354 640 227 642 l 468 640 q 653 582 595 640 q 711 397 711 524 l 711 328 q 682 299 711 299 l 169 299 m 354 582 q 211 542 252 583 q 169 397 169 501 l 169 357 l 653 357 l 653 397 q 611 541 653 499 q 468 582 570 582 l 354 582 m 610 -231 q 523 -199 559 -231 q 488 -121 488 -167 q 518 -39 488 -80 l 629 108 q 640 117 633 114 q 653 119 646 119 q 674 111 665 119 q 682 90 682 103 q 676 72 682 80 l 565 -75 q 546 -121 546 -101 q 564 -157 546 -142 q 610 -172 582 -172 q 652 -162 632 -172 q 692 -133 672 -153 q 701 -127 696 -129 q 713 -125 706 -125 q 733 -133 725 -125 q 742 -154 742 -142 q 740 -166 742 -160 q 733 -175 738 -171 q 674 -216 706 -202 q 610 -231 642 -231 z "},"ẽ":{"ha":822,"x_min":111,"x_max":711,"o":"m 169 299 l 169 242 q 211 100 169 141 q 354 58 252 58 l 468 58 q 603 84 562 58 q 651 172 645 110 q 660 194 653 187 q 682 201 667 201 q 703 193 696 201 q 710 171 711 185 q 644 41 703 83 q 468 0 585 0 l 354 0 q 169 58 227 0 q 111 242 111 116 l 111 397 q 169 584 111 526 q 354 640 227 642 l 468 640 q 653 582 595 640 q 711 397 711 524 l 711 328 q 682 299 711 299 l 169 299 m 354 582 q 211 542 252 583 q 169 397 169 501 l 169 357 l 653 357 l 653 397 q 611 541 653 499 q 468 582 570 582 l 354 582 m 504 763 q 443 780 467 763 q 406 813 420 797 q 377 838 390 828 q 340 847 363 847 q 302 835 315 847 q 276 783 289 822 q 266 768 274 774 q 249 763 258 763 q 223 777 230 763 q 221 801 217 792 q 268 881 240 857 q 340 906 296 906 q 407 888 382 906 q 447 853 432 869 q 477 827 466 834 q 504 821 489 821 q 544 836 528 821 q 569 885 559 851 q 579 900 573 894 q 599 906 585 906 q 622 892 615 906 q 625 868 629 878 q 578 790 606 817 q 504 763 549 763 z "},"ə":{"ha":822,"x_min":111,"x_max":711,"o":"m 653 342 l 653 399 q 611 541 653 500 q 468 582 570 582 l 354 582 q 219 556 260 582 q 171 468 177 531 q 163 446 170 453 q 140 439 155 439 q 119 447 127 439 q 113 469 112 455 q 179 599 120 558 q 354 640 238 640 l 468 640 q 653 583 595 640 q 711 399 711 525 l 711 243 q 653 57 711 115 q 468 0 595 -1 l 354 0 q 169 58 227 0 q 111 243 111 116 l 111 313 q 140 342 111 342 l 653 342 m 468 58 q 611 99 570 58 q 653 243 653 140 l 653 283 l 169 283 l 169 243 q 211 100 169 141 q 354 58 252 58 l 468 58 z "},"f":{"ha":429,"x_min":42,"x_max":401,"o":"m 161 0 q 132 29 132 0 l 132 582 l 71 582 q 42 611 42 582 q 71 640 42 640 l 132 640 l 132 719 q 189 901 132 844 q 371 958 246 958 q 401 929 401 958 q 371 900 401 900 q 231 860 271 900 q 190 719 190 819 l 190 640 l 372 640 q 401 611 401 640 q 372 582 401 582 l 190 582 l 190 29 q 161 0 190 0 z "},"ḟ":{"ha":429,"x_min":42,"x_max":401,"o":"m 298 1046 q 256 1089 256 1046 l 256 1117 q 298 1159 256 1159 l 326 1159 q 367 1117 367 1159 l 367 1089 q 326 1046 367 1046 l 298 1046 m 161 0 q 132 29 132 0 l 132 582 l 71 582 q 42 611 42 582 q 71 640 42 640 l 132 640 l 132 719 q 189 901 132 844 q 371 958 246 958 q 401 929 401 958 q 371 900 401 900 q 231 860 271 900 q 190 719 190 819 l 190 640 l 372 640 q 401 611 401 640 q 372 582 401 582 l 190 582 l 190 29 q 161 0 190 0 z "},"g":{"ha":824,"x_min":111,"x_max":711,"o":"m 282 -278 q 160 -244 201 -278 q 113 -137 119 -210 q 119 -115 112 -123 q 140 -107 127 -107 q 163 -114 155 -107 q 171 -136 170 -122 q 200 -202 175 -184 q 282 -219 226 -219 l 540 -219 q 629 -195 605 -219 q 653 -107 653 -172 l 653 104 q 564 26 623 53 q 407 0 504 0 l 354 0 q 169 58 227 0 q 111 242 111 116 l 111 397 q 169 583 111 526 q 354 640 227 640 l 468 640 q 586 621 542 640 q 653 560 630 601 l 653 611 q 682 640 653 640 q 711 611 711 640 l 711 -107 q 670 -236 711 -195 q 540 -278 629 -278 l 282 -278 m 354 58 l 407 58 q 587 96 521 58 q 653 210 653 134 l 653 426 q 608 547 653 512 q 468 582 563 582 l 354 582 q 211 541 252 582 q 169 397 169 501 l 169 242 q 211 100 169 141 q 354 58 252 58 z "},"ğ":{"ha":824,"x_min":111,"x_max":711,"o":"m 282 -278 q 160 -244 201 -278 q 113 -137 119 -210 q 119 -115 112 -123 q 140 -107 127 -107 q 163 -114 155 -107 q 171 -136 170 -122 q 200 -202 175 -184 q 282 -219 226 -219 l 540 -219 q 629 -195 605 -219 q 653 -107 653 -172 l 653 104 q 564 26 623 53 q 407 0 504 0 l 354 0 q 169 58 227 0 q 111 242 111 116 l 111 397 q 169 583 111 526 q 354 640 227 640 l 468 640 q 586 621 542 640 q 653 560 630 601 l 653 611 q 682 640 653 640 q 711 611 711 640 l 711 -107 q 670 -236 711 -195 q 540 -278 629 -278 l 282 -278 m 354 58 l 407 58 q 587 96 521 58 q 653 210 653 134 l 653 426 q 608 547 653 512 q 468 582 563 582 l 354 582 q 211 541 252 582 q 169 397 169 501 l 169 242 q 211 100 169 141 q 354 58 252 58 m 419 721 q 292 763 335 720 q 249 889 249 806 l 249 892 q 278 921 249 921 q 307 892 307 921 l 307 889 q 333 804 307 831 q 418 778 360 778 q 503 805 478 779 q 529 889 529 831 l 529 892 q 558 921 529 921 q 588 892 588 921 l 588 889 q 544 762 588 803 q 419 721 500 721 z "},"ǧ":{"ha":824,"x_min":111,"x_max":711,"o":"m 286 929 q 310 917 301 929 l 414 778 l 422 778 l 526 917 q 550 929 535 929 q 571 921 563 929 q 579 900 579 913 q 577 891 579 895 q 574 882 576 886 l 465 738 q 431 719 451 719 l 406 719 q 371 738 385 719 l 263 882 q 259 891 260 886 q 257 900 257 895 q 265 921 257 913 q 286 929 274 929 m 282 -278 q 160 -244 201 -278 q 113 -137 119 -210 q 119 -115 112 -123 q 140 -107 127 -107 q 163 -114 155 -107 q 171 -136 170 -122 q 200 -202 175 -184 q 282 -219 226 -219 l 540 -219 q 629 -195 605 -219 q 653 -107 653 -172 l 653 104 q 564 26 623 53 q 407 0 504 0 l 354 0 q 169 58 227 0 q 111 242 111 116 l 111 397 q 169 583 111 526 q 354 640 227 640 l 468 640 q 586 621 542 640 q 653 560 630 601 l 653 611 q 682 640 653 640 q 711 611 711 640 l 711 -107 q 670 -236 711 -195 q 540 -278 629 -278 l 282 -278 m 354 58 l 407 58 q 587 96 521 58 q 653 210 653 134 l 653 426 q 608 547 653 512 q 468 582 563 582 l 354 582 q 211 541 252 582 q 169 397 169 501 l 169 242 q 211 100 169 141 q 354 58 252 58 z "},"ĝ":{"ha":824,"x_min":111,"x_max":711,"o":"m 282 -278 q 160 -244 201 -278 q 113 -137 119 -210 q 119 -115 112 -123 q 140 -107 127 -107 q 163 -114 155 -107 q 171 -136 170 -122 q 200 -202 175 -184 q 282 -219 226 -219 l 540 -219 q 629 -195 605 -219 q 653 -107 653 -172 l 653 104 q 564 26 623 53 q 407 0 504 0 l 354 0 q 169 58 227 0 q 111 242 111 116 l 111 397 q 169 583 111 526 q 354 640 227 640 l 468 640 q 586 621 542 640 q 653 560 630 601 l 653 611 q 682 640 653 640 q 711 611 711 640 l 711 -107 q 670 -236 711 -195 q 540 -278 629 -278 l 282 -278 m 354 58 l 407 58 q 587 96 521 58 q 653 210 653 134 l 653 426 q 608 547 653 512 q 468 582 563 582 l 354 582 q 211 541 252 582 q 169 397 169 501 l 169 242 q 211 100 169 141 q 354 58 252 58 m 289 719 q 268 728 276 719 q 260 749 260 736 q 261 758 260 754 q 265 767 263 763 l 374 911 q 408 929 388 929 l 433 929 q 468 911 454 929 l 576 767 q 580 758 578 763 q 582 749 582 754 q 574 728 582 736 q 553 719 565 719 q 529 732 538 719 l 425 871 l 417 871 l 313 732 q 289 719 304 719 z "},"ģ":{"ha":824,"x_min":111,"x_max":711,"o":"m 428 908 q 445 901 438 908 q 451 882 453 894 l 426 735 q 399 708 424 708 l 380 708 q 352 740 352 708 l 352 753 q 353 771 352 766 q 356 779 354 776 l 406 890 q 428 908 413 908 m 282 -278 q 160 -244 201 -278 q 113 -137 119 -210 q 119 -115 112 -123 q 140 -107 127 -107 q 163 -114 155 -107 q 171 -136 170 -122 q 200 -202 175 -184 q 282 -219 226 -219 l 540 -219 q 629 -195 605 -219 q 653 -107 653 -172 l 653 104 q 564 26 623 53 q 407 0 504 0 l 354 0 q 169 58 227 0 q 111 242 111 116 l 111 397 q 169 583 111 526 q 354 640 227 640 l 468 640 q 586 621 542 640 q 653 560 630 601 l 653 611 q 682 640 653 640 q 711 611 711 640 l 711 -107 q 670 -236 711 -195 q 540 -278 629 -278 l 282 -278 m 354 58 l 407 58 q 587 96 521 58 q 653 210 653 134 l 653 426 q 608 547 653 512 q 468 582 563 582 l 354 582 q 211 541 252 582 q 169 397 169 501 l 169 242 q 211 100 169 141 q 354 58 252 58 z "},"ġ":{"ha":824,"x_min":111,"x_max":711,"o":"m 403 771 q 362 814 362 771 l 362 842 q 403 884 362 884 l 432 884 q 473 842 473 884 l 473 814 q 432 771 473 771 l 403 771 m 282 -278 q 160 -244 201 -278 q 113 -137 119 -210 q 119 -115 112 -123 q 140 -107 127 -107 q 163 -114 155 -107 q 171 -136 170 -122 q 200 -202 175 -184 q 282 -219 226 -219 l 540 -219 q 629 -195 605 -219 q 653 -107 653 -172 l 653 104 q 564 26 623 53 q 407 0 504 0 l 354 0 q 169 58 227 0 q 111 242 111 116 l 111 397 q 169 583 111 526 q 354 640 227 640 l 468 640 q 586 621 542 640 q 653 560 630 601 l 653 611 q 682 640 653 640 q 711 611 711 640 l 711 -107 q 670 -236 711 -195 q 540 -278 629 -278 l 282 -278 m 354 58 l 407 58 q 587 96 521 58 q 653 210 653 134 l 653 426 q 608 547 653 512 q 468 582 563 582 l 354 582 q 211 541 252 582 q 169 397 169 501 l 169 242 q 211 100 169 141 q 354 58 252 58 z "},"h":{"ha":824,"x_min":125,"x_max":711,"o":"m 154 0 q 125 29 125 0 l 125 929 q 154 958 125 958 q 183 929 183 958 l 183 531 q 429 640 247 640 l 468 640 q 653 582 595 640 q 711 397 711 524 l 711 29 q 682 0 711 0 q 653 29 653 0 l 653 397 q 611 541 653 499 q 468 582 570 582 l 429 582 q 252 543 314 582 q 183 421 190 503 l 183 29 q 154 0 183 0 z "},"ħ":{"ha":824,"x_min":0,"x_max":711,"o":"m 154 0 q 125 29 125 0 l 125 929 q 154 958 125 958 q 183 929 183 958 l 183 531 q 429 640 247 640 l 468 640 q 653 582 595 640 q 711 397 711 524 l 711 29 q 682 0 711 0 q 653 29 653 0 l 653 397 q 611 541 653 499 q 468 582 570 582 l 429 582 q 252 543 314 582 q 183 421 190 503 l 183 29 q 154 0 183 0 m 29 764 q 0 793 0 764 q 29 822 0 822 l 388 822 q 417 793 417 822 q 388 764 417 764 l 29 764 z "},"ĥ":{"ha":824,"x_min":0,"x_max":711,"o":"m 154 0 q 125 29 125 0 l 125 929 q 154 958 125 958 q 183 929 183 958 l 183 531 q 429 640 247 640 l 468 640 q 653 582 595 640 q 711 397 711 524 l 711 29 q 682 0 711 0 q 653 29 653 0 l 653 397 q 611 541 653 499 q 468 582 570 582 l 429 582 q 252 543 314 582 q 183 421 190 503 l 183 29 q 154 0 183 0 m 29 1014 q 8 1022 17 1014 q 0 1043 0 1031 q 2 1053 0 1049 q 6 1061 3 1057 l 114 1206 q 149 1224 128 1224 l 174 1224 q 208 1206 194 1224 l 317 1061 q 320 1053 319 1057 q 322 1043 322 1049 q 314 1022 322 1031 q 293 1014 306 1014 q 269 1026 278 1014 l 165 1165 l 157 1165 l 53 1026 q 29 1014 44 1014 z "},"i":{"ha":308,"x_min":98,"x_max":209,"o":"m 140 771 q 98 814 98 771 l 98 842 q 140 884 98 884 l 168 884 q 209 842 209 884 l 209 814 q 168 771 209 771 l 140 771 m 154 0 q 125 29 125 0 l 125 611 q 154 640 125 640 q 183 611 183 640 l 183 29 q 154 0 183 0 z "},"ı":{"ha":308,"x_min":125,"x_max":183,"o":"m 154 0 q 125 29 125 0 l 125 611 q 154 640 125 640 q 183 611 183 640 l 183 29 q 154 0 183 0 z "},"í":{"ha":308,"x_min":94,"x_max":299,"o":"m 115 726 q 111 768 94 745 l 236 915 q 278 919 256 940 q 282 878 299 901 l 157 731 q 115 726 138 706 m 154 0 q 125 29 125 0 l 125 611 q 154 640 125 640 q 183 611 183 640 l 183 29 q 154 0 183 0 z "},"ĭ":{"ha":308,"x_min":-15,"x_max":324,"o":"m 154 0 q 125 29 125 0 l 125 611 q 154 640 125 640 q 183 611 183 640 l 183 29 q 154 0 183 0 m 156 721 q 28 763 72 720 q -15 889 -15 806 l -15 892 q 14 921 -15 921 q 43 892 43 921 l 43 889 q 69 804 43 831 q 154 778 96 778 q 240 805 214 779 q 265 889 265 831 l 265 892 q 294 921 265 921 q 324 892 324 921 l 324 889 q 280 762 324 803 q 156 721 236 721 z "},"î":{"ha":308,"x_min":-4,"x_max":318,"o":"m 154 0 q 125 29 125 0 l 125 611 q 154 640 125 640 q 183 611 183 640 l 183 29 q 154 0 183 0 m 25 719 q 4 728 13 719 q -4 749 -4 736 q -2 758 -4 754 q 1 767 -1 763 l 110 911 q 144 929 124 929 l 169 929 q 204 911 190 929 l 313 767 q 316 758 315 763 q 318 749 318 754 q 310 728 318 736 q 289 719 301 719 q 265 732 274 719 l 161 871 l 153 871 l 49 732 q 25 719 40 719 z "},"ȉ":{"ha":308,"x_min":-76,"x_max":261,"o":"m 90 738 q 52 742 69 721 l -60 875 q -57 913 -76 895 q -19 908 -37 930 l 93 776 q 90 738 108 756 m 242 738 q 205 742 222 721 l 92 875 q 96 913 77 895 q 133 908 116 930 l 246 776 q 242 738 261 756 m 154 0 q 125 29 125 0 l 125 611 q 154 640 125 640 q 183 611 183 640 l 183 29 q 154 0 183 0 z "},"ï":{"ha":308,"x_min":8,"x_max":300,"o":"m 154 0 q 125 29 125 0 l 125 611 q 154 640 125 640 q 183 611 183 640 l 183 29 q 154 0 183 0 m 43 763 q 8 799 8 763 l 8 822 q 43 857 8 857 l 67 857 q 101 822 101 857 l 101 799 q 67 763 101 763 l 43 763 m 242 763 q 207 799 207 763 l 207 822 q 242 857 207 857 l 265 857 q 300 822 300 857 l 300 799 q 265 763 300 763 l 242 763 z "},"ị":{"ha":308,"x_min":98,"x_max":209,"o":"m 140 771 q 98 814 98 771 l 98 842 q 140 884 98 884 l 168 884 q 209 842 209 884 l 209 814 q 168 771 209 771 l 140 771 m 142 -208 q 107 -172 107 -208 l 107 -149 q 142 -114 107 -114 l 165 -114 q 200 -149 200 -114 l 200 -172 q 165 -208 200 -208 l 142 -208 m 154 0 q 125 29 125 0 l 125 611 q 154 640 125 640 q 183 611 183 640 l 183 29 q 154 0 183 0 m 142 -208 q 107 -172 107 -208 l 107 -149 q 142 -114 107 -114 l 165 -114 q 200 -149 200 -114 l 200 -172 q 165 -208 200 -208 l 142 -208 z "},"ì":{"ha":308,"x_min":10,"x_max":214,"o":"m 154 0 q 125 29 125 0 l 125 611 q 154 640 125 640 q 183 611 183 640 l 183 29 q 154 0 183 0 m 193 726 q 151 731 171 706 l 26 878 q 31 919 10 901 q 72 915 53 940 l 197 768 q 193 726 214 745 z "},"ỉ":{"ha":308,"x_min":54,"x_max":285,"o":"m 154 0 q 125 29 125 0 l 125 611 q 154 640 125 640 q 183 611 183 640 l 183 29 q 154 0 183 0 m 154 719 q 132 727 140 719 q 125 749 125 734 q 148 814 125 792 q 190 847 172 836 q 220 869 213 861 q 226 890 226 877 q 215 935 226 924 q 169 947 203 947 q 124 935 136 947 q 113 890 113 924 q 105 868 113 876 q 83 861 98 861 q 61 868 69 861 q 54 890 54 876 q 169 1006 54 1006 q 285 890 285 1006 q 262 830 285 850 q 221 797 240 809 q 191 774 198 783 q 183 749 183 765 q 176 727 183 734 q 154 719 169 719 z "},"ȋ":{"ha":308,"x_min":13,"x_max":296,"o":"m 154 879 q 260 843 225 879 q 296 736 296 806 q 267 707 296 707 q 245 713 252 707 q 238 736 238 719 q 220 799 238 778 q 154 821 203 821 q 90 801 108 821 q 71 736 71 781 q 42 707 71 707 q 13 736 13 707 q 47 841 13 803 q 154 879 81 879 m 154 0 q 125 29 125 0 l 125 611 q 154 640 125 640 q 183 611 183 640 l 183 29 q 154 0 183 0 z "},"ī":{"ha":308,"x_min":25,"x_max":282,"o":"m 154 0 q 125 29 125 0 l 125 611 q 154 640 125 640 q 183 611 183 640 l 183 29 q 154 0 183 0 m 54 807 q 25 836 25 807 q 54 865 25 865 l 253 865 q 282 836 282 865 q 253 807 282 807 l 54 807 z "},"į":{"ha":308,"x_min":31,"x_max":285,"o":"m 140 771 q 98 814 98 771 l 98 842 q 140 884 98 884 l 168 884 q 209 842 209 884 l 209 814 q 168 771 209 771 l 140 771 m 154 0 q 125 29 125 0 l 125 611 q 154 640 125 640 q 183 611 183 640 l 183 29 q 154 0 183 0 m 153 -233 q 66 -202 102 -233 q 31 -124 31 -170 q 39 -82 31 -103 q 61 -42 47 -60 l 129 47 q 153 58 138 58 q 174 50 165 58 q 182 29 182 42 q 176 11 182 19 l 108 -78 q 89 -124 89 -103 q 107 -160 89 -145 q 153 -175 125 -175 q 195 -165 175 -175 q 235 -136 215 -156 q 244 -130 239 -132 q 256 -128 249 -128 q 276 -136 268 -128 q 285 -157 285 -144 q 276 -178 285 -169 q 153 -233 221 -233 z "}}}
